<svg width="525" height="94" viewBox="0 0 525 94" fill="none" xmlns="http://www.w3.org/2000/svg">
<path d="M8.36311 21.9852C5.92631 21.9852 3.98661 21.2834 2.54402 19.8798C1.10144 18.4567 0.380142 16.3903 0.380142 13.6806V9.0019C0.380142 6.29217 1.10144 4.23551 2.54402 2.83191C3.98661 1.40881 5.92631 0.697266 8.36311 0.697266C10.7804 0.697266 12.6324 1.36982 13.919 2.71494C15.2252 4.06006 15.8782 5.90228 15.8782 8.24161V8.38782H13.4512V8.15389C13.4512 6.61383 13.032 5.35644 12.1938 4.38172C11.375 3.3875 10.0981 2.89039 8.36311 2.89039C6.62811 2.89039 5.27325 3.42649 4.29852 4.49868C3.3238 5.55138 2.83644 7.03296 2.83644 8.94341V13.739C2.83644 15.6495 3.3238 17.1408 4.29852 18.213C5.27325 19.2657 6.62811 19.7921 8.36311 19.7921C10.0981 19.7921 11.375 19.3047 12.1938 18.33C13.032 17.3358 13.4512 16.0686 13.4512 14.5286V14.0607H15.8782V14.4408C15.8782 16.7802 15.2252 18.6224 13.919 19.9675C12.6324 21.3126 10.7804 21.9852 8.36311 21.9852Z" fill="#949686"/>
<path d="M26.4228 21.9852C24.9802 21.9852 23.7033 21.683 22.5922 21.0787C21.5005 20.4744 20.6427 19.6264 20.0189 18.5347C19.4146 17.4235 19.1124 16.1174 19.1124 14.6163V14.2362C19.1124 12.7546 19.4146 11.4582 20.0189 10.347C20.6427 9.23583 21.5005 8.37808 22.5922 7.77375C23.7033 7.16942 24.9802 6.86726 26.4228 6.86726C27.8654 6.86726 29.1325 7.16942 30.2242 7.77375C31.3354 8.37808 32.1932 9.23583 32.7975 10.347C33.4213 11.4582 33.7332 12.7546 33.7332 14.2362V14.6163C33.7332 16.1174 33.4213 17.4235 32.7975 18.5347C32.1932 19.6264 31.3354 20.4744 30.2242 21.0787C29.1325 21.683 27.8654 21.9852 26.4228 21.9852ZM26.4228 19.909C27.9434 19.909 29.152 19.4314 30.0488 18.4762C30.965 17.5015 31.4231 16.1953 31.4231 14.5578V14.2946C31.4231 12.6571 30.965 11.3607 30.0488 10.4055C29.152 9.43077 27.9434 8.94341 26.4228 8.94341C24.9217 8.94341 23.7131 9.43077 22.7968 10.4055C21.8806 11.3607 21.4225 12.6571 21.4225 14.2946V14.5578C21.4225 16.1953 21.8806 17.5015 22.7968 18.4762C23.7131 19.4314 24.9217 19.909 26.4228 19.909Z" fill="#949686"/>
<path d="M37.8903 21.5758V7.27664H40.1419V9.06038H40.5513C40.8243 8.55353 41.2726 8.08566 41.8964 7.65678C42.5203 7.2279 43.3975 7.01346 44.5282 7.01346C45.6394 7.01346 46.5361 7.25715 47.2184 7.74451C47.9202 8.23187 48.4271 8.82645 48.739 9.52825H49.1484C49.4798 8.82645 49.9769 8.23187 50.6397 7.74451C51.322 7.25715 52.2675 7.01346 53.4761 7.01346C54.4314 7.01346 55.2696 7.20841 55.9909 7.5983C56.7122 7.98819 57.2776 8.55353 57.6869 9.29431C58.1158 10.0156 58.3303 10.8831 58.3303 11.8968V21.5758H56.0202V12.1015C56.0202 11.1463 55.7375 10.3958 55.1722 9.84991C54.6263 9.28457 53.8563 9.0019 52.8621 9.0019C51.8094 9.0019 50.9419 9.34305 50.2596 10.0254C49.5968 10.7077 49.2653 11.6921 49.2653 12.9788V21.5758H46.9553V12.1015C46.9553 11.1463 46.6726 10.3958 46.1072 9.84991C45.5614 9.28457 44.7914 9.0019 43.7972 9.0019C42.7445 9.0019 41.877 9.34305 41.1946 10.0254C40.5318 10.7077 40.2004 11.6921 40.2004 12.9788V21.5758H37.8903Z" fill="#949686"/>
<path d="M63.0484 27.4241V7.27664H65.3V9.64521H65.7094C66.0798 8.92392 66.6744 8.2806 67.4932 7.71526C68.3314 7.14993 69.4914 6.86726 70.9729 6.86726C72.2011 6.86726 73.322 7.16942 74.3357 7.77375C75.3689 8.35858 76.1877 9.19684 76.792 10.2885C77.4158 11.3802 77.7278 12.6961 77.7278 14.2362V14.6163C77.7278 16.1369 77.4256 17.4527 76.8213 18.5639C76.2169 19.6751 75.3982 20.5231 74.365 21.1079C73.3513 21.6928 72.2206 21.9852 70.9729 21.9852C69.9787 21.9852 69.1307 21.8487 68.4289 21.5758C67.7466 21.3224 67.191 20.991 66.7621 20.5816C66.3333 20.1722 66.0018 19.7531 65.7679 19.3242H65.3585V27.4241H63.0484ZM70.3589 19.9383C71.8404 19.9383 73.0393 19.4704 73.9556 18.5347C74.8913 17.5795 75.3592 16.2538 75.3592 14.5578V14.2946C75.3592 12.5986 74.8913 11.2827 73.9556 10.347C73.0393 9.39179 71.8404 8.91417 70.3589 8.91417C68.8968 8.91417 67.6881 9.39179 66.7329 10.347C65.7972 11.2827 65.3293 12.5986 65.3293 14.2946V14.5578C65.3293 16.2538 65.7972 17.5795 66.7329 18.5347C67.6881 19.4704 68.8968 19.9383 70.3589 19.9383Z" fill="#949686"/>
<path d="M88.4172 21.9852C86.9746 21.9852 85.7075 21.683 84.6158 21.0787C83.5241 20.4549 82.6761 19.5874 82.0717 18.4762C81.4674 17.365 81.1653 16.0784 81.1653 14.6163V14.2654C81.1653 12.7838 81.4674 11.4874 82.0717 10.3763C82.6761 9.26507 83.5143 8.40732 84.5865 7.80299C85.6587 7.17917 86.8869 6.86726 88.271 6.86726C89.6161 6.86726 90.8053 7.15967 91.8385 7.74451C92.8717 8.30984 93.6807 9.12861 94.2655 10.2008C94.8504 11.273 95.1428 12.5304 95.1428 13.973V15.0257H83.4753C83.5338 16.5657 84.0309 17.7744 84.9667 18.6516C85.9024 19.5094 87.0721 19.9383 88.4757 19.9383C89.7038 19.9383 90.6493 19.6556 91.3121 19.0903C91.9749 18.5249 92.4818 17.8524 92.8327 17.0726L94.8211 18.0376C94.5287 18.6419 94.1193 19.2462 93.593 19.8506C93.0861 20.4549 92.4135 20.9617 91.5753 21.3711C90.7565 21.7805 89.7038 21.9852 88.4172 21.9852ZM83.5046 13.125H92.8034C92.7255 11.7994 92.2673 10.7661 91.4291 10.0254C90.6103 9.28457 89.5576 8.91417 88.271 8.91417C86.9649 8.91417 85.8927 9.28457 85.0544 10.0254C84.2161 10.7661 83.6995 11.7994 83.5046 13.125Z" fill="#949686"/>
<path d="M103.836 21.5758C103.017 21.5758 102.384 21.3516 101.935 20.9033C101.506 20.4549 101.292 19.8408 101.292 19.061V9.29431H96.9934V7.27664H101.292V2.18859H103.602V7.27664H108.281V9.29431H103.602V18.7101C103.602 19.295 103.885 19.5874 104.45 19.5874H107.637V21.5758H103.836Z" fill="#949686"/>
<path d="M112.023 21.5758V7.27664H114.333V21.5758H112.023ZM113.192 5.05427C112.685 5.05427 112.256 4.88857 111.906 4.55717C111.574 4.22576 111.408 3.80663 111.408 3.29977C111.408 2.77342 111.574 2.34455 111.906 2.01314C112.256 1.68173 112.685 1.51603 113.192 1.51603C113.699 1.51603 114.118 1.68173 114.45 2.01314C114.781 2.34455 114.947 2.77342 114.947 3.29977C114.947 3.80663 114.781 4.22576 114.45 4.55717C114.118 4.88857 113.699 5.05427 113.192 5.05427Z" fill="#949686"/>
<path d="M124.454 21.5758C123.635 21.5758 123.001 21.3516 122.553 20.9033C122.124 20.4549 121.91 19.8408 121.91 19.061V9.29431H117.611V7.27664H121.91V2.18859H124.22V7.27664H128.898V9.29431H124.22V18.7101C124.22 19.295 124.502 19.5874 125.068 19.5874H128.255V21.5758H124.454Z" fill="#949686"/>
<path d="M132.64 21.5758V7.27664H134.95V21.5758H132.64ZM133.81 5.05427C133.303 5.05427 132.874 4.88857 132.523 4.55717C132.192 4.22576 132.026 3.80663 132.026 3.29977C132.026 2.77342 132.192 2.34455 132.523 2.01314C132.874 1.68173 133.303 1.51603 133.81 1.51603C134.317 1.51603 134.736 1.68173 135.067 2.01314C135.399 2.34455 135.564 2.77342 135.564 3.29977C135.564 3.80663 135.399 4.22576 135.067 4.55717C134.736 4.88857 134.317 5.05427 133.81 5.05427Z" fill="#949686"/>
<path d="M143.434 21.5758L138.316 7.27664H140.773L145.071 19.8506H145.481L149.779 7.27664H152.236L147.118 21.5758H143.434Z" fill="#949686"/>
<path d="M161.521 21.9852C160.079 21.9852 158.812 21.683 157.72 21.0787C156.628 20.4549 155.78 19.5874 155.176 18.4762C154.572 17.365 154.269 16.0784 154.269 14.6163V14.2654C154.269 12.7838 154.572 11.4874 155.176 10.3763C155.78 9.26507 156.618 8.40732 157.691 7.80299C158.763 7.17917 159.991 6.86726 161.375 6.86726C162.72 6.86726 163.909 7.15967 164.943 7.74451C165.976 8.30984 166.785 9.12861 167.37 10.2008C167.954 11.273 168.247 12.5304 168.247 13.973V15.0257H156.579C156.638 16.5657 157.135 17.7744 158.071 18.6516C159.007 19.5094 160.176 19.9383 161.58 19.9383C162.808 19.9383 163.753 19.6556 164.416 19.0903C165.079 18.5249 165.586 17.8524 165.937 17.0726L167.925 18.0376C167.633 18.6419 167.223 19.2462 166.697 19.8506C166.19 20.4549 165.518 20.9617 164.679 21.3711C163.861 21.7805 162.808 21.9852 161.521 21.9852ZM156.609 13.125H165.908C165.83 11.7994 165.371 10.7661 164.533 10.0254C163.714 9.28457 162.662 8.91417 161.375 8.91417C160.069 8.91417 158.997 9.28457 158.159 10.0254C157.32 10.7661 156.804 11.7994 156.609 13.125Z" fill="#949686"/>
<path d="M179.699 21.5758V1.10665H187.536C188.764 1.10665 189.856 1.35033 190.811 1.83769C191.785 2.30556 192.555 2.97812 193.121 3.85537C193.686 4.73261 193.969 5.79506 193.969 7.04271V7.42285C193.969 8.651 193.676 9.71344 193.092 10.6102C192.526 11.4874 191.756 12.16 190.781 12.6279C189.807 13.0957 188.725 13.3297 187.536 13.3297H182.155V21.5758H179.699ZM182.155 11.1073H187.272C188.579 11.1073 189.612 10.7856 190.372 10.1423C191.132 9.47951 191.513 8.55353 191.513 7.36436V7.07195C191.513 5.88279 191.132 4.96655 190.372 4.32323C189.631 3.66042 188.598 3.32902 187.272 3.32902H182.155V11.1073Z" fill="#949686"/>
<path d="M197.349 21.5758V7.27664H199.6V9.03114H200.01C200.263 8.40732 200.653 7.9492 201.179 7.65678C201.706 7.36436 202.398 7.21816 203.256 7.21816H204.952V9.32356H203.109C202.076 9.32356 201.238 9.61597 200.595 10.2008C199.971 10.7661 199.659 11.6531 199.659 12.8618V21.5758H197.349Z" fill="#949686"/>
<path d="M214.466 21.9852C213.024 21.9852 211.747 21.683 210.635 21.0787C209.544 20.4744 208.686 19.6264 208.062 18.5347C207.458 17.4235 207.156 16.1174 207.156 14.6163V14.2362C207.156 12.7546 207.458 11.4582 208.062 10.347C208.686 9.23583 209.544 8.37808 210.635 7.77375C211.747 7.16942 213.024 6.86726 214.466 6.86726C215.909 6.86726 217.176 7.16942 218.268 7.77375C219.379 8.37808 220.236 9.23583 220.841 10.347C221.465 11.4582 221.777 12.7546 221.777 14.2362V14.6163C221.777 16.1174 221.465 17.4235 220.841 18.5347C220.236 19.6264 219.379 20.4744 218.268 21.0787C217.176 21.683 215.909 21.9852 214.466 21.9852ZM214.466 19.909C215.987 19.909 217.195 19.4314 218.092 18.4762C219.008 17.5015 219.466 16.1953 219.466 14.5578V14.2946C219.466 12.6571 219.008 11.3607 218.092 10.4055C217.195 9.43077 215.987 8.94341 214.466 8.94341C212.965 8.94341 211.756 9.43077 210.84 10.4055C209.924 11.3607 209.466 12.6571 209.466 14.2946V14.5578C209.466 16.1953 209.924 17.5015 210.84 18.4762C211.756 19.4314 212.965 19.909 214.466 19.909Z" fill="#949686"/>
<path d="M225.232 14.4993V14.0899C225.232 12.5889 225.534 11.3022 226.138 10.23C226.743 9.15785 227.561 8.32934 228.595 7.74451C229.628 7.15967 230.758 6.86726 231.987 6.86726C233.488 6.86726 234.638 7.15967 235.437 7.74451C236.256 8.30984 236.86 8.94341 237.25 9.64521H237.66V7.27664H239.853V24.9094C239.853 25.6891 239.638 26.3032 239.209 26.7516C238.78 27.2 238.157 27.4241 237.338 27.4241H227.63V25.3772H236.724C237.309 25.3772 237.601 25.0848 237.601 24.5V19.061H237.192C236.958 19.4899 236.626 19.909 236.197 20.3184C235.769 20.7278 235.213 21.069 234.531 21.3419C233.848 21.5953 233 21.722 231.987 21.722C230.758 21.722 229.628 21.4296 228.595 20.8448C227.561 20.2599 226.743 19.4314 226.138 18.3592C225.534 17.2675 225.232 15.9809 225.232 14.4993ZM232.601 19.6751C234.082 19.6751 235.281 19.2072 236.197 18.2715C237.133 17.3358 237.601 16.0491 237.601 14.4116V14.1777C237.601 12.5206 237.133 11.234 236.197 10.3178C235.281 9.38204 234.082 8.91417 232.601 8.91417C231.139 8.91417 229.93 9.38204 228.975 10.3178C228.039 11.234 227.571 12.5206 227.571 14.1777V14.4116C227.571 16.0491 228.039 17.3358 228.975 18.2715C229.93 19.2072 231.139 19.6751 232.601 19.6751Z" fill="#949686"/>
<path d="M244.695 21.5758V7.27664H246.947V9.03114H247.356C247.61 8.40732 247.999 7.9492 248.526 7.65678C249.052 7.36436 249.744 7.21816 250.602 7.21816H252.298V9.32356H250.456C249.423 9.32356 248.584 9.61597 247.941 10.2008C247.317 10.7661 247.005 11.6531 247.005 12.8618V21.5758H244.695Z" fill="#949686"/>
<path d="M259.619 21.9852C258.624 21.9852 257.718 21.8097 256.899 21.4588C256.08 21.1079 255.437 20.6011 254.969 19.9383C254.501 19.2755 254.267 18.4664 254.267 17.5112C254.267 16.5365 254.501 15.7372 254.969 15.1134C255.437 14.4701 256.08 13.9925 256.899 13.6806C257.718 13.3492 258.634 13.1835 259.648 13.1835H264.473V12.1308C264.473 11.117 264.171 10.3178 263.566 9.73294C262.981 9.14811 262.104 8.85569 260.935 8.85569C259.784 8.85569 258.888 9.13836 258.244 9.7037C257.601 10.2495 257.162 10.9903 256.928 11.9261L254.765 11.2243C254.998 10.425 255.369 9.7037 255.876 9.06038C256.383 8.39757 257.055 7.87122 257.893 7.48133C258.751 7.07195 259.775 6.86726 260.964 6.86726C262.796 6.86726 264.219 7.34487 265.233 8.3001C266.247 9.23583 266.754 10.5615 266.754 12.277V18.7394C266.754 19.3242 267.027 19.6166 267.572 19.6166H268.888V21.5758H266.871C266.227 21.5758 265.711 21.4004 265.321 21.0495C264.931 20.6791 264.736 20.1917 264.736 19.5874V19.4412H264.385C264.171 19.8116 263.878 20.2015 263.508 20.6108C263.157 21.0007 262.67 21.3224 262.046 21.5758C261.422 21.8487 260.613 21.9852 259.619 21.9852ZM259.882 19.9968C261.246 19.9968 262.348 19.5971 263.186 18.7979C264.044 17.9791 264.473 16.8387 264.473 15.3766V15.0549H259.736C258.819 15.0549 258.059 15.2596 257.455 15.669C256.87 16.0589 256.578 16.6535 256.578 17.4527C256.578 18.252 256.88 18.8758 257.484 19.3242C258.108 19.7726 258.907 19.9968 259.882 19.9968Z" fill="#949686"/>
<path d="M272.052 21.5758V7.27664H274.304V9.06038H274.713C274.986 8.55353 275.434 8.08566 276.058 7.65678C276.682 7.2279 277.559 7.01346 278.69 7.01346C279.801 7.01346 280.698 7.25715 281.38 7.74451C282.082 8.23187 282.589 8.82645 282.901 9.52825H283.31C283.641 8.82645 284.139 8.23187 284.801 7.74451C285.484 7.25715 286.429 7.01346 287.638 7.01346C288.593 7.01346 289.431 7.20841 290.153 7.5983C290.874 7.98819 291.439 8.55353 291.849 9.29431C292.278 10.0156 292.492 10.8831 292.492 11.8968V21.5758H290.182V12.1015C290.182 11.1463 289.899 10.3958 289.334 9.84991C288.788 9.28457 288.018 9.0019 287.024 9.0019C285.971 9.0019 285.104 9.34305 284.421 10.0254C283.758 10.7077 283.427 11.6921 283.427 12.9788V21.5758H281.117V12.1015C281.117 11.1463 280.834 10.3958 280.269 9.84991C279.723 9.28457 278.953 9.0019 277.959 9.0019C276.906 9.0019 276.039 9.34305 275.356 10.0254C274.694 10.7077 274.362 11.6921 274.362 12.9788V21.5758H272.052Z" fill="#949686"/>
<path d="M297.21 21.5758V7.27664H299.462V9.06038H299.871C300.144 8.55353 300.592 8.08566 301.216 7.65678C301.84 7.2279 302.717 7.01346 303.848 7.01346C304.959 7.01346 305.856 7.25715 306.538 7.74451C307.24 8.23187 307.747 8.82645 308.059 9.52825H308.468C308.8 8.82645 309.297 8.23187 309.96 7.74451C310.642 7.25715 311.587 7.01346 312.796 7.01346C313.751 7.01346 314.589 7.20841 315.311 7.5983C316.032 7.98819 316.597 8.55353 317.007 9.29431C317.436 10.0156 317.65 10.8831 317.65 11.8968V21.5758H315.34V12.1015C315.34 11.1463 315.057 10.3958 314.492 9.84991C313.946 9.28457 313.176 9.0019 312.182 9.0019C311.129 9.0019 310.262 9.34305 309.579 10.0254C308.917 10.7077 308.585 11.6921 308.585 12.9788V21.5758H306.275V12.1015C306.275 11.1463 305.992 10.3958 305.427 9.84991C304.881 9.28457 304.111 9.0019 303.117 9.0019C302.064 9.0019 301.197 9.34305 300.514 10.0254C299.852 10.7077 299.52 11.6921 299.52 12.9788V21.5758H297.21Z" fill="#949686"/>
<path d="M322.368 21.5758V7.27664H324.678V21.5758H322.368ZM323.538 5.05427C323.031 5.05427 322.602 4.88857 322.251 4.55717C321.92 4.22576 321.754 3.80663 321.754 3.29977C321.754 2.77342 321.92 2.34455 322.251 2.01314C322.602 1.68173 323.031 1.51603 323.538 1.51603C324.045 1.51603 324.464 1.68173 324.795 2.01314C325.127 2.34455 325.292 2.77342 325.292 3.29977C325.292 3.80663 325.127 4.22576 324.795 4.55717C324.464 4.88857 324.045 5.05427 323.538 5.05427Z" fill="#949686"/>
<path d="M329.536 21.5758V7.27664H331.788V9.7037H332.197C332.509 9.02139 333.035 8.40732 333.776 7.86147C334.536 7.29613 335.647 7.01346 337.109 7.01346C338.182 7.01346 339.137 7.23765 339.975 7.68602C340.833 8.13439 341.515 8.79721 342.022 9.67446C342.529 10.5517 342.782 11.6336 342.782 12.9203V21.5758H340.472V13.0957C340.472 11.6726 340.112 10.6394 339.39 9.99611C338.689 9.3528 337.733 9.03114 336.525 9.03114C335.141 9.03114 334.01 9.47951 333.133 10.3763C332.275 11.273 331.846 12.6084 331.846 14.3824V21.5758H329.536Z" fill="#949686"/>
<path d="M346.767 14.4993V14.0899C346.767 12.5889 347.07 11.3022 347.674 10.23C348.278 9.15785 349.097 8.32934 350.13 7.74451C351.163 7.15967 352.294 6.86726 353.522 6.86726C355.023 6.86726 356.174 7.15967 356.973 7.74451C357.792 8.30984 358.396 8.94341 358.786 9.64521H359.195V7.27664H361.388V24.9094C361.388 25.6891 361.174 26.3032 360.745 26.7516C360.316 27.2 359.692 27.4241 358.874 27.4241H349.165V25.3772H358.259C358.844 25.3772 359.137 25.0848 359.137 24.5V19.061H358.727C358.493 19.4899 358.162 19.909 357.733 20.3184C357.304 20.7278 356.749 21.069 356.066 21.3419C355.384 21.5953 354.536 21.722 353.522 21.722C352.294 21.722 351.163 21.4296 350.13 20.8448C349.097 20.2599 348.278 19.4314 347.674 18.3592C347.07 17.2675 346.767 15.9809 346.767 14.4993ZM354.136 19.6751C355.618 19.6751 356.817 19.2072 357.733 18.2715C358.669 17.3358 359.137 16.0491 359.137 14.4116V14.1777C359.137 12.5206 358.669 11.234 357.733 10.3178C356.817 9.38204 355.618 8.91417 354.136 8.91417C352.674 8.91417 351.466 9.38204 350.51 10.3178C349.575 11.234 349.107 12.5206 349.107 14.1777V14.4116C349.107 16.0491 349.575 17.3358 350.51 18.2715C351.466 19.2072 352.674 19.6751 354.136 19.6751Z" fill="#949686"/>
<path d="M365.997 25.231V23.7689H366.845C367.547 23.7689 367.898 23.418 367.898 22.7162V21.7805H367.488C366.923 21.7805 366.445 21.6051 366.055 21.2542C365.685 20.9033 365.5 20.4646 365.5 19.9383C365.5 19.3729 365.685 18.9148 366.055 18.5639C366.445 18.213 366.923 18.0376 367.488 18.0376C368.053 18.0376 368.521 18.2228 368.892 18.5932C369.262 18.9636 369.447 19.4314 369.447 19.9968V22.7162C369.447 24.3928 368.609 25.231 366.933 25.231H365.997Z" fill="#949686"/>
<path d="M387.42 21.9852C385.899 21.9852 384.573 21.7123 383.443 21.1664C382.312 20.6206 381.435 19.8116 380.811 18.7394C380.187 17.6477 379.875 16.3123 379.875 14.7333V1.10665H382.302V14.7625C382.302 16.439 382.751 17.6964 383.647 18.5347C384.544 19.3729 385.802 19.7921 387.42 19.7921C389.038 19.7921 390.295 19.3729 391.192 18.5347C392.088 17.6964 392.537 16.439 392.537 14.7625V1.10665H394.993V14.7333C394.993 16.3123 394.681 17.6477 394.057 18.7394C393.434 19.8116 392.547 20.6206 391.396 21.1664C390.266 21.7123 388.94 21.9852 387.42 21.9852Z" fill="#949686"/>
<path d="M398.093 21.5758L404.702 11.2535L398.181 1.10665H401.076L406.281 9.55749H406.661L411.895 1.10665H414.761L408.269 11.2535L414.878 21.5758H412.012L406.661 12.9495H406.281L400.959 21.5758H398.093Z" fill="#949686"/>
<path d="M424.689 21.5758V19.3827H427.555V3.29977H424.689V1.10665H432.672C435.363 1.10665 437.439 1.78895 438.901 3.15356C440.382 4.51818 441.123 6.61383 441.123 9.44052V13.2419C441.123 16.0881 440.382 18.1935 438.901 19.5581C437.439 20.9033 435.363 21.5758 432.672 21.5758H424.689ZM430.011 19.3534H432.672C434.661 19.3534 436.162 18.8661 437.176 17.8914C438.189 16.9166 438.696 15.4058 438.696 13.3589V9.3528C438.696 7.26689 438.189 5.74633 437.176 4.7911C436.162 3.83587 434.661 3.35826 432.672 3.35826H430.011V19.3534Z" fill="#949686"/>
<path d="M451.682 21.9852C450.239 21.9852 448.972 21.683 447.881 21.0787C446.789 20.4549 445.941 19.5874 445.337 18.4762C444.732 17.365 444.43 16.0784 444.43 14.6163V14.2654C444.43 12.7838 444.732 11.4874 445.337 10.3763C445.941 9.26507 446.779 8.40732 447.851 7.80299C448.924 7.17917 450.152 6.86726 451.536 6.86726C452.881 6.86726 454.07 7.15967 455.103 7.74451C456.136 8.30984 456.945 9.12861 457.53 10.2008C458.115 11.273 458.408 12.5304 458.408 13.973V15.0257H446.74C446.799 16.5657 447.296 17.7744 448.231 18.6516C449.167 19.5094 450.337 19.9383 451.74 19.9383C452.969 19.9383 453.914 19.6556 454.577 19.0903C455.24 18.5249 455.747 17.8524 456.097 17.0726L458.086 18.0376C457.793 18.6419 457.384 19.2462 456.858 19.8506C456.351 20.4549 455.678 20.9617 454.84 21.3711C454.021 21.7805 452.969 21.9852 451.682 21.9852ZM446.769 13.125H456.068C455.99 11.7994 455.532 10.7661 454.694 10.0254C453.875 9.28457 452.822 8.91417 451.536 8.91417C450.23 8.91417 449.157 9.28457 448.319 10.0254C447.481 10.7661 446.964 11.7994 446.769 13.125Z" fill="#949686"/>
<path d="M468.198 21.9852C466.424 21.9852 464.923 21.5758 463.694 20.757C462.486 19.9383 461.755 18.6419 461.501 16.8679L463.694 16.3708C463.85 17.3065 464.143 18.0473 464.572 18.5932C465.001 19.1195 465.527 19.4997 466.151 19.7336C466.794 19.948 467.476 20.0552 468.198 20.0552C469.27 20.0552 470.118 19.8408 470.742 19.4119C471.365 18.9831 471.677 18.408 471.677 17.6867C471.677 16.9459 471.375 16.4293 470.771 16.1369C470.186 15.825 469.377 15.5715 468.344 15.3766L467.145 15.1719C466.229 15.0159 465.39 14.7723 464.63 14.4408C463.87 14.1094 463.265 13.6611 462.817 13.0957C462.369 12.5304 462.145 11.8188 462.145 10.9611C462.145 9.67446 462.642 8.67049 463.636 7.9492C464.63 7.2279 465.946 6.86726 467.583 6.86726C469.202 6.86726 470.508 7.23765 471.502 7.97844C472.516 8.69973 473.169 9.72319 473.461 11.0488L471.297 11.6044C471.122 10.5712 470.703 9.84991 470.04 9.44052C469.377 9.01164 468.558 8.79721 467.583 8.79721C466.609 8.79721 465.839 8.9824 465.273 9.3528C464.708 9.7037 464.425 10.23 464.425 10.9318C464.425 11.6142 464.689 12.121 465.215 12.4524C465.761 12.7643 466.482 12.9983 467.379 13.1542L468.578 13.3589C469.591 13.5344 470.498 13.778 471.297 14.0899C472.116 14.3824 472.759 14.8112 473.227 15.3766C473.715 15.9419 473.958 16.6827 473.958 17.5989C473.958 19.0025 473.432 20.0845 472.379 20.8448C471.346 21.6051 469.952 21.9852 468.198 21.9852Z" fill="#949686"/>
<path d="M477.857 21.5758V7.27664H480.167V21.5758H477.857ZM479.027 5.05427C478.52 5.05427 478.091 4.88857 477.74 4.55717C477.409 4.22576 477.243 3.80663 477.243 3.29977C477.243 2.77342 477.409 2.34455 477.74 2.01314C478.091 1.68173 478.52 1.51603 479.027 1.51603C479.534 1.51603 479.953 1.68173 480.284 2.01314C480.616 2.34455 480.782 2.77342 480.782 3.29977C480.782 3.80663 480.616 4.22576 480.284 4.55717C479.953 4.88857 479.534 5.05427 479.027 5.05427Z" fill="#949686"/>
<path d="M484.323 14.4993V14.0899C484.323 12.5889 484.625 11.3022 485.23 10.23C485.834 9.15785 486.653 8.32934 487.686 7.74451C488.719 7.15967 489.85 6.86726 491.078 6.86726C492.579 6.86726 493.729 7.15967 494.529 7.74451C495.347 8.30984 495.952 8.94341 496.342 9.64521H496.751V7.27664H498.944V24.9094C498.944 25.6891 498.73 26.3032 498.301 26.7516C497.872 27.2 497.248 27.4241 496.429 27.4241H486.721V25.3772H495.815C496.4 25.3772 496.692 25.0848 496.692 24.5V19.061H496.283C496.049 19.4899 495.718 19.909 495.289 20.3184C494.86 20.7278 494.304 21.069 493.622 21.3419C492.94 21.5953 492.092 21.722 491.078 21.722C489.85 21.722 488.719 21.4296 487.686 20.8448C486.653 20.2599 485.834 19.4314 485.23 18.3592C484.625 17.2675 484.323 15.9809 484.323 14.4993ZM491.692 19.6751C493.174 19.6751 494.373 19.2072 495.289 18.2715C496.225 17.3358 496.692 16.0491 496.692 14.4116V14.1777C496.692 12.5206 496.225 11.234 495.289 10.3178C494.373 9.38204 493.174 8.91417 491.692 8.91417C490.23 8.91417 489.021 9.38204 488.066 10.3178C487.13 11.234 486.663 12.5206 486.663 14.1777V14.4116C486.663 16.0491 487.13 17.3358 488.066 18.2715C489.021 19.2072 490.23 19.6751 491.692 19.6751Z" fill="#949686"/>
<path d="M503.786 21.5758V7.27664H506.038V9.7037H506.447C506.759 9.02139 507.286 8.40732 508.027 7.86147C508.787 7.29613 509.898 7.01346 511.36 7.01346C512.432 7.01346 513.388 7.23765 514.226 7.68602C515.084 8.13439 515.766 8.79721 516.273 9.67446C516.78 10.5517 517.033 11.6336 517.033 12.9203V21.5758H514.723V13.0957C514.723 11.6726 514.362 10.6394 513.641 9.99611C512.939 9.3528 511.984 9.03114 510.775 9.03114C509.391 9.03114 508.26 9.47951 507.383 10.3763C506.525 11.273 506.097 12.6084 506.097 14.3824V21.5758H503.786Z" fill="#949686"/>
<path d="M521.486 25.231V23.7689H522.334C523.036 23.7689 523.387 23.418 523.387 22.7162V21.7805H522.977C522.412 21.7805 521.934 21.6051 521.544 21.2542C521.174 20.9033 520.989 20.4646 520.989 19.9383C520.989 19.3729 521.174 18.9148 521.544 18.5639C521.934 18.213 522.412 18.0376 522.977 18.0376C523.543 18.0376 524.01 18.2228 524.381 18.5932C524.751 18.9636 524.936 19.4314 524.936 19.9968V22.7162C524.936 24.3928 524.098 25.231 522.422 25.231H521.486Z" fill="#949686"/>
<path d="M0 54.5758V52.3827H2.86568V36.2998H0V34.1066H7.98297C10.6732 34.1066 12.7494 34.789 14.2114 36.1536C15.693 37.5182 16.4338 39.6138 16.4338 42.4405V46.2419C16.4338 49.0881 15.693 51.1935 14.2114 52.5581C12.7494 53.9033 10.6732 54.5758 7.98297 54.5758H0ZM5.32198 52.3534H7.98297C9.97141 52.3534 11.4725 51.8661 12.4862 50.8914C13.4999 49.9166 14.0068 48.4058 14.0068 46.3589V42.3528C14.0068 40.2669 13.4999 38.7463 12.4862 37.7911C11.4725 36.8359 9.97141 36.3583 7.98297 36.3583H5.32198V52.3534Z" fill="#949686"/>
<path d="M24.8287 54.9852C23.8345 54.9852 22.928 54.8097 22.1092 54.4588C21.2904 54.1079 20.6471 53.6011 20.1793 52.9383C19.7114 52.2755 19.4775 51.4664 19.4775 50.5112C19.4775 49.5365 19.7114 48.7372 20.1793 48.1134C20.6471 47.4701 21.2904 46.9925 22.1092 46.6806C22.928 46.3492 23.8442 46.1835 24.8579 46.1835H29.6828V45.1308C29.6828 44.117 29.3806 43.3178 28.7763 42.7329C28.1915 42.1481 27.3142 41.8557 26.1446 41.8557C24.9944 41.8557 24.0976 42.1384 23.4543 42.7037C22.811 43.2495 22.3724 43.9903 22.1384 44.9261L19.9746 44.2243C20.2085 43.425 20.5789 42.7037 21.0857 42.0604C21.5926 41.3976 22.2652 40.8712 23.1034 40.4813C23.9612 40.0719 24.9846 39.8673 26.1738 39.8673C28.0063 39.8673 29.4294 40.3449 30.4431 41.3001C31.4568 42.2358 31.9636 43.5615 31.9636 45.277V51.7394C31.9636 52.3242 32.2366 52.6166 32.7824 52.6166H34.0983V54.5758H32.0806C31.4373 54.5758 30.9207 54.4004 30.5308 54.0495C30.1409 53.6791 29.946 53.1917 29.946 52.5874V52.4412H29.5951C29.3806 52.8116 29.0882 53.2015 28.7178 53.6108C28.3669 54.0007 27.8796 54.3224 27.2557 54.5758C26.6319 54.8487 25.8229 54.9852 24.8287 54.9852ZM25.0919 52.9968C26.4565 52.9968 27.5579 52.5971 28.3962 51.7979C29.2539 50.9791 29.6828 49.8387 29.6828 48.3766V48.0549H24.9456C24.0294 48.0549 23.2691 48.2596 22.6648 48.669C22.08 49.0589 21.7875 49.6535 21.7875 50.4527C21.7875 51.252 22.0897 51.8758 22.694 52.3242C23.3179 52.7726 24.1171 52.9968 25.0919 52.9968Z" fill="#949686"/>
<path d="M41.5832 54.5758C40.7645 54.5758 40.1309 54.3516 39.6825 53.9033C39.2537 53.4549 39.0392 52.8408 39.0392 52.061V42.2943H34.7407V40.2766H39.0392V35.1886H41.3493V40.2766H46.028V42.2943H41.3493V51.7101C41.3493 52.295 41.632 52.5874 42.1973 52.5874H45.3847V54.5758H41.5832Z" fill="#949686"/>
<path d="M54.0703 54.9852C53.0761 54.9852 52.1696 54.8097 51.3509 54.4588C50.5321 54.1079 49.8888 53.6011 49.4209 52.9383C48.9531 52.2755 48.7191 51.4664 48.7191 50.5112C48.7191 49.5365 48.9531 48.7372 49.4209 48.1134C49.8888 47.4701 50.5321 46.9925 51.3509 46.6806C52.1696 46.3492 53.0859 46.1835 54.0996 46.1835H58.9245V45.1308C58.9245 44.117 58.6223 43.3178 58.018 42.7329C57.4331 42.1481 56.5559 41.8557 55.3862 41.8557C54.236 41.8557 53.3393 42.1384 52.696 42.7037C52.0527 43.2495 51.614 43.9903 51.3801 44.9261L49.2162 44.2243C49.4502 43.425 49.8206 42.7037 50.3274 42.0604C50.8343 41.3976 51.5068 40.8712 52.3451 40.4813C53.2028 40.0719 54.2263 39.8673 55.4155 39.8673C57.2479 39.8673 58.671 40.3449 59.6847 41.3001C60.6985 42.2358 61.2053 43.5615 61.2053 45.277V51.7394C61.2053 52.3242 61.4782 52.6166 62.0241 52.6166H63.3399V54.5758H61.3223C60.679 54.5758 60.1624 54.4004 59.7725 54.0495C59.3826 53.6791 59.1876 53.1917 59.1876 52.5874V52.4412H58.8367C58.6223 52.8116 58.3299 53.2015 57.9595 53.6108C57.6086 54.0007 57.1212 54.3224 56.4974 54.5758C55.8736 54.8487 55.0646 54.9852 54.0703 54.9852ZM54.3335 52.9968C55.6981 52.9968 56.7996 52.5971 57.6378 51.7979C58.4956 50.9791 58.9245 49.8387 58.9245 48.3766V48.0549H54.1873C53.2711 48.0549 52.5108 48.2596 51.9065 48.669C51.3216 49.0589 51.0292 49.6535 51.0292 50.4527C51.0292 51.252 51.3314 51.8758 51.9357 52.3242C52.5595 52.7726 53.3588 52.9968 54.3335 52.9968Z" fill="#949686"/>
<path d="M80.7111 54.9852C79.2295 54.9852 77.9039 54.722 76.7342 54.1957C75.5646 53.6693 74.6386 52.8798 73.9563 51.8271C73.2935 50.7549 72.9621 49.4195 72.9621 47.821V47.2069H75.3891V47.821C75.3891 49.517 75.8862 50.7841 76.8804 51.6224C77.8746 52.4412 79.1515 52.8506 80.7111 52.8506C82.3096 52.8506 83.528 52.4899 84.3663 51.7686C85.2046 51.0473 85.6237 50.1408 85.6237 49.0491C85.6237 48.2889 85.4287 47.6845 85.0389 47.2362C84.6685 46.7878 84.1421 46.4271 83.4598 46.1542C82.7775 45.8618 81.9782 45.6084 81.062 45.3939L79.5414 45.0138C78.3523 44.7019 77.2996 44.3217 76.3833 43.8734C75.4671 43.425 74.7458 42.8402 74.2194 42.1189C73.7126 41.3781 73.4592 40.4326 73.4592 39.2824C73.4592 38.1323 73.7418 37.138 74.3072 36.2998C74.892 35.4615 75.701 34.8182 76.7342 34.3698C77.7869 33.9215 78.9956 33.6973 80.3602 33.6973C81.7443 33.6973 82.9822 33.9409 84.0739 34.4283C85.1851 34.8962 86.0526 35.598 86.6764 36.5337C87.3197 37.4499 87.6414 38.6099 87.6414 40.0135V41.2416H85.2143V40.0135C85.2143 39.0192 84.9999 38.22 84.571 37.6156C84.1616 37.0113 83.5865 36.5629 82.8457 36.2705C82.1244 35.9781 81.2959 35.8319 80.3602 35.8319C79.0151 35.8319 77.9331 36.1341 77.1144 36.7384C76.2956 37.3232 75.8862 38.1615 75.8862 39.2532C75.8862 39.9745 76.0617 40.5593 76.4126 41.0077C76.7635 41.4561 77.2606 41.8264 77.9039 42.1189C78.5472 42.3918 79.3172 42.6355 80.214 42.8499L81.7346 43.23C82.9237 43.4835 83.9862 43.8344 84.9219 44.2827C85.8771 44.7116 86.6374 45.3062 87.2027 46.0665C87.7681 46.8073 88.0507 47.782 88.0507 48.9907C88.0507 50.1993 87.7486 51.252 87.1443 52.1488C86.5399 53.0455 85.6822 53.7473 84.571 54.2542C83.4793 54.7415 82.1927 54.9852 80.7111 54.9852Z" fill="#949686"/>
<path d="M97.1824 54.5758C96.3636 54.5758 95.73 54.3516 95.2817 53.9033C94.8528 53.4549 94.6383 52.8408 94.6383 52.061V42.2943H90.3398V40.2766H94.6383V35.1886H96.9484V40.2766H101.627V42.2943H96.9484V51.7101C96.9484 52.295 97.2311 52.5874 97.7964 52.5874H100.984V54.5758H97.1824Z" fill="#949686"/>
<path d="M105.369 54.5758V40.2766H107.62V42.0311H108.03C108.283 41.4073 108.673 40.9492 109.2 40.6568C109.726 40.3644 110.418 40.2182 111.276 40.2182H112.972V42.3236H111.13C110.096 42.3236 109.258 42.616 108.615 43.2008C107.991 43.7661 107.679 44.6531 107.679 45.8618V54.5758H105.369Z" fill="#949686"/>
<path d="M121.86 54.839C120.827 54.839 119.871 54.6148 118.994 54.1664C118.136 53.7181 117.454 53.0552 116.947 52.178C116.46 51.2812 116.216 50.1993 116.216 48.9322V40.2766H118.526V48.7567C118.526 50.1798 118.877 51.213 119.579 51.8563C120.3 52.4997 121.265 52.8213 122.474 52.8213C123.839 52.8213 124.959 52.3729 125.837 51.4762C126.714 50.5795 127.153 49.2441 127.153 47.4701V40.2766H129.463V54.5758H127.211V52.1488H126.802C126.49 52.8311 125.954 53.4549 125.193 54.0202C124.433 54.5661 123.322 54.839 121.86 54.839Z" fill="#949686"/>
<path d="M140.876 54.9852C139.492 54.9852 138.244 54.6928 137.133 54.1079C136.041 53.5036 135.174 52.6459 134.53 51.5347C133.907 50.4235 133.595 49.1076 133.595 47.5871V47.2654C133.595 45.7253 133.907 44.4095 134.53 43.3178C135.174 42.2066 136.041 41.3586 137.133 40.7737C138.244 40.1694 139.492 39.8673 140.876 39.8673C142.24 39.8673 143.4 40.1207 144.356 40.6275C145.33 41.1344 146.091 41.807 146.636 42.6452C147.202 43.4835 147.562 44.3802 147.718 45.3354L145.467 45.8033C145.369 45.1015 145.135 44.4582 144.765 43.8734C144.414 43.2885 143.917 42.8207 143.274 42.4698C142.63 42.1189 141.841 41.9434 140.905 41.9434C139.95 41.9434 139.092 42.1579 138.332 42.5867C137.591 43.0156 136.996 43.6297 136.548 44.429C136.119 45.2282 135.905 46.1835 135.905 47.2946V47.5578C135.905 48.669 136.119 49.6242 136.548 50.4235C136.996 51.2228 137.591 51.8368 138.332 52.2657C139.092 52.6946 139.95 52.909 140.905 52.909C142.328 52.909 143.41 52.5386 144.151 51.7979C144.911 51.0571 145.379 50.1408 145.554 49.0491L147.835 49.5462C147.621 50.482 147.231 51.369 146.666 52.2072C146.1 53.0455 145.33 53.7181 144.356 54.2249C143.4 54.7318 142.24 54.9852 140.876 54.9852Z" fill="#949686"/>
<path d="M156.437 54.5758C155.618 54.5758 154.984 54.3516 154.536 53.9033C154.107 53.4549 153.893 52.8408 153.893 52.061V42.2943H149.594V40.2766H153.893V35.1886H156.203V40.2766H160.881V42.2943H156.203V51.7101C156.203 52.295 156.485 52.5874 157.051 52.5874H160.238V54.5758H156.437Z" fill="#949686"/>
<path d="M170.091 54.839C169.058 54.839 168.103 54.6148 167.226 54.1664C166.368 53.7181 165.686 53.0552 165.179 52.178C164.691 51.2812 164.448 50.1993 164.448 48.9322V40.2766H166.758V48.7567C166.758 50.1798 167.109 51.213 167.811 51.8563C168.532 52.4997 169.497 52.8213 170.705 52.8213C172.07 52.8213 173.191 52.3729 174.068 51.4762C174.946 50.5795 175.384 49.2441 175.384 47.4701V40.2766H177.694V54.5758H175.443V52.1488H175.033C174.721 52.8311 174.185 53.4549 173.425 54.0202C172.665 54.5661 171.553 54.839 170.091 54.839Z" fill="#949686"/>
<path d="M182.528 54.5758V40.2766H184.78V42.0311H185.189C185.442 41.4073 185.832 40.9492 186.359 40.6568C186.885 40.3644 187.577 40.2182 188.435 40.2182H190.131V42.3236H188.289C187.255 42.3236 186.417 42.616 185.774 43.2008C185.15 43.7661 184.838 44.6531 184.838 45.8618V54.5758H182.528Z" fill="#949686"/>
<path d="M199.587 54.9852C198.144 54.9852 196.877 54.683 195.785 54.0787C194.694 53.4549 193.846 52.5874 193.241 51.4762C192.637 50.365 192.335 49.0784 192.335 47.6163V47.2654C192.335 45.7838 192.637 44.4874 193.241 43.3763C193.846 42.2651 194.684 41.4073 195.756 40.803C196.828 40.1792 198.057 39.8673 199.441 39.8673C200.786 39.8673 201.975 40.1597 203.008 40.7445C204.041 41.3098 204.85 42.1286 205.435 43.2008C206.02 44.273 206.312 45.5304 206.312 46.973V48.0257H194.645C194.704 49.5657 195.201 50.7744 196.136 51.6516C197.072 52.5094 198.242 52.9383 199.645 52.9383C200.874 52.9383 201.819 52.6556 202.482 52.0903C203.145 51.5249 203.651 50.8524 204.002 50.0726L205.991 51.0376C205.698 51.6419 205.289 52.2462 204.763 52.8506C204.256 53.4549 203.583 53.9617 202.745 54.3711C201.926 54.7805 200.874 54.9852 199.587 54.9852ZM194.674 46.125H203.973C203.895 44.7994 203.437 43.7661 202.599 43.0254C201.78 42.2846 200.727 41.9142 199.441 41.9142C198.135 41.9142 197.062 42.2846 196.224 43.0254C195.386 43.7661 194.869 44.7994 194.674 46.125Z" fill="#949686"/>
<path d="M222.736 54.5758C221.605 54.5758 220.581 54.3614 219.665 53.9325C218.749 53.5036 218.028 52.8895 217.501 52.0903C216.975 51.291 216.712 50.3163 216.712 49.1661C216.712 48.3083 216.877 47.5578 217.209 46.9145C217.54 46.2712 217.969 45.7448 218.495 45.3354C219.041 44.9066 219.616 44.5849 220.221 44.3705V44.0488C219.324 43.7759 218.544 43.2788 217.881 42.5575C217.219 41.8167 216.887 40.8127 216.887 39.5456C216.887 38.3759 217.16 37.3817 217.706 36.5629C218.252 35.7442 218.973 35.1301 219.87 34.7207C220.767 34.3113 221.761 34.1066 222.853 34.1066H226.537V36.0951H223.145C222.053 36.0951 221.127 36.3972 220.367 37.0016C219.626 37.5864 219.256 38.4832 219.256 39.6918C219.256 40.5106 219.431 41.1831 219.782 41.7095C220.153 42.2358 220.63 42.6257 221.215 42.8791C221.8 43.1131 222.443 43.23 223.145 43.23H227.18V40.1012H229.49V43.23H232.356V45.2477H229.49V54.5758H222.736ZM223.028 52.5874H227.18V45.2477H223.028C221.917 45.2477 220.971 45.5499 220.192 46.1542C219.431 46.739 219.051 47.6553 219.051 48.9029C219.051 50.1506 219.441 51.0766 220.221 51.6809C221.02 52.2852 221.956 52.5874 223.028 52.5874Z" fill="#949686"/>
<path d="M240.943 54.5758L247.259 34.1066H251.587L257.903 54.5758H255.359L253.78 49.4H245.066L243.487 54.5758H240.943ZM245.68 47.1777H253.137L249.628 35.598H249.218L245.68 47.1777Z" fill="#949686"/>
<path d="M261.058 54.5758V34.1066H263.368V54.5758H261.058Z" fill="#949686"/>
<path d="M267.524 47.4993V47.0899C267.524 45.5889 267.826 44.3022 268.43 43.23C269.035 42.1579 269.853 41.3293 270.887 40.7445C271.92 40.1597 273.05 39.8673 274.279 39.8673C275.78 39.8673 276.93 40.1597 277.729 40.7445C278.548 41.3098 279.152 41.9434 279.542 42.6452H279.951V40.2766H282.145V57.9094C282.145 58.6891 281.93 59.3032 281.501 59.7516C281.072 60.2 280.449 60.4241 279.63 60.4241H269.922V58.3772H279.016C279.601 58.3772 279.893 58.0848 279.893 57.5V52.061H279.484C279.25 52.4899 278.918 52.909 278.489 53.3184C278.06 53.7278 277.505 54.069 276.823 54.3419C276.14 54.5953 275.292 54.722 274.279 54.722C273.05 54.722 271.92 54.4296 270.887 53.8448C269.853 53.2599 269.035 52.4314 268.43 51.3592C267.826 50.2675 267.524 48.9809 267.524 47.4993ZM274.893 52.6751C276.374 52.6751 277.573 52.2072 278.489 51.2715C279.425 50.3358 279.893 49.0491 279.893 47.4116V47.1777C279.893 45.5206 279.425 44.234 278.489 43.3178C277.573 42.382 276.374 41.9142 274.893 41.9142C273.431 41.9142 272.222 42.382 271.267 43.3178C270.331 44.234 269.863 45.5206 269.863 47.1777V47.4116C269.863 49.0491 270.331 50.3358 271.267 51.2715C272.222 52.2072 273.431 52.6751 274.893 52.6751Z" fill="#949686"/>
<path d="M293.596 54.9852C292.153 54.9852 290.876 54.683 289.765 54.0787C288.673 53.4744 287.816 52.6264 287.192 51.5347C286.587 50.4235 286.285 49.1174 286.285 47.6163V47.2362C286.285 45.7546 286.587 44.4582 287.192 43.347C287.816 42.2358 288.673 41.3781 289.765 40.7737C290.876 40.1694 292.153 39.8673 293.596 39.8673C295.038 39.8673 296.305 40.1694 297.397 40.7737C298.508 41.3781 299.366 42.2358 299.97 43.347C300.594 44.4582 300.906 45.7546 300.906 47.2362V47.6163C300.906 49.1174 300.594 50.4235 299.97 51.5347C299.366 52.6264 298.508 53.4744 297.397 54.0787C296.305 54.683 295.038 54.9852 293.596 54.9852ZM293.596 52.909C295.116 52.909 296.325 52.4314 297.222 51.4762C298.138 50.5015 298.596 49.1953 298.596 47.5578V47.2946C298.596 45.6571 298.138 44.3607 297.222 43.4055C296.325 42.4308 295.116 41.9434 293.596 41.9434C292.095 41.9434 290.886 42.4308 289.97 43.4055C289.053 44.3607 288.595 45.6571 288.595 47.2946V47.5578C288.595 49.1953 289.053 50.5015 289.97 51.4762C290.886 52.4314 292.095 52.909 293.596 52.909Z" fill="#949686"/>
<path d="M305.063 54.5758V40.2766H307.315V42.0311H307.724C307.978 41.4073 308.367 40.9492 308.894 40.6568C309.42 40.3644 310.112 40.2182 310.97 40.2182H312.666V42.3236H310.824C309.791 42.3236 308.952 42.616 308.309 43.2008C307.685 43.7661 307.373 44.6531 307.373 45.8618V54.5758H305.063Z" fill="#949686"/>
<path d="M316.086 54.5758V40.2766H318.396V54.5758H316.086ZM317.256 38.0543C316.749 38.0543 316.32 37.8886 315.969 37.5572C315.637 37.2258 315.472 36.8066 315.472 36.2998C315.472 35.7734 315.637 35.3445 315.969 35.0131C316.32 34.6817 316.749 34.516 317.256 34.516C317.762 34.516 318.182 34.6817 318.513 35.0131C318.844 35.3445 319.01 35.7734 319.01 36.2998C319.01 36.8066 318.844 37.2258 318.513 37.5572C318.182 37.8886 317.762 38.0543 317.256 38.0543Z" fill="#949686"/>
<path d="M328.517 54.5758C327.698 54.5758 327.065 54.3516 326.616 53.9033C326.187 53.4549 325.973 52.8408 325.973 52.061V42.2943H321.674V40.2766H325.973V35.1886H328.283V40.2766H332.962V42.2943H328.283V51.7101C328.283 52.295 328.566 52.5874 329.131 52.5874H332.318V54.5758H328.517Z" fill="#949686"/>
<path d="M336.704 54.5758V34.1066H339.014V42.5575H339.423C339.618 42.1286 339.91 41.729 340.3 41.3586C340.71 40.9687 341.226 40.647 341.85 40.3936C342.493 40.1402 343.302 40.0135 344.277 40.0135C345.349 40.0135 346.305 40.2474 347.143 40.7153C348.001 41.1636 348.683 41.8264 349.19 42.7037C349.697 43.5615 349.95 44.6336 349.95 45.9203V54.5758H347.64V46.0957C347.64 44.6726 347.279 43.6394 346.558 42.9961C345.856 42.3528 344.901 42.0311 343.692 42.0311C342.308 42.0311 341.178 42.4795 340.3 43.3763C339.443 44.273 339.014 45.6084 339.014 47.3824V54.5758H336.704Z" fill="#949686"/>
<path d="M354.637 54.5758V40.2766H356.889V42.0604H357.298C357.571 41.5535 358.019 41.0857 358.643 40.6568C359.267 40.2279 360.144 40.0135 361.275 40.0135C362.386 40.0135 363.283 40.2571 363.965 40.7445C364.667 41.2319 365.174 41.8264 365.486 42.5282H365.895C366.226 41.8264 366.723 41.2319 367.386 40.7445C368.069 40.2571 369.014 40.0135 370.223 40.0135C371.178 40.0135 372.016 40.2084 372.737 40.5983C373.459 40.9882 374.024 41.5535 374.434 42.2943C374.862 43.0156 375.077 43.8831 375.077 44.8968V54.5758H372.767V45.1015C372.767 44.1463 372.484 43.3958 371.919 42.8499C371.373 42.2846 370.603 42.0019 369.609 42.0019C368.556 42.0019 367.688 42.3431 367.006 43.0254C366.343 43.7077 366.012 44.6921 366.012 45.9788V54.5758H363.702V45.1015C363.702 44.1463 363.419 43.3958 362.854 42.8499C362.308 42.2846 361.538 42.0019 360.544 42.0019C359.491 42.0019 358.623 42.3431 357.941 43.0254C357.278 43.7077 356.947 44.6921 356.947 45.9788V54.5758H354.637Z" fill="#949686"/>
<path d="M379.561 58.231V56.7689H380.409C381.111 56.7689 381.462 56.418 381.462 55.7162V54.7805H381.052C380.487 54.7805 380.009 54.6051 379.62 54.2542C379.249 53.9033 379.064 53.4646 379.064 52.9383C379.064 52.3729 379.249 51.9148 379.62 51.5639C380.009 51.213 380.487 51.0376 381.052 51.0376C381.618 51.0376 382.086 51.2228 382.456 51.5932C382.826 51.9636 383.012 52.4314 383.012 52.9968V55.7162C383.012 57.3928 382.173 58.231 380.497 58.231H379.561Z" fill="#949686"/>
<path d="M8.39236 87.9852C5.95555 87.9852 4.00611 87.2834 2.54402 85.8798C1.10144 84.4567 0.380142 82.3903 0.380142 79.6806V75.0019C0.380142 72.2922 1.10144 70.2355 2.54402 68.8319C4.00611 67.4088 5.95555 66.6973 8.39236 66.6973C10.8487 66.6973 12.7981 67.4088 14.2407 68.8319C15.7028 70.2355 16.4338 72.2922 16.4338 75.0019V79.6806C16.4338 82.3903 15.7028 84.4567 14.2407 85.8798C12.7981 87.2834 10.8487 87.9852 8.39236 87.9852ZM8.39236 85.7921C10.1664 85.7921 11.5407 85.2657 12.5154 84.213C13.4902 83.1408 13.9775 81.6592 13.9775 79.7683V74.9142C13.9775 73.0232 13.4902 71.5514 12.5154 70.4987C11.5407 69.4265 10.1664 68.8904 8.39236 68.8904C6.63786 68.8904 5.27325 69.4265 4.29852 70.4987C3.3238 71.5514 2.83644 73.0232 2.83644 74.9142V79.7683C2.83644 81.6592 3.3238 83.1408 4.29852 84.213C5.27325 85.2657 6.63786 85.7921 8.39236 85.7921Z" fill="#949686"/>
<path d="M28.5383 87.9852C27.0567 87.9852 25.8968 87.7025 25.0585 87.1372C24.2397 86.5718 23.6452 85.9285 23.2748 85.2072H22.8654V87.5758H20.6138V67.1067H22.9239V75.5282H23.3332C23.5672 75.0799 23.8986 74.6607 24.3275 74.2709C24.7563 73.8615 25.3119 73.5301 25.9942 73.2766C26.696 73.0037 27.544 72.8673 28.5383 72.8673C29.7859 72.8673 30.9166 73.1694 31.9303 73.7738C32.9635 74.3586 33.7823 75.2066 34.3866 76.3178C34.9909 77.4095 35.2931 78.7156 35.2931 80.2362V80.6163C35.2931 82.1369 34.9812 83.4527 34.3574 84.5639C33.753 85.6751 32.9343 86.5231 31.9011 87.1079C30.8873 87.6928 29.7664 87.9852 28.5383 87.9852ZM27.9242 85.9383C29.4058 85.9383 30.6047 85.4704 31.5209 84.5347C32.4566 83.5794 32.9245 82.2538 32.9245 80.5578V80.2946C32.9245 78.5986 32.4566 77.2827 31.5209 76.347C30.6047 75.3918 29.4058 74.9142 27.9242 74.9142C26.4621 74.9142 25.2534 75.3918 24.2982 76.347C23.3625 77.2827 22.8946 78.5986 22.8946 80.2946V80.5578C22.8946 82.2538 23.3625 83.5794 24.2982 84.5347C25.2534 85.4704 26.4621 85.9383 27.9242 85.9383Z" fill="#949686"/>
<path d="M36.6252 93.4241V91.3772H38.6136C39.1984 91.3772 39.4909 91.0848 39.4909 90.5V73.2766H41.801V90.9094C41.801 91.6891 41.5768 92.3032 41.1284 92.7516C40.6995 93.2 40.0757 93.4241 39.2569 93.4241H36.6252ZM40.6605 71.0543C40.1537 71.0543 39.7248 70.8886 39.3739 70.5572C39.0425 70.2258 38.8768 69.8066 38.8768 69.2998C38.8768 68.7734 39.0425 68.3445 39.3739 68.0131C39.7248 67.6817 40.1537 67.516 40.6605 67.516C41.1674 67.516 41.5865 67.6817 41.9179 68.0131C42.2493 68.3445 42.415 68.7734 42.415 69.2998C42.415 69.8066 42.2493 70.2258 41.9179 70.5572C41.5865 70.8886 41.1674 71.0543 40.6605 71.0543Z" fill="#949686"/>
<path d="M53.2073 87.9852C51.7647 87.9852 50.4975 87.683 49.4058 87.0787C48.3141 86.4549 47.4661 85.5874 46.8618 84.4762C46.2575 83.365 45.9553 82.0784 45.9553 80.6163V80.2654C45.9553 78.7838 46.2575 77.4874 46.8618 76.3763C47.4661 75.2651 48.3044 74.4073 49.3766 73.803C50.4488 73.1792 51.6769 72.8673 53.061 72.8673C54.4062 72.8673 55.5953 73.1597 56.6285 73.7445C57.6617 74.3098 58.4708 75.1286 59.0556 76.2008C59.6404 77.273 59.9328 78.5304 59.9328 79.973V81.0257H48.2654C48.3239 82.5657 48.821 83.7744 49.7567 84.6516C50.6925 85.5094 51.8621 85.9383 53.2657 85.9383C54.4939 85.9383 55.4394 85.6556 56.1022 85.0903C56.765 84.5249 57.2718 83.8524 57.6227 83.0726L59.6112 84.0376C59.3188 84.6419 58.9094 85.2462 58.383 85.8506C57.8762 86.4549 57.2036 86.9617 56.3654 87.3711C55.5466 87.7805 54.4939 87.9852 53.2073 87.9852ZM48.2947 79.125H57.5935C57.5155 77.7993 57.0574 76.7661 56.2191 76.0254C55.4004 75.2846 54.3477 74.9142 53.061 74.9142C51.7549 74.9142 50.6827 75.2846 49.8445 76.0254C49.0062 76.7661 48.4896 77.7993 48.2947 79.125Z" fill="#949686"/>
<path d="M70.5416 87.9852C69.1575 87.9852 67.9099 87.6928 66.7987 87.1079C65.707 86.5036 64.8395 85.6459 64.1962 84.5347C63.5724 83.4235 63.2604 82.1076 63.2604 80.5871V80.2654C63.2604 78.7253 63.5724 77.4095 64.1962 76.3178C64.8395 75.2066 65.707 74.3586 66.7987 73.7738C67.9099 73.1694 69.1575 72.8673 70.5416 72.8673C71.9062 72.8673 73.0662 73.1207 74.0214 73.6275C74.9961 74.1344 75.7564 74.8069 76.3022 75.6452C76.8676 76.4835 77.2282 77.3802 77.3842 78.3354L75.1326 78.8033C75.0351 78.1015 74.8012 77.4582 74.4308 76.8734C74.0799 76.2885 73.5828 75.8207 72.9394 75.4698C72.2961 75.1189 71.5066 74.9434 70.5709 74.9434C69.6156 74.9434 68.7579 75.1579 67.9976 75.5867C67.2568 76.0156 66.6622 76.6297 66.2139 77.429C65.785 78.2282 65.5705 79.1835 65.5705 80.2946V80.5578C65.5705 81.669 65.785 82.6242 66.2139 83.4235C66.6622 84.2228 67.2568 84.8368 67.9976 85.2657C68.7579 85.6946 69.6156 85.909 70.5709 85.909C71.994 85.909 73.0759 85.5386 73.8167 84.7979C74.577 84.0571 75.0448 83.1408 75.2203 82.0491L77.5011 82.5462C77.2867 83.482 76.8968 84.369 76.3315 85.2072C75.7661 86.0455 74.9961 86.7181 74.0214 87.2249C73.0662 87.7318 71.9062 87.9852 70.5416 87.9852Z" fill="#949686"/>
<path d="M86.1025 87.5758C85.2838 87.5758 84.6502 87.3516 84.2018 86.9033C83.7729 86.4549 83.5585 85.8408 83.5585 85.061V75.2943H79.26V73.2766H83.5585V68.1886H85.8686V73.2766H90.5473V75.2943H85.8686V84.7101C85.8686 85.295 86.1513 85.5874 86.7166 85.5874H89.9039V87.5758H86.1025Z" fill="#949686"/>
<path d="M109.139 87.9852C106.702 87.9852 104.753 87.2834 103.291 85.8798C101.848 84.4567 101.127 82.3903 101.127 79.6806V75.0019C101.127 72.2922 101.848 70.2355 103.291 68.8319C104.753 67.4088 106.702 66.6973 109.139 66.6973C111.595 66.6973 113.545 67.4088 114.987 68.8319C116.449 70.2355 117.18 72.2922 117.18 75.0019V79.6806C117.18 82.3903 116.449 84.4567 114.987 85.8798C113.545 87.2834 111.595 87.9852 109.139 87.9852ZM109.139 85.7921C110.913 85.7921 112.287 85.2657 113.262 84.213C114.237 83.1408 114.724 81.6592 114.724 79.7683V74.9142C114.724 73.0232 114.237 71.5514 113.262 70.4987C112.287 69.4265 110.913 68.8904 109.139 68.8904C107.385 68.8904 106.02 69.4265 105.045 70.4987C104.07 71.5514 103.583 73.0232 103.583 74.9142V79.7683C103.583 81.6592 104.07 83.1408 105.045 84.213C106.02 85.2657 107.385 85.7921 109.139 85.7921Z" fill="#949686"/>
<path d="M121.36 87.5758V73.2766H123.612V75.0311H124.021C124.275 74.4073 124.665 73.9492 125.191 73.6568C125.717 73.3644 126.409 73.2182 127.267 73.2182H128.963V75.3236H127.121C126.088 75.3236 125.25 75.616 124.606 76.2008C123.982 76.7661 123.671 77.6531 123.671 78.8618V87.5758H121.36Z" fill="#949686"/>
<path d="M132.383 87.5758V73.2766H134.693V87.5758H132.383ZM133.553 71.0543C133.046 71.0543 132.617 70.8886 132.266 70.5572C131.935 70.2258 131.769 69.8066 131.769 69.2998C131.769 68.7734 131.935 68.3445 132.266 68.0131C132.617 67.6817 133.046 67.516 133.553 67.516C134.06 67.516 134.479 67.6817 134.81 68.0131C135.142 68.3445 135.307 68.7734 135.307 69.2998C135.307 69.8066 135.142 70.2258 134.81 70.5572C134.479 70.8886 134.06 71.0543 133.553 71.0543Z" fill="#949686"/>
<path d="M146.101 87.9852C144.658 87.9852 143.391 87.683 142.3 87.0787C141.208 86.4549 140.36 85.5874 139.755 84.4762C139.151 83.365 138.849 82.0784 138.849 80.6163V80.2654C138.849 78.7838 139.151 77.4874 139.755 76.3763C140.36 75.2651 141.198 74.4073 142.27 73.803C143.342 73.1792 144.571 72.8673 145.955 72.8673C147.3 72.8673 148.489 73.1597 149.522 73.7445C150.555 74.3098 151.364 75.1286 151.949 76.2008C152.534 77.273 152.827 78.5304 152.827 79.973V81.0257H141.159C141.218 82.5657 141.715 83.7744 142.65 84.6516C143.586 85.5094 144.756 85.9383 146.159 85.9383C147.388 85.9383 148.333 85.6556 148.996 85.0903C149.659 84.5249 150.166 83.8524 150.516 83.0726L152.505 84.0376C152.212 84.6419 151.803 85.2462 151.277 85.8506C150.77 86.4549 150.097 86.9617 149.259 87.3711C148.44 87.7805 147.388 87.9852 146.101 87.9852ZM141.188 79.125H150.487C150.409 77.7993 149.951 76.7661 149.113 76.0254C148.294 75.2846 147.241 74.9142 145.955 74.9142C144.649 74.9142 143.576 75.2846 142.738 76.0254C141.9 76.7661 141.383 77.7993 141.188 79.125Z" fill="#949686"/>
<path d="M156.856 87.5758V73.2766H159.108V75.7037H159.517C159.829 75.0214 160.355 74.4073 161.096 73.8615C161.856 73.2961 162.967 73.0135 164.43 73.0135C165.502 73.0135 166.457 73.2376 167.295 73.686C168.153 74.1344 168.835 74.7972 169.342 75.6745C169.849 76.5517 170.102 77.6336 170.102 78.9203V87.5758H167.792V79.0957C167.792 77.6726 167.432 76.6394 166.71 75.9961C166.009 75.3528 165.053 75.0311 163.845 75.0311C162.461 75.0311 161.33 75.4795 160.453 76.3763C159.595 77.273 159.166 78.6084 159.166 80.3824V87.5758H156.856Z" fill="#949686"/>
<path d="M179.653 87.5758C178.834 87.5758 178.201 87.3516 177.752 86.9033C177.323 86.4549 177.109 85.8408 177.109 85.061V75.2943H172.81V73.2766H177.109V68.1886H179.419V73.2766H184.098V75.2943H179.419V84.7101C179.419 85.295 179.702 85.5874 180.267 85.5874H183.454V87.5758H179.653Z" fill="#949686"/>
<path d="M193.876 87.9852C192.433 87.9852 191.166 87.683 190.074 87.0787C188.983 86.4549 188.135 85.5874 187.53 84.4762C186.926 83.365 186.624 82.0784 186.624 80.6163V80.2654C186.624 78.7838 186.926 77.4874 187.53 76.3763C188.135 75.2651 188.973 74.4073 190.045 73.803C191.117 73.1792 192.345 72.8673 193.729 72.8673C195.075 72.8673 196.264 73.1597 197.297 73.7445C198.33 74.3098 199.139 75.1286 199.724 76.2008C200.309 77.273 200.601 78.5304 200.601 79.973V81.0257H188.934C188.992 82.5657 189.489 83.7744 190.425 84.6516C191.361 85.5094 192.531 85.9383 193.934 85.9383C195.162 85.9383 196.108 85.6556 196.771 85.0903C197.433 84.5249 197.94 83.8524 198.291 83.0726L200.28 84.0376C199.987 84.6419 199.578 85.2462 199.051 85.8506C198.545 86.4549 197.872 86.9617 197.034 87.3711C196.215 87.7805 195.162 87.9852 193.876 87.9852ZM188.963 79.125H198.262C198.184 77.7993 197.726 76.7661 196.888 76.0254C196.069 75.2846 195.016 74.9142 193.729 74.9142C192.423 74.9142 191.351 75.2846 190.513 76.0254C189.675 76.7661 189.158 77.7993 188.963 79.125Z" fill="#949686"/>
<path d="M210.684 87.9852C209.455 87.9852 208.325 87.6928 207.292 87.1079C206.258 86.5231 205.44 85.6751 204.835 84.5639C204.231 83.4527 203.929 82.1369 203.929 80.6163V80.2362C203.929 78.7156 204.231 77.4095 204.835 76.3178C205.44 75.2066 206.249 74.3586 207.262 73.7738C208.296 73.1694 209.436 72.8673 210.684 72.8673C211.678 72.8673 212.516 73.0037 213.198 73.2766C213.9 73.5301 214.466 73.8615 214.894 74.2709C215.323 74.6607 215.655 75.0799 215.889 75.5282H216.298V67.1067H218.608V87.5758H216.357V85.2072H215.947C215.557 85.9285 214.953 86.5718 214.134 87.1372C213.315 87.7025 212.165 87.9852 210.684 87.9852ZM211.298 85.9383C212.779 85.9383 213.978 85.4704 214.894 84.5347C215.83 83.5794 216.298 82.2538 216.298 80.5578V80.2946C216.298 78.5986 215.83 77.2827 214.894 76.347C213.978 75.3918 212.779 74.9142 211.298 74.9142C209.836 74.9142 208.627 75.3918 207.672 76.347C206.736 77.2827 206.268 78.5986 206.268 80.2946V80.5578C206.268 82.2538 206.736 83.5794 207.672 84.5347C208.627 85.4704 209.836 85.9383 211.298 85.9383Z" fill="#949686"/>
<path d="M230.872 87.5758V67.1067H238.709C239.937 67.1067 241.028 67.3503 241.984 67.8377C242.958 68.3056 243.728 68.9781 244.294 69.8554C244.859 70.7326 245.142 71.7951 245.142 73.0427V73.4229C245.142 74.651 244.849 75.7134 244.264 76.6102C243.699 77.4874 242.929 78.16 241.954 78.6279C240.98 79.0957 239.898 79.3297 238.709 79.3297H233.328V87.5758H230.872ZM233.328 77.1073H238.445C239.752 77.1073 240.785 76.7856 241.545 76.1423C242.305 75.4795 242.685 74.5535 242.685 73.3644V73.0719C242.685 71.8828 242.305 70.9666 241.545 70.3232C240.804 69.6604 239.771 69.329 238.445 69.329H233.328V77.1073Z" fill="#949686"/>
<path d="M248.522 87.5758V73.2766H250.773V75.0311H251.183C251.436 74.4073 251.826 73.9492 252.352 73.6568C252.879 73.3644 253.571 73.2182 254.428 73.2182H256.124V75.3236H254.282C253.249 75.3236 252.411 75.616 251.767 76.2008C251.144 76.7661 250.832 77.6531 250.832 78.8618V87.5758H248.522Z" fill="#949686"/>
<path d="M265.639 87.9852C264.196 87.9852 262.92 87.683 261.808 87.0787C260.717 86.4744 259.859 85.6264 259.235 84.5347C258.631 83.4235 258.329 82.1174 258.329 80.6163V80.2362C258.329 78.7546 258.631 77.4582 259.235 76.347C259.859 75.2358 260.717 74.3781 261.808 73.7738C262.92 73.1694 264.196 72.8673 265.639 72.8673C267.082 72.8673 268.349 73.1694 269.44 73.7738C270.552 74.3781 271.409 75.2358 272.014 76.347C272.638 77.4582 272.949 78.7546 272.949 80.2362V80.6163C272.949 82.1174 272.638 83.4235 272.014 84.5347C271.409 85.6264 270.552 86.4744 269.44 87.0787C268.349 87.683 267.082 87.9852 265.639 87.9852ZM265.639 85.909C267.16 85.909 268.368 85.4314 269.265 84.4762C270.181 83.5015 270.639 82.1953 270.639 80.5578V80.2946C270.639 78.6571 270.181 77.3607 269.265 76.4055C268.368 75.4308 267.16 74.9434 265.639 74.9434C264.138 74.9434 262.929 75.4308 262.013 76.4055C261.097 77.3607 260.639 78.6571 260.639 80.2946V80.5578C260.639 82.1953 261.097 83.5015 262.013 84.4762C262.929 85.4314 264.138 85.909 265.639 85.909Z" fill="#949686"/>
<path d="M276.405 80.4993V80.0899C276.405 78.5889 276.707 77.3022 277.311 76.23C277.916 75.1579 278.734 74.3293 279.768 73.7445C280.801 73.1597 281.931 72.8673 283.16 72.8673C284.661 72.8673 285.811 73.1597 286.61 73.7445C287.429 74.3098 288.033 74.9434 288.423 75.6452H288.832V73.2766H291.026V90.9094C291.026 91.6891 290.811 92.3032 290.382 92.7516C289.953 93.2 289.33 93.4241 288.511 93.4241H278.803V91.3772H287.897C288.482 91.3772 288.774 91.0848 288.774 90.5V85.061H288.365C288.131 85.4899 287.799 85.909 287.37 86.3184C286.941 86.7278 286.386 87.069 285.704 87.3419C285.021 87.5953 284.173 87.722 283.16 87.722C281.931 87.722 280.801 87.4296 279.768 86.8448C278.734 86.2599 277.916 85.4314 277.311 84.3592C276.707 83.2675 276.405 81.9809 276.405 80.4993ZM283.774 85.6751C285.255 85.6751 286.454 85.2072 287.37 84.2715C288.306 83.3358 288.774 82.0491 288.774 80.4116V80.1777C288.774 78.5206 288.306 77.234 287.37 76.3178C286.454 75.382 285.255 74.9142 283.774 74.9142C282.312 74.9142 281.103 75.382 280.148 76.3178C279.212 77.234 278.744 78.5206 278.744 80.1777V80.4116C278.744 82.0491 279.212 83.3358 280.148 84.2715C281.103 85.2072 282.312 85.6751 283.774 85.6751Z" fill="#949686"/>
<path d="M295.868 87.5758V73.2766H298.12V75.0311H298.529C298.782 74.4073 299.172 73.9492 299.699 73.6568C300.225 73.3644 300.917 73.2182 301.775 73.2182H303.471V75.3236H301.629C300.595 75.3236 299.757 75.616 299.114 76.2008C298.49 76.7661 298.178 77.6531 298.178 78.8618V87.5758H295.868Z" fill="#949686"/>
<path d="M310.792 87.9852C309.797 87.9852 308.891 87.8097 308.072 87.4588C307.253 87.1079 306.61 86.6011 306.142 85.9383C305.674 85.2755 305.44 84.4665 305.44 83.5112C305.44 82.5365 305.674 81.7372 306.142 81.1134C306.61 80.4701 307.253 79.9925 308.072 79.6806C308.891 79.3492 309.807 79.1835 310.821 79.1835H315.646V78.1308C315.646 77.117 315.343 76.3178 314.739 75.7329C314.154 75.1481 313.277 74.8557 312.107 74.8557C310.957 74.8557 310.061 75.1384 309.417 75.7037C308.774 76.2495 308.335 76.9903 308.101 77.9261L305.937 77.2243C306.171 76.425 306.542 75.7037 307.049 75.0604C307.555 74.3976 308.228 73.8712 309.066 73.4813C309.924 73.0719 310.947 72.8673 312.137 72.8673C313.969 72.8673 315.392 73.3449 316.406 74.3001C317.42 75.2358 317.927 76.5615 317.927 78.277V84.7394C317.927 85.3242 318.199 85.6166 318.745 85.6166H320.061V87.5758H318.043C317.4 87.5758 316.884 87.4004 316.494 87.0495C316.104 86.6791 315.909 86.1917 315.909 85.5874V85.4412H315.558C315.344 85.8116 315.051 86.2015 314.681 86.6108C314.33 87.0007 313.842 87.3224 313.219 87.5758C312.595 87.8487 311.786 87.9852 310.792 87.9852ZM311.055 85.9968C312.419 85.9968 313.521 85.5971 314.359 84.7979C315.217 83.9791 315.646 82.8387 315.646 81.3766V81.0549H310.909C309.992 81.0549 309.232 81.2596 308.628 81.669C308.043 82.0589 307.75 82.6535 307.75 83.4527C307.75 84.252 308.053 84.8758 308.657 85.3242C309.281 85.7726 310.08 85.9968 311.055 85.9968Z" fill="#949686"/>
<path d="M323.225 87.5758V73.2766H325.477V75.0604H325.886C326.159 74.5535 326.607 74.0857 327.231 73.6568C327.855 73.2279 328.732 73.0135 329.863 73.0135C330.974 73.0135 331.871 73.2571 332.553 73.7445C333.255 74.2319 333.762 74.8264 334.074 75.5282H334.483C334.814 74.8264 335.312 74.2319 335.974 73.7445C336.657 73.2571 337.602 73.0135 338.811 73.0135C339.766 73.0135 340.604 73.2084 341.326 73.5983C342.047 73.9882 342.612 74.5535 343.022 75.2943C343.45 76.0156 343.665 76.8831 343.665 77.8968V87.5758H341.355V78.1015C341.355 77.1463 341.072 76.3958 340.507 75.8499C339.961 75.2846 339.191 75.0019 338.197 75.0019C337.144 75.0019 336.277 75.343 335.594 76.0254C334.931 76.7077 334.6 77.6921 334.6 78.9788V87.5758H332.29V78.1015C332.29 77.1463 332.007 76.3958 331.442 75.8499C330.896 75.2846 330.126 75.0019 329.132 75.0019C328.079 75.0019 327.212 75.343 326.529 76.0254C325.866 76.7077 325.535 77.6921 325.535 78.9788V87.5758H323.225Z" fill="#949686"/>
<path d="M348.383 87.5758V73.2766H350.635V75.0604H351.044C351.317 74.5535 351.765 74.0857 352.389 73.6568C353.013 73.2279 353.89 73.0135 355.021 73.0135C356.132 73.0135 357.029 73.2571 357.711 73.7445C358.413 74.2319 358.92 74.8264 359.232 75.5282H359.641C359.973 74.8264 360.47 74.2319 361.132 73.7445C361.815 73.2571 362.76 73.0135 363.969 73.0135C364.924 73.0135 365.762 73.2084 366.484 73.5983C367.205 73.9882 367.77 74.5535 368.18 75.2943C368.609 76.0156 368.823 76.8831 368.823 77.8968V87.5758H366.513V78.1015C366.513 77.1463 366.23 76.3958 365.665 75.8499C365.119 75.2846 364.349 75.0019 363.355 75.0019C362.302 75.0019 361.435 75.343 360.752 76.0254C360.09 76.7077 359.758 77.6921 359.758 78.9788V87.5758H357.448V78.1015C357.448 77.1463 357.165 76.3958 356.6 75.8499C356.054 75.2846 355.284 75.0019 354.29 75.0019C353.237 75.0019 352.37 75.343 351.687 76.0254C351.025 76.7077 350.693 77.6921 350.693 78.9788V87.5758H348.383Z" fill="#949686"/>
<path d="M373.541 87.5758V73.2766H375.851V87.5758H373.541ZM374.711 71.0543C374.204 71.0543 373.775 70.8886 373.424 70.5572C373.093 70.2258 372.927 69.8066 372.927 69.2998C372.927 68.7734 373.093 68.3445 373.424 68.0131C373.775 67.6817 374.204 67.516 374.711 67.516C375.218 67.516 375.637 67.6817 375.968 68.0131C376.3 68.3445 376.465 68.7734 376.465 69.2998C376.465 69.8066 376.3 70.2258 375.968 70.5572C375.637 70.8886 375.218 71.0543 374.711 71.0543Z" fill="#949686"/>
<path d="M380.709 87.5758V73.2766H382.96V75.7037H383.37C383.682 75.0214 384.208 74.4073 384.949 73.8615C385.709 73.2961 386.82 73.0135 388.282 73.0135C389.355 73.0135 390.31 73.2376 391.148 73.686C392.006 74.1344 392.688 74.7972 393.195 75.6745C393.702 76.5517 393.955 77.6336 393.955 78.9203V87.5758H391.645V79.0957C391.645 77.6726 391.285 76.6394 390.563 75.9961C389.861 75.3528 388.906 75.0311 387.698 75.0311C386.313 75.0311 385.183 75.4795 384.306 76.3763C383.448 77.273 383.019 78.6084 383.019 80.3824V87.5758H380.709Z" fill="#949686"/>
<path d="M397.94 80.4993V80.0899C397.94 78.5889 398.243 77.3022 398.847 76.23C399.451 75.1579 400.27 74.3293 401.303 73.7445C402.336 73.1597 403.467 72.8673 404.695 72.8673C406.196 72.8673 407.346 73.1597 408.146 73.7445C408.964 74.3098 409.569 74.9434 409.959 75.6452H410.368V73.2766H412.561V90.9094C412.561 91.6891 412.347 92.3032 411.918 92.7516C411.489 93.2 410.865 93.4241 410.046 93.4241H400.338V91.3772H409.432C410.017 91.3772 410.31 91.0848 410.31 90.5V85.061H409.9C409.666 85.4899 409.335 85.909 408.906 86.3184C408.477 86.7278 407.922 87.069 407.239 87.3419C406.557 87.5953 405.709 87.722 404.695 87.722C403.467 87.722 402.336 87.4296 401.303 86.8448C400.27 86.2599 399.451 85.4314 398.847 84.3592C398.243 83.2675 397.94 81.9809 397.94 80.4993ZM405.309 85.6751C406.791 85.6751 407.99 85.2072 408.906 84.2715C409.842 83.3358 410.31 82.0491 410.31 80.4116V80.1777C410.31 78.5206 409.842 77.234 408.906 76.3178C407.99 75.382 406.791 74.9142 405.309 74.9142C403.847 74.9142 402.639 75.382 401.683 76.3178C400.748 77.234 400.28 78.5206 400.28 80.1777V80.4116C400.28 82.0491 400.748 83.3358 401.683 84.2715C402.639 85.2072 403.847 85.6751 405.309 85.6751Z" fill="#949686"/>
<path d="M418.661 87.9852C418.096 87.9852 417.618 87.8 417.228 87.4296C416.858 87.0592 416.673 86.5816 416.673 85.9968C416.673 85.4119 416.858 84.9343 417.228 84.5639C417.618 84.1935 418.096 84.0083 418.661 84.0083C419.246 84.0083 419.724 84.1935 420.094 84.5639C420.464 84.9343 420.65 85.4119 420.65 85.9968C420.65 86.5816 420.464 87.0592 420.094 87.4296C419.724 87.8 419.246 87.9852 418.661 87.9852Z" fill="#949686"/>
</svg>
