<svg width="20" height="20" viewBox="0 0 20 20" fill="none" xmlns="http://www.w3.org/2000/svg">
<path fill-rule="evenodd" clip-rule="evenodd" d="M10.4376 1.41406C5.31447 1.41406 1.16016 5.56761 1.16016 10.6915C1.16016 14.7905 3.81842 18.2681 7.50462 19.4948C7.96828 19.5807 8.1385 19.2935 8.1385 19.0485C8.1385 18.8273 8.1299 18.0965 8.1259 17.3212C5.54492 17.8825 5.0003 16.2266 5.0003 16.2266C4.57827 15.1543 3.97021 14.8691 3.97021 14.8691C3.12847 14.2933 4.03366 14.3052 4.03366 14.3052C4.96527 14.3706 5.45581 15.2612 5.45581 15.2612C6.28326 16.6795 7.62614 16.2695 8.15555 16.0324C8.23882 15.4328 8.47925 15.0235 8.74457 14.7919C6.68393 14.5573 4.51774 13.7618 4.51774 10.2069C4.51774 9.19405 4.88016 8.36644 5.47363 7.71674C5.37731 7.48307 5.05975 6.53947 5.5635 5.26158C5.5635 5.26158 6.34256 5.01224 8.11546 6.21255C8.85549 6.00699 9.64915 5.90391 10.4376 5.90037C11.226 5.90391 12.0203 6.00699 12.7617 6.21255C14.5324 5.01224 15.3104 5.26158 15.3104 5.26158C15.8154 6.53947 15.4977 7.48307 15.4014 7.71674C15.9962 8.36644 16.3562 9.19405 16.3562 10.2069C16.3562 13.7702 14.1858 14.5548 12.12 14.7845C12.4527 15.0724 12.7493 15.637 12.7493 16.5025C12.7493 17.7439 12.7385 18.7429 12.7385 19.0485C12.7385 19.2954 12.9055 19.5847 13.3758 19.4936C17.06 18.2655 19.7148 14.7891 19.7148 10.6915C19.7148 5.56761 15.5611 1.41406 10.4376 1.41406ZM4.63485 14.6299C4.61442 14.676 4.54191 14.6899 4.47584 14.6582C4.40855 14.6279 4.37076 14.5651 4.39258 14.5189C4.41255 14.4714 4.48522 14.4582 4.55235 14.49C4.6198 14.5203 4.6582 14.5837 4.63485 14.6299ZM5.0912 15.0371C5.04695 15.0782 4.96046 15.0591 4.90177 14.9943C4.84109 14.9296 4.82972 14.8431 4.87458 14.8015C4.92021 14.7604 5.00409 14.7797 5.06493 14.8443C5.12561 14.9098 5.13744 14.9957 5.0912 15.0371ZM5.40427 15.5581C5.34743 15.5976 5.25448 15.5606 5.19702 15.4781C5.14018 15.3956 5.14018 15.2966 5.19825 15.257C5.25586 15.2174 5.34743 15.253 5.40565 15.3349C5.46234 15.4188 5.46234 15.5177 5.40427 15.5581ZM5.93374 16.1615C5.88289 16.2176 5.77458 16.2025 5.6953 16.126C5.61419 16.0512 5.5916 15.945 5.64261 15.889C5.69407 15.8327 5.803 15.8486 5.88289 15.9244C5.96339 15.9991 5.98797 16.106 5.93374 16.1615ZM6.61803 16.3652C6.5956 16.4379 6.49128 16.4709 6.3862 16.44C6.28127 16.4082 6.2126 16.3231 6.2338 16.2497C6.25561 16.1765 6.36039 16.1421 6.46624 16.1752C6.57102 16.2068 6.63984 16.2913 6.61803 16.3652ZM7.39677 16.4516C7.39939 16.5281 7.31028 16.5916 7.19997 16.5929C7.08905 16.5954 6.99933 16.5335 6.9981 16.4582C6.9981 16.3809 7.08521 16.3181 7.19613 16.3162C7.30644 16.3141 7.39677 16.3755 7.39677 16.4516ZM8.16181 16.4223C8.17502 16.4969 8.09836 16.5736 7.98882 16.594C7.88112 16.6137 7.78142 16.5676 7.76775 16.4936C7.75438 16.417 7.83242 16.3404 7.93996 16.3206C8.04966 16.3015 8.14783 16.3464 8.16181 16.4223Z" fill="#9B9B9B"/>
</svg>
