<svg width="32" height="32" viewBox="0 0 32 32" fill="none" xmlns="http://www.w3.org/2000/svg">
<rect x="0.8125" y="1.44208" width="30" height="30" rx="15" fill="#1A1A2C" stroke="#1E293B"/>
<g clip-path="url(#clip0_391_3299)">
<path d="M14.1175 16.0087C14.1175 16.0087 13.63 16.2923 14.465 16.3882C15.4765 16.5037 15.9935 16.4871 17.1079 16.2765C17.1079 16.2765 17.4017 16.4601 17.8108 16.6192C15.3117 17.6899 12.1547 16.5572 14.1175 16.0087ZM13.8119 14.6111C13.8119 14.6111 13.265 15.0162 14.1006 15.1026C15.1812 15.2141 16.0343 15.2233 17.5115 14.9389C17.5115 14.9389 17.7153 15.1461 18.0364 15.2591C15.0154 16.1429 11.6505 15.3287 13.8119 14.6111Z" fill="#4285F4"/>
<path d="M16.3862 12.2404C17.0023 12.9497 16.2247 13.5874 16.2247 13.5874C16.2247 13.5874 17.7881 12.7803 17.0702 11.7693C16.3994 10.8269 15.8853 10.3589 18.669 8.74445C18.669 8.74445 14.2993 9.83546 16.3862 12.2404Z" fill="#EA4335"/>
<path d="M19.6914 17.0424C19.6914 17.0424 20.0524 17.34 19.2939 17.5701C17.8517 18.0069 13.2905 18.1387 12.0236 17.5874C11.5685 17.3893 12.4225 17.1144 12.691 17.0566C12.9711 16.9959 13.1311 17.007 13.1311 17.007C12.6246 16.6503 9.85731 17.7075 11.7255 18.0108C16.8205 18.8365 21.0128 17.6388 19.6914 17.0424ZM14.3521 13.1631C14.3521 13.1631 12.0322 13.7142 13.5307 13.9146C14.1636 13.9992 15.4245 13.9798 16.5998 13.8812C17.56 13.8006 18.5237 13.6283 18.5237 13.6283C18.5237 13.6283 18.1854 13.7735 17.9403 13.9406C15.584 14.5603 11.0331 14.2716 12.3433 13.6381C13.4511 13.1021 14.3521 13.1631 14.3521 13.1631ZM18.514 15.4891C20.9091 14.2449 19.8016 13.0491 19.0287 13.2101C18.8397 13.2496 18.7548 13.2838 18.7548 13.2838C18.7548 13.2838 18.8253 13.1733 18.9594 13.126C20.4886 12.5886 21.6643 14.7114 18.4662 15.5522C18.4662 15.5522 18.5029 15.5189 18.514 15.4891Z" fill="#4285F4"/>
<path d="M17.0704 6.13696C17.0704 6.13696 18.3967 7.46385 15.8122 9.50382C13.7397 11.1406 15.3396 12.0737 15.8113 13.1402C14.6016 12.0486 13.7142 11.0877 14.3094 10.1935C15.1836 8.88098 17.6053 8.24433 17.0704 6.13696Z" fill="#EA4335"/>
<path d="M14.5878 18.862C16.8862 19.0089 20.4168 18.7802 20.5003 17.6926C20.5003 17.6926 20.3397 18.1048 18.6005 18.4319C16.6384 18.8012 14.2182 18.7583 12.7831 18.5214C12.7831 18.5214 13.077 18.7649 14.5878 18.862Z" fill="#4285F4"/>
<path d="M20.3942 20.8127H20.3241V20.7735H20.5126V20.8127H20.4429V21.0082H20.394L20.3942 20.8127ZM20.7705 20.8225H20.7696L20.7001 21.0082H20.668L20.599 20.8225H20.5983V21.0082H20.552V20.7735H20.6198L20.6838 20.9396L20.7479 20.7735H20.8153V21.0082H20.7705V20.8225ZM14.211 23.0179C13.9943 23.2058 13.7651 23.3115 13.5592 23.3115C13.2662 23.3115 13.1072 23.1355 13.1072 22.8536C13.1072 22.5485 13.2773 22.3251 13.959 22.3251H14.2109L14.211 23.0179ZM14.8094 23.693V21.6034C14.8094 21.0692 14.5046 20.7168 13.7707 20.7168C13.3424 20.7168 12.9668 20.8228 12.6615 20.9576L12.7494 21.3276C12.9898 21.2393 13.3008 21.1574 13.606 21.1574C14.029 21.1574 14.2109 21.3276 14.2109 21.68V21.9441H13.9995C12.9722 21.9441 12.5086 22.3426 12.5086 22.942C12.5086 23.4585 12.8141 23.7519 13.3893 23.7519C13.7589 23.7519 14.0351 23.5993 14.293 23.3759L14.3399 23.6931L14.8094 23.693ZM16.8061 23.693H16.06L15.1618 20.7704H15.8135L16.3711 22.5663L16.495 23.1059C16.7765 22.3254 16.976 21.5331 17.0757 20.7705H17.7097C17.54 21.7326 17.2342 22.789 16.8061 23.693ZM19.6692 23.0179C19.4517 23.2058 19.2224 23.3115 19.0173 23.3115C18.724 23.3115 18.5651 23.1355 18.5651 22.8536C18.5651 22.5485 18.7357 22.3251 19.4166 22.3251H19.6691L19.6692 23.0179ZM20.2679 23.693V21.6034C20.2679 21.0692 19.9622 20.7168 19.2289 20.7168C18.8001 20.7168 18.4247 20.8228 18.1194 20.9576L18.2074 21.3276C18.4479 21.2393 18.7593 21.1574 19.0645 21.1574C19.4869 21.1574 19.6692 21.3276 19.6692 21.68V21.9441H19.4578C18.4302 21.9441 17.9668 22.3426 17.9668 22.942C17.9668 23.4585 18.272 23.7519 18.847 23.7519C19.2168 23.7519 19.4926 23.5993 19.7511 23.3759L19.7984 23.6931L20.2679 23.693ZM11.8525 24.1897C11.6822 24.4389 11.4064 24.6362 11.1048 24.7473L10.8096 24.3992C11.0392 24.2814 11.2359 24.0912 11.3275 23.914C11.4064 23.7562 11.4392 23.5533 11.4392 23.0678V19.7306H12.0751V23.0219C12.0751 23.6713 12.0235 23.9339 11.8525 24.1897Z" fill="#EA4335"/>
</g>
<defs>
<clipPath id="clip0_391_3299">
<rect width="19" height="19" fill="white" transform="translate(6.3125 5.94208)"/>
</clipPath>
</defs>
</svg>
