<svg width="49" height="49" viewBox="0 0 49 49" fill="none" xmlns="http://www.w3.org/2000/svg">
<g clip-path="url(#clip0_372_1137)">
<path d="M37.7262 0.526123H11.2738C5.3236 0.526123 0.5 5.34972 0.5 11.2999V37.7523C0.5 43.7025 5.3236 48.5261 11.2738 48.5261H37.7262C43.6764 48.5261 48.5 43.7025 48.5 37.7523V11.2999C48.5 5.34972 43.6764 0.526123 37.7262 0.526123Z" fill="url(#paint0_linear_372_1137)"/>
<path d="M17.1263 8.83936H32.0899C32.4225 9.00562 32.9212 9.00562 33.2538 9.17188C34.7129 9.40836 36.0772 10.0471 37.1933 11.0164C38.3094 11.9856 39.1331 13.2469 39.5717 14.6585C39.8173 15.472 39.9843 16.3071 40.0705 17.1525V31.7836C39.8328 33.6379 39.1481 35.4067 38.0754 36.9377C37.1551 38.004 36.0013 38.8437 34.7037 39.3916C33.406 39.9395 31.9996 40.1808 30.5936 40.0967H18.1239C15.8985 40.2047 13.7105 39.4951 11.9722 38.1016C10.9151 37.1882 10.0809 36.0452 9.53333 34.76C8.98581 33.4748 8.73948 32.0813 8.81317 30.6863V19.0479C8.78571 18.2131 8.8414 17.3777 8.97943 16.5539C9.14733 14.8494 9.84818 13.2411 10.9824 11.9577C12.1166 10.6742 13.6265 9.7809 15.2974 9.40465L17.1263 8.83936ZM11.9722 24.6343V31.1185C11.9013 31.9443 12.0117 32.7755 12.2958 33.554C12.5799 34.3326 13.0307 35.0396 13.6168 35.6256C14.2028 36.2117 14.9098 36.6625 15.6884 36.9466C16.4669 37.2307 17.2982 37.3411 18.1239 37.2703C22.4467 37.4365 26.7695 37.4365 31.0924 37.2703C34.9164 37.2703 37.0778 34.9426 37.2441 31.1185C37.4103 26.7957 37.4103 22.4729 37.2441 18.1501C37.2871 17.3309 37.1575 16.5117 36.8636 15.7459C36.5697 14.98 36.1181 14.2845 35.538 13.7044C34.9579 13.1243 34.2624 12.6727 33.4965 12.3788C32.7307 12.0849 31.9116 11.9553 31.0924 11.9983C26.7695 11.8321 22.4467 11.8321 18.1239 11.9983C17.2982 11.9275 16.4669 12.0379 15.6884 12.322C14.9098 12.6061 14.2028 13.0569 13.6168 13.6429C13.0307 14.229 12.5799 14.936 12.2958 15.7146C12.0117 16.4931 11.9013 17.3243 11.9722 18.1501V24.6343Z" fill="white"/>
<path d="M16.5277 24.7008C16.5321 22.5415 17.3918 20.4719 18.9187 18.945C20.4456 17.4181 22.5152 16.5583 24.6746 16.554C26.8219 16.5965 28.8695 17.4685 30.3882 18.9872C31.9069 20.5059 32.7789 22.5535 32.8214 24.7008C32.817 26.8602 31.9573 28.9298 30.4304 30.4567C28.9035 31.9836 26.8339 32.8433 24.6746 32.8477C22.5272 32.8052 20.4796 31.9332 18.9609 30.4145C17.4422 28.8957 16.5702 26.8482 16.5277 24.7008ZM24.6746 19.5467C23.6647 19.5303 22.673 19.8158 21.8264 20.3666C20.9799 20.9174 20.3171 21.7085 19.923 22.6384C19.529 23.5683 19.4216 24.5947 19.6146 25.5861C19.8076 26.5775 20.2922 27.4886 21.0064 28.2028C21.7205 28.9169 22.6317 29.4016 23.623 29.5946C24.6144 29.7876 25.6408 29.6802 26.5707 29.2861C27.5007 28.892 28.2917 28.2292 28.8425 27.3827C29.3934 26.5361 29.6789 25.5444 29.6625 24.5346C29.6625 23.2117 29.1369 21.943 28.2015 21.0076C27.2661 20.0722 25.9974 19.5467 24.6746 19.5467Z" fill="white"/>
<path d="M30.9926 16.2214C30.9834 15.9569 31.0286 15.6933 31.1256 15.4471C31.2226 15.2008 31.3692 14.9771 31.5563 14.79C31.7435 14.6028 31.9672 14.4562 32.2134 14.3592C32.4597 14.2622 32.7233 14.217 32.9878 14.2263C33.5054 14.2613 33.9928 14.4827 34.3596 14.8496C34.7265 15.2164 34.9479 15.7038 34.9829 16.2214C34.9829 16.7506 34.7727 17.2581 34.3986 17.6322C34.0244 18.0064 33.5169 18.2166 32.9878 18.2166C32.4586 18.2166 31.9512 18.0064 31.577 17.6322C31.2028 17.2581 30.9926 16.7506 30.9926 16.2214Z" fill="white"/>
</g>
<defs>
<linearGradient id="paint0_linear_372_1137" x1="-2.55923" y1="51.1863" x2="53.97" y2="-4.51163" gradientUnits="userSpaceOnUse">
<stop stop-color="#10101E"/>
<stop offset="0.26" stop-color="#10101E"/>
<stop offset="0.61" stop-color="#BC3081"/>
<stop offset="1" stop-color="#4C63D2"/>
</linearGradient>
<clipPath id="clip0_372_1137">
<rect width="48" height="48" fill="white" transform="translate(0.5 0.526123)"/>
</clipPath>
</defs>
</svg>
