<svg width="47" height="47" viewBox="0 0 47 47" fill="none" xmlns="http://www.w3.org/2000/svg">
<g clip-path="url(#clip0_372_1149)">
<path d="M2.95813 16.1331V31.5503C2.95816 32.812 3.29028 34.0514 3.92112 35.144C4.55195 36.2366 5.45927 37.1439 6.55188 37.7747L19.9063 45.4869C20.9989 46.1177 22.2383 46.4498 23.5 46.4498C24.7617 46.4498 26.0011 46.1177 27.0938 45.4869L40.4481 37.7783C41.5407 37.1475 42.4481 36.2402 43.0789 35.1476C43.7097 34.055 44.0419 32.8156 44.0419 31.5539V16.1331C44.0419 14.8715 43.7097 13.6321 43.0789 12.5395C42.4481 11.4469 41.5407 10.5396 40.4481 9.90877L27.0938 2.19659C26.0011 1.56575 24.7617 1.23364 23.5 1.23364C22.2383 1.23364 20.9989 1.56575 19.9063 2.19659L6.55188 9.90877C5.45927 10.5396 4.55195 11.4469 3.92112 12.5395C3.29028 13.6321 2.95816 14.8715 2.95813 16.1331Z" fill="#0145B5"/>
<path d="M33.5625 12.3418H13.4375C13.0563 12.3418 12.6906 12.4932 12.421 12.7628C12.1515 13.0324 12 13.398 12 13.7793V33.9043C12 34.2855 12.1515 34.6512 12.421 34.9208C12.6906 35.1903 13.0563 35.3418 13.4375 35.3418H33.5625C33.9437 35.3418 34.3094 35.1903 34.579 34.9208C34.8486 34.6512 35 34.2855 35 33.9043V13.7793C35 13.398 34.8486 13.0324 34.579 12.7628C34.3094 12.4932 33.9437 12.3418 33.5625 12.3418ZM19.1875 31.748H15.5938V20.9668H19.1875V31.748ZM17.3906 19.5293C16.9642 19.5293 16.5473 19.4028 16.1927 19.1659C15.8381 18.929 15.5617 18.5922 15.3985 18.1982C15.2353 17.8042 15.1926 17.3707 15.2758 16.9524C15.359 16.5341 15.5644 16.1499 15.8659 15.8483C16.1675 15.5468 16.5517 15.3414 16.97 15.2582C17.3882 15.175 17.8218 15.2177 18.2158 15.3809C18.6098 15.5441 18.9466 15.8205 19.1835 16.1751C19.4204 16.5297 19.5469 16.9466 19.5469 17.373C19.5469 17.9449 19.3197 18.4934 18.9153 18.8977C18.5109 19.3021 17.9625 19.5293 17.3906 19.5293ZM31.4062 31.748H27.8125V24.5605C27.8125 23.964 27.0075 23.4824 26.0156 23.4824C24.5781 23.4824 24.2188 25.4015 24.2188 25.998V31.748H20.625V20.9668H24.2188V23.4824C24.2188 21.6855 25.8288 20.9668 27.8125 20.9668C28.7656 20.9668 29.6797 21.3454 30.3537 22.0194C31.0276 22.6933 31.4062 23.6074 31.4062 24.5605V31.748Z" fill="white"/>
</g>
<defs>
<clipPath id="clip0_372_1149">
<rect width="46" height="46" fill="white" transform="translate(0.5 0.841797)"/>
</clipPath>
</defs>
</svg>
