<svg width="69" height="42" viewBox="0 0 69 42" fill="none" xmlns="http://www.w3.org/2000/svg">
<path d="M23.4082 19.1895C24.1113 17.2754 25.1367 15.6738 26.4844 14.3848C27.8516 13.0762 29.2383 12.4219 30.6445 12.4219C33.5156 12.4219 35.7227 13.4375 37.2656 15.4688C38.8281 17.5 39.6094 20.3223 39.6094 23.9355C39.6094 28.5254 38.7695 32.4805 37.0898 35.8008C35.4102 39.1211 33.5059 40.7812 31.377 40.7812C30.2637 40.7812 29.3652 40.4102 28.6816 39.668C27.998 38.9258 27.6562 38.0762 27.6562 37.1191C27.6562 36.2207 27.9395 35.4199 28.5059 34.7168C29.0918 34.0137 29.7852 33.6621 30.5859 33.6621C32.0703 33.6621 32.8125 34.3945 32.8125 35.8594C32.8125 36.1914 32.6465 36.5918 32.3145 37.0605C31.9824 37.5098 31.5918 37.832 31.1426 38.0273L30.6445 37.6172C31.2109 37.207 31.4941 36.7676 31.4941 36.2988C31.4941 35.8105 31.1328 35.5664 30.4102 35.5664C29.375 35.5664 28.8574 36.2793 28.8574 37.7051C28.8574 38.3105 29.1113 38.7988 29.6191 39.1699C30.127 39.5215 30.791 39.6973 31.6113 39.6973C33.0371 39.6973 34.1406 38.5156 34.9219 36.1523C35.7227 33.7891 36.123 30.3516 36.123 25.8398C36.123 22.6367 35.4883 20 34.2188 17.9297C32.9492 15.8398 31.1816 14.7949 28.916 14.7949C27.5098 14.7949 26.2891 15.6055 25.2539 17.2266C24.2188 18.8477 23.7012 19.8828 23.7012 20.332L23.8477 21.6797C23.9453 22.6172 23.9941 23.4277 23.9941 24.1113C23.9941 28.1543 23.3594 31.4844 22.0898 34.1016C20.8398 36.7188 19.375 38.0273 17.6953 38.0273C16.9336 38.0273 16.2207 37.7637 15.5566 37.2363C14.9121 36.6895 14.5898 35.9961 14.5898 35.1562C14.5898 34.2188 14.8242 33.457 15.293 32.8711C15.7812 32.2656 16.4648 31.9629 17.3438 31.9629C17.9492 31.9629 18.4473 32.1387 18.8379 32.4902C19.2285 32.8223 19.4238 33.1836 19.4238 33.5742C19.4238 34.082 19.2871 34.5508 19.0137 34.9805C18.7402 35.4102 18.3594 35.625 17.8711 35.625L17.5195 35.2148C17.9883 35.0391 18.2227 34.8145 18.2227 34.541C18.2227 34.1504 17.8027 33.9551 16.9629 33.9551C16.7285 33.9551 16.4941 34.082 16.2598 34.3359C16.0254 34.5898 15.9082 34.9023 15.9082 35.2734C15.9082 35.8008 16.0938 36.2402 16.4648 36.5918C16.8359 36.9434 17.3047 37.1191 17.8711 37.1191C18.8672 37.1191 19.6387 36.2305 20.1855 34.4531C20.7324 32.6562 21.0059 29.2871 21.0059 24.3457C21.0059 22.373 20.3809 20.498 19.1309 18.7207C17.8809 16.9434 16.4062 16.0547 14.707 16.0547C13.8281 16.0547 12.959 16.3184 12.0996 16.8457C11.2402 17.3535 10.4785 18.1055 9.81445 19.1016C9.16992 20.0977 8.83789 21.1426 8.81836 22.2363L8.64258 31.6406C8.56445 36.3086 8.52539 38.9746 8.52539 39.6387L12.4219 39.4629V40.8984C8.80859 40.8984 5.88867 41.2207 3.66211 41.8652L3.28125 40.6055L7.14844 39.8145C7.14844 30.8691 6.08398 22.6172 3.95508 15.0586L0.0585938 15.4688L0 14.209C3.24219 14.1309 6.39648 13.6133 9.46289 12.6562C9.18945 13.3984 8.95508 15.6934 8.75977 19.541C9.18945 18.2715 10.1465 17.0508 11.6309 15.8789C13.1348 14.6875 14.6387 14.0918 16.1426 14.0918C17.8223 14.0918 19.3262 14.5508 20.6543 15.4688C22.002 16.3672 22.9199 17.6074 23.4082 19.1895Z" fill="#2352D6"/>
<path d="M58.3605 7.11914C57.8918 6.88477 57.4523 6.76758 57.0422 6.76758C56.4953 6.76758 56.2219 7.39258 56.2219 8.64258C56.2219 9.05273 56.4074 9.43359 56.7785 9.78516C57.1691 10.1367 57.5988 10.3125 58.0676 10.3125C59.8645 10.3125 60.7629 8.73047 60.7629 5.56641C60.7629 4.29688 60.2551 3.20312 59.2395 2.28516C58.2434 1.34766 57.0715 0.878906 55.7238 0.878906C53.927 0.878906 52.3645 1.5625 51.0363 2.92969C49.7277 4.27734 49.0734 5.80078 49.0734 7.5C49.0734 8.88672 49.591 10.2539 50.6262 11.6016C51.6613 12.9297 53.7414 14.4434 56.8664 16.1426C59.9914 17.8418 62.218 19.1406 63.5461 20.0391C64.8742 20.9375 65.9973 22.0312 66.9152 23.3203C67.8527 24.6094 68.3215 26.0938 68.3215 27.7734C68.3215 30.918 66.8957 33.9258 64.0441 36.7969C61.2121 39.6484 58.0773 41.0742 54.6398 41.0742C52.1398 41.0742 49.9523 40.1074 48.0773 38.1738C46.2219 36.2402 45.2941 33.9941 45.2941 31.4355C45.2941 29.3848 46.1926 27.5293 47.9895 25.8691C49.8059 24.209 51.6711 23.3789 53.5852 23.3789C55.3625 23.3789 56.7883 23.8086 57.8625 24.668C58.9562 25.5078 59.5031 26.6406 59.5031 28.0664C59.5031 29.5703 58.8879 30.8789 57.6574 31.9922C56.4465 33.1055 55.0598 33.6621 53.4973 33.6621C52.8332 33.6621 52.2766 33.4277 51.8273 32.959C51.3977 32.4707 51.1828 31.9238 51.1828 31.3184C51.1828 30.7129 51.4074 30.2246 51.8566 29.8535C52.3059 29.4629 52.882 29.2676 53.5852 29.2676C54.132 29.2676 54.5227 29.4922 54.757 29.9414C53.7219 30.2539 53.2043 30.625 53.2043 31.0547C53.2043 32.1484 53.7023 32.6953 54.6984 32.6953C55.4797 32.6953 56.1145 32.2852 56.6027 31.4648C57.1105 30.625 57.3645 29.7363 57.3645 28.7988C57.3645 27.6074 56.9543 26.582 56.134 25.7227C55.3137 24.8438 54.3176 24.4043 53.1457 24.4043C51.6027 24.4043 50.4113 25.1172 49.5715 26.543C48.7512 27.9688 48.341 29.834 48.341 32.1387C48.341 34.2285 48.9953 36.0352 50.3039 37.5586C51.632 39.0625 53.2629 39.8145 55.1965 39.8145C58.2043 39.8145 60.7727 38.7695 62.9016 36.6797C65.05 34.5703 66.1242 31.7969 66.1242 28.3594C66.1242 26.7773 65.6555 25.4395 64.718 24.3457C63.8 23.2324 62.6574 22.3145 61.2902 21.5918C59.9426 20.8691 58.0871 20.0293 55.7238 19.0723C53.3605 18.1152 51.4465 17.2559 49.9816 16.4941C48.5363 15.7129 47.3059 14.6973 46.2902 13.4473C45.2941 12.1973 44.7961 10.6738 44.7961 8.87695C44.7961 6.39648 45.8996 4.29688 48.1066 2.57812C50.3332 0.859375 52.9309 0 55.8996 0C57.8137 0 59.4348 0.46875 60.7629 1.40625C62.091 2.32422 62.7551 3.53516 62.7551 5.03906C62.7551 6.73828 62.3059 8.19336 61.4074 9.4043C60.5285 10.6152 59.3566 11.2207 57.8918 11.2207C56.759 11.2207 55.7824 10.9766 54.9621 10.4883C54.1418 9.98047 53.7316 9.30664 53.7316 8.4668C53.7316 7.76367 53.9758 7.12891 54.4641 6.5625C54.9719 5.97656 55.6164 5.68359 56.3977 5.68359C57.7062 5.68359 58.3605 6.16211 58.3605 7.11914Z" fill="#2352D6"/>
</svg>
