<svg width="242" height="93" viewBox="0 0 242 93" fill="none" xmlns="http://www.w3.org/2000/svg">
<path d="M2.10288 31.0046V26.8857H6.13602V5.08954H2.10288V0.970581H14.1165C18.121 0.970581 21.1817 1.98602 23.2983 4.01689C25.4436 6.04777 26.5163 9.10838 26.5163 13.1987V18.8194C26.5163 22.9097 25.4436 25.9704 23.2983 28.0012C21.1817 30.0035 18.121 31.0046 14.1165 31.0046H2.10288ZM10.8128 26.7999H14.1594C16.7624 26.7999 18.6931 26.142 19.9517 24.8262C21.2103 23.5104 21.8395 21.5511 21.8395 18.9481V13.0271C21.8395 10.3956 21.2103 8.43619 19.9517 7.14901C18.6931 5.86184 16.7624 5.21826 14.1594 5.21826H10.8128V26.7999Z" fill="white"/>
<path d="M40.5052 31.6053C38.3599 31.6053 36.4864 31.162 34.8846 30.2752C33.2828 29.3599 32.0242 28.087 31.1089 26.4566C30.2221 24.7976 29.7788 22.8811 29.7788 20.7072V20.1924C29.7788 17.9899 30.2221 16.0734 31.1089 14.443C31.9956 12.784 33.2256 11.5111 34.7988 10.6244C36.4006 9.70906 38.2455 9.2514 40.3336 9.2514C42.3645 9.2514 44.1379 9.70906 45.6539 10.6244C47.1985 11.5111 48.3999 12.7554 49.258 14.3572C50.1161 15.959 50.5452 17.8326 50.5452 19.9778V21.6512H34.2839C34.3411 23.5104 34.9561 24.9978 36.1288 26.1134C37.3302 27.2003 38.8176 27.7438 40.591 27.7438C42.2501 27.7438 43.4943 27.3719 44.3238 26.6282C45.182 25.8845 45.8399 25.0264 46.2975 24.0539L49.9445 25.9418C49.5441 26.7427 48.9577 27.5865 48.1854 28.4732C47.4417 29.3599 46.4548 30.1036 45.2249 30.7043C43.9949 31.305 42.4217 31.6053 40.5052 31.6053ZM34.3268 18.2616H46.0401C45.9257 16.6598 45.3536 15.4155 44.3238 14.5288C43.2941 13.6135 41.9497 13.1558 40.2907 13.1558C38.6317 13.1558 37.273 13.6135 36.2147 14.5288C35.1849 15.4155 34.5556 16.6598 34.3268 18.2616Z" fill="white"/>
<path d="M63.4592 31.6053C60.7704 31.6053 58.5393 31.0046 56.7659 29.8033C54.9924 28.6019 53.9055 26.7856 53.505 24.3542L57.624 23.3674C57.8528 24.5402 58.239 25.4698 58.7824 26.1563C59.3259 26.8428 59.9981 27.329 60.799 27.6151C61.6285 27.9011 62.5152 28.0441 63.4592 28.0441C64.8607 28.0441 65.9334 27.7724 66.6771 27.2289C67.4494 26.6855 67.8355 25.9847 67.8355 25.1265C67.8355 24.2684 67.478 23.6391 66.7629 23.2387C66.0478 22.8382 64.9895 22.5093 63.5879 22.2519L62.1291 21.9944C60.6989 21.737 59.3974 21.3651 58.2247 20.8789C57.0519 20.3926 56.1223 19.7204 55.4358 18.8623C54.7493 18.0042 54.406 16.9029 54.406 15.5586C54.406 13.5563 55.1497 12.0117 56.6371 10.9247C58.1245 9.80917 60.0982 9.2514 62.5581 9.2514C64.9323 9.2514 66.8773 9.79487 68.3933 10.8818C69.9379 11.9402 70.9391 13.3847 71.3967 15.2153L67.2778 16.3738C67.0203 15.0866 66.4769 14.1856 65.6474 13.6707C64.8178 13.1272 63.7881 12.8555 62.5581 12.8555C61.3568 12.8555 60.4128 13.0843 59.7264 13.542C59.0399 13.971 58.6966 14.586 58.6966 15.3869C58.6966 16.245 59.0256 16.8743 59.6834 17.2748C60.3699 17.6752 61.2853 17.9756 62.4294 18.1758L63.9311 18.4332C65.4471 18.6907 66.8344 19.0482 68.093 19.5059C69.3516 19.9635 70.3384 20.6214 71.0535 21.4795C71.7972 22.3377 72.169 23.4818 72.169 24.912C72.169 27.0287 71.3824 28.6734 69.8092 29.8462C68.236 31.0189 66.1193 31.6053 63.4592 31.6053Z" fill="white"/>
<path d="M76.2618 31.0046V9.85208H80.6811V31.0046H76.2618ZM78.493 6.97739C77.6348 6.97739 76.9054 6.70566 76.3048 6.16218C75.7327 5.5901 75.4466 4.86071 75.4466 3.97399C75.4466 3.08727 75.7327 2.37217 76.3048 1.8287C76.9054 1.25662 77.6348 0.970581 78.493 0.970581C79.3797 0.970581 80.1091 1.25662 80.6811 1.8287C81.2532 2.37217 81.5393 3.08727 81.5393 3.97399C81.5393 4.86071 81.2532 5.5901 80.6811 6.16218C80.1091 6.70566 79.3797 6.97739 78.493 6.97739Z" fill="white"/>
<path d="M85.1373 20.5356V19.892C85.1373 17.6609 85.5807 15.7588 86.4674 14.1856C87.3827 12.6124 88.5841 11.3967 90.0715 10.5386C91.5589 9.68046 93.1893 9.2514 94.9627 9.2514C97.0222 9.2514 98.5954 9.63755 99.6824 10.4099C100.798 11.1822 101.613 12.0117 102.128 12.8984H102.814V9.85208H107.105V35.3381C107.105 36.6253 106.719 37.655 105.947 38.4273C105.203 39.1996 104.173 39.5858 102.857 39.5858H88.6127V35.7243H101.484C102.314 35.7243 102.729 35.2952 102.729 34.4371V27.7009H102.042C101.728 28.2158 101.284 28.7449 100.712 29.2884C100.14 29.8319 99.382 30.2752 98.4381 30.6185C97.5228 30.9617 96.3643 31.1334 94.9627 31.1334C93.1893 31.1334 91.5446 30.7186 90.0286 29.8891C88.5412 29.031 87.3541 27.8153 86.4674 26.2421C85.5807 24.6403 85.1373 22.7381 85.1373 20.5356ZM96.1641 27.2718C98.0806 27.2718 99.6538 26.6711 100.884 25.4698C102.142 24.2398 102.772 22.5522 102.772 20.4069V20.0208C102.772 17.8183 102.157 16.1306 100.927 14.9579C99.6967 13.7565 98.1092 13.1558 96.1641 13.1558C94.2762 13.1558 92.703 13.7565 91.4445 14.9579C90.2145 16.1306 89.5995 17.8183 89.5995 20.0208V20.4069C89.5995 22.5522 90.2145 24.2398 91.4445 25.4698C92.703 26.6711 94.2762 27.2718 96.1641 27.2718Z" fill="white"/>
<path d="M112.539 31.0046V9.85208H116.873V13.0271H117.559C117.959 12.169 118.675 11.3681 119.704 10.6244C120.734 9.88068 122.264 9.50883 124.295 9.50883C125.897 9.50883 127.313 9.86638 128.543 10.5815C129.801 11.2966 130.788 12.312 131.503 13.6278C132.218 14.915 132.576 16.4739 132.576 18.3045V31.0046H128.157V18.6478C128.157 16.8171 127.699 15.4727 126.784 14.6146C125.868 13.7279 124.61 13.2845 123.008 13.2845C121.177 13.2845 119.704 13.8852 118.589 15.0866C117.502 16.2879 116.958 18.0328 116.958 20.3211V31.0046H112.539Z" fill="white"/>
<path d="M147.56 31.6053C145.415 31.6053 143.541 31.162 141.94 30.2752C140.338 29.3599 139.079 28.087 138.164 26.4566C137.277 24.7976 136.834 22.8811 136.834 20.7072V20.1924C136.834 17.9899 137.277 16.0734 138.164 14.443C139.051 12.784 140.281 11.5111 141.854 10.6244C143.456 9.70906 145.3 9.2514 147.389 9.2514C149.419 9.2514 151.193 9.70906 152.709 10.6244C154.254 11.5111 155.455 12.7554 156.313 14.3572C157.171 15.959 157.6 17.8326 157.6 19.9778V21.6512H141.339C141.396 23.5104 142.011 24.9978 143.184 26.1134C144.385 27.2003 145.873 27.7438 147.646 27.7438C149.305 27.7438 150.549 27.3719 151.379 26.6282C152.237 25.8845 152.895 25.0264 153.352 24.0539L156.999 25.9418C156.599 26.7427 156.013 27.5865 155.24 28.4732C154.497 29.3599 153.51 30.1036 152.28 30.7043C151.05 31.305 149.477 31.6053 147.56 31.6053ZM141.382 18.2616H153.095C152.981 16.6598 152.409 15.4155 151.379 14.5288C150.349 13.6135 149.005 13.1558 147.346 13.1558C145.687 13.1558 144.328 13.6135 143.27 14.5288C142.24 15.4155 141.611 16.6598 141.382 18.2616Z" fill="white"/>
<path d="M161.847 31.0046V9.85208H166.181V12.3406H166.867C167.21 11.4539 167.754 10.8103 168.498 10.4099C169.27 9.9808 170.214 9.76627 171.329 9.76627H173.861V13.7565H171.158C169.728 13.7565 168.555 14.157 167.639 14.9579C166.724 15.7302 166.266 16.9315 166.266 18.562V31.0046H161.847Z" fill="white"/>
<path d="M194.353 31.0046C192.636 31.0046 191.106 30.69 189.762 30.0607C188.446 29.4314 187.402 28.5161 186.63 27.3147C185.886 26.1134 185.514 24.6689 185.514 22.9813C185.514 21.7227 185.743 20.6357 186.201 19.7204C186.658 18.8051 187.273 18.0471 188.046 17.4464C188.846 16.8171 189.705 16.3595 190.62 16.0734V15.5156C189.247 15.0866 188.088 14.3429 187.144 13.2845C186.201 12.2262 185.729 10.796 185.729 8.99397C185.729 7.24913 186.115 5.79033 186.887 4.61757C187.688 3.41621 188.746 2.51519 190.062 1.91451C191.378 1.28522 192.865 0.970581 194.524 0.970581H199.587V4.70339H195.254C193.823 4.70339 192.622 5.08954 191.65 5.86184C190.677 6.60554 190.191 7.764 190.191 9.33721C190.191 10.4242 190.42 11.3109 190.877 11.9974C191.364 12.6553 191.979 13.1558 192.722 13.4991C193.495 13.8137 194.338 13.971 195.254 13.971H200.274V9.72336H204.693V13.971H208.769V17.7038H204.693V31.0046H194.353ZM195.082 27.2718H200.274V17.7038H195.082C193.652 17.7038 192.436 18.1043 191.435 18.9052C190.434 19.6775 189.933 20.8789 189.933 22.5093C189.933 24.1397 190.448 25.3411 191.478 26.1134C192.508 26.8857 193.709 27.2718 195.082 27.2718Z" fill="white"/>
<path d="M3.21843 84.0046V53.9706H15.1462C16.9769 53.9706 18.6073 54.3424 20.0375 55.0861C21.4963 55.8012 22.6261 56.831 23.4271 58.1753C24.2566 59.4911 24.6713 61.0786 24.6713 62.9379V63.4957C24.6713 65.3549 24.2423 66.9567 23.3841 68.3011C22.5546 69.6455 21.4248 70.6752 19.9946 71.3903C18.5644 72.1054 16.9483 72.463 15.1462 72.463H7.85225V84.0046H3.21843ZM7.85225 68.2582H14.6743C16.3047 68.2582 17.6062 67.8292 18.5787 66.971C19.5512 66.1129 20.0375 64.9402 20.0375 63.4528V63.0237C20.0375 61.5077 19.5512 60.3206 18.5787 59.4625C17.6062 58.6044 16.3047 58.1753 14.6743 58.1753H7.85225V68.2582Z" fill="white"/>
<path d="M28.1269 84.0046V62.8521H32.4604V65.3406H33.1469C33.4901 64.4539 34.0336 63.8103 34.7773 63.4099C35.5496 62.9808 36.4935 62.7663 37.6091 62.7663H40.1405V66.7565H37.4375C36.0073 66.7565 34.8345 67.157 33.9192 67.9579C33.0039 68.7302 32.5462 69.9315 32.5462 71.562V84.0046H28.1269Z" fill="white"/>
<path d="M52.8038 84.6053C50.6871 84.6053 48.7992 84.1763 47.1402 83.3181C45.5098 82.4314 44.2226 81.1729 43.2787 79.5424C42.3348 77.912 41.8628 75.9813 41.8628 73.7502V73.1066C41.8628 70.8755 42.3348 68.959 43.2787 67.3572C44.2226 65.7268 45.5098 64.4682 47.1402 63.5815C48.7992 62.6948 50.6871 62.2514 52.8038 62.2514C54.9205 62.2514 56.8083 62.6948 58.4673 63.5815C60.1264 64.4682 61.4278 65.7268 62.3718 67.3572C63.3157 68.959 63.7877 70.8755 63.7877 73.1066V73.7502C63.7877 75.9813 63.3157 77.912 62.3718 79.5424C61.4278 81.1729 60.1264 82.4314 58.4673 83.3181C56.8083 84.1763 54.9205 84.6053 52.8038 84.6053ZM52.8038 80.658C54.7488 80.658 56.3221 80.043 57.5234 78.813C58.7534 77.5545 59.3684 75.8239 59.3684 73.6214V73.2353C59.3684 71.0328 58.7677 69.3166 57.5663 68.0866C56.365 66.828 54.7774 66.1987 52.8038 66.1987C50.8873 66.1987 49.3141 66.828 48.0841 68.0866C46.8828 69.3166 46.2821 71.0328 46.2821 73.2353V73.6214C46.2821 75.8239 46.8828 77.5545 48.0841 78.813C49.3141 80.043 50.8873 80.658 52.8038 80.658Z" fill="white"/>
<path d="M67.1873 73.5356V72.892C67.1873 70.6609 67.6306 68.7588 68.5173 67.1856C69.4327 65.6123 70.634 64.3967 72.1214 63.5386C73.6088 62.6805 75.2393 62.2514 77.0127 62.2514C79.0722 62.2514 80.6454 62.6376 81.7323 63.4099C82.8479 64.1822 83.6631 65.0117 84.178 65.8984H84.8645V62.8521H89.155V88.3381C89.155 89.6253 88.7689 90.655 87.9966 91.4273C87.2529 92.1996 86.2231 92.5858 84.9074 92.5858H70.6626V88.7243H83.5344C84.3639 88.7243 84.7786 88.2952 84.7786 87.4371V80.7009H84.0921C83.7775 81.2158 83.3341 81.7449 82.7621 82.2884C82.19 82.8319 81.432 83.2752 80.4881 83.6185C79.5727 83.9617 78.4143 84.1334 77.0127 84.1334C75.2393 84.1334 73.5945 83.7186 72.0785 82.8891C70.5911 82.031 69.4041 80.8153 68.5173 79.2421C67.6306 77.6403 67.1873 75.7381 67.1873 73.5356ZM78.2141 80.2718C80.1305 80.2718 81.7037 79.6711 82.9337 78.4698C84.1923 77.2398 84.8215 75.5522 84.8215 73.4069V73.0208C84.8215 70.8183 84.2066 69.1306 82.9766 67.9579C81.7466 66.7565 80.1591 66.1558 78.2141 66.1558C76.3262 66.1558 74.753 66.7565 73.4944 67.9579C72.2645 69.1306 71.6495 70.8183 71.6495 73.0208V73.4069C71.6495 75.5522 72.2645 77.2398 73.4944 78.4698C74.753 79.6711 76.3262 80.2718 78.2141 80.2718Z" fill="white"/>
<path d="M94.589 84.0046V62.8521H98.9225V65.3406H99.609C99.9522 64.4539 100.496 63.8103 101.239 63.4099C102.012 62.9808 102.956 62.7663 104.071 62.7663H106.603V66.7565H103.9C102.469 66.7565 101.297 67.157 100.381 67.9579C99.4659 68.7302 99.0083 69.9315 99.0083 71.562V84.0046H94.589Z" fill="white"/>
<path d="M116.087 84.6053C114.571 84.6053 113.212 84.3479 112.011 83.833C110.838 83.3181 109.894 82.5601 109.179 81.559C108.492 80.5579 108.149 79.3422 108.149 77.912C108.149 76.4532 108.492 75.2519 109.179 74.3079C109.894 73.3354 110.852 72.606 112.054 72.1197C113.284 71.6335 114.671 71.3903 116.216 71.3903H122.651V70.0173C122.651 68.7874 122.28 67.8005 121.536 67.0568C120.792 66.3131 119.648 65.9413 118.103 65.9413C116.587 65.9413 115.429 66.2988 114.628 67.0139C113.827 67.729 113.298 68.6587 113.04 69.8028L108.922 68.4727C109.265 67.3286 109.808 66.2988 110.552 65.3835C111.324 64.4396 112.34 63.6816 113.598 63.1095C114.857 62.5374 116.373 62.2514 118.146 62.2514C120.892 62.2514 123.052 62.9522 124.625 64.3538C126.198 65.7554 126.985 67.7433 126.985 70.3177V79.0276C126.985 79.8857 127.385 80.3147 128.186 80.3147H129.988V84.0046H126.685C125.683 84.0046 124.868 83.7472 124.239 83.2323C123.61 82.7175 123.295 82.0167 123.295 81.1299V81.0012H122.651C122.423 81.4303 122.079 81.9309 121.622 82.5029C121.164 83.075 120.492 83.5756 119.605 84.0046C118.718 84.4051 117.546 84.6053 116.087 84.6053ZM116.73 80.9583C118.504 80.9583 119.934 80.4578 121.021 79.4566C122.108 78.4269 122.651 77.0253 122.651 75.2519V74.8228H116.473C115.3 74.8228 114.356 75.0802 113.641 75.5951C112.926 76.0814 112.569 76.8108 112.569 77.7833C112.569 78.7558 112.94 79.5281 113.684 80.1002C114.428 80.6723 115.443 80.9583 116.73 80.9583Z" fill="white"/>
<path d="M133.213 84.0046V62.8521H137.546V65.3406H138.233C138.633 64.5969 139.277 63.939 140.163 63.367C141.05 62.7949 142.251 62.5088 143.767 62.5088C145.341 62.5088 146.599 62.8378 147.543 63.4957C148.516 64.125 149.245 64.9402 149.731 65.9413H150.418C150.904 64.9688 151.605 64.1536 152.52 63.4957C153.464 62.8378 154.794 62.5088 156.51 62.5088C157.883 62.5088 159.099 62.7949 160.157 63.367C161.216 63.9104 162.06 64.7399 162.689 65.8555C163.318 66.9424 163.633 68.3011 163.633 69.9315V84.0046H159.213V70.2748C159.213 68.9876 158.856 68.0008 158.141 67.3143C157.454 66.5992 156.468 66.2416 155.18 66.2416C153.807 66.2416 152.706 66.685 151.877 67.5717C151.047 68.4584 150.632 69.7313 150.632 71.3903V84.0046H146.213V70.2748C146.213 68.9876 145.855 68.0008 145.14 67.3143C144.454 66.5992 143.467 66.2416 142.18 66.2416C140.807 66.2416 139.706 66.685 138.876 67.5717C138.047 68.4584 137.632 69.7313 137.632 71.3903V84.0046H133.213Z" fill="white"/>
<path d="M168.928 84.0046V62.8521H173.262V65.3406H173.948C174.349 64.5969 174.992 63.939 175.879 63.367C176.766 62.7949 177.967 62.5088 179.483 62.5088C181.056 62.5088 182.315 62.8378 183.259 63.4957C184.231 64.125 184.961 64.9402 185.447 65.9413H186.134C186.62 64.9688 187.321 64.1536 188.236 63.4957C189.18 62.8378 190.51 62.5088 192.226 62.5088C193.599 62.5088 194.815 62.7949 195.873 63.367C196.931 63.9104 197.775 64.7399 198.405 65.8555C199.034 66.9424 199.348 68.3011 199.348 69.9315V84.0046H194.929V70.2748C194.929 68.9876 194.572 68.0008 193.857 67.3143C193.17 66.5992 192.183 66.2416 190.896 66.2416C189.523 66.2416 188.422 66.685 187.592 67.5717C186.763 68.4584 186.348 69.7313 186.348 71.3903V84.0046H181.929V70.2748C181.929 68.9876 181.571 68.0008 180.856 67.3143C180.17 66.5992 179.183 66.2416 177.896 66.2416C176.523 66.2416 175.421 66.685 174.592 67.5717C173.762 68.4584 173.348 69.7313 173.348 71.3903V84.0046H168.928Z" fill="white"/>
<path d="M214.341 84.6053C212.195 84.6053 210.322 84.162 208.72 83.2752C207.118 82.3599 205.86 81.087 204.944 79.4566C204.058 77.7976 203.614 75.8811 203.614 73.7072V73.1924C203.614 70.9899 204.058 69.0734 204.944 67.443C205.831 65.784 207.061 64.5111 208.634 63.6244C210.236 62.7091 212.081 62.2514 214.169 62.2514C216.2 62.2514 217.973 62.7091 219.489 63.6244C221.034 64.5111 222.235 65.7554 223.093 67.3572C223.952 68.959 224.381 70.8326 224.381 72.9778V74.6512H208.119C208.177 76.5104 208.792 77.9978 209.964 79.1134C211.166 80.2003 212.653 80.7438 214.427 80.7438C216.086 80.7438 217.33 80.3719 218.159 79.6282C219.017 78.8845 219.675 78.0264 220.133 77.0539L223.78 78.9417C223.38 79.7427 222.793 80.5865 222.021 81.4732C221.277 82.3599 220.29 83.1036 219.06 83.7043C217.83 84.305 216.257 84.6053 214.341 84.6053ZM208.162 71.2616H219.876C219.761 69.6598 219.189 68.4155 218.159 67.5288C217.13 66.6135 215.785 66.1558 214.126 66.1558C212.467 66.1558 211.108 66.6135 210.05 67.5288C209.02 68.4155 208.391 69.6598 208.162 71.2616Z" fill="white"/>
<path d="M228.628 84.0046V62.8521H232.961V65.3406H233.648C233.991 64.4539 234.534 63.8103 235.278 63.4099C236.05 62.9808 236.994 62.7663 238.11 62.7663H240.641V66.7565H237.938C236.508 66.7565 235.335 67.157 234.42 67.9579C233.505 68.7302 233.047 69.9315 233.047 71.562V84.0046H228.628Z" fill="white"/>
<path d="M0.0863037 36.3679H183.974V38.5131H0.0863037V36.3679ZM0.0863037 89.3679H241.971V91.5132H0.0863037V89.3679Z" fill="white"/>
<path d="M183.969 36.3679H209.627V38.5131H183.969V36.3679Z" fill="white"/>
</svg>
