<svg width="948" height="160" viewBox="0 0 948 160" fill="none" xmlns="http://www.w3.org/2000/svg">
<path d="M63.2152 69.9612H46.6139L45.8619 73.4607H58.443L57.9514 75.7456C56.3896 83.1786 50.8944 87.8061 43.6928 87.8061C35.6524 87.8061 30.8803 82.0506 30.8803 73.5475C30.8803 63.0199 36.6936 52.0873 48.06 52.0873C54.8856 52.0873 59.3685 56.0786 59.9181 62.3836H63.9093C63.9093 62.2968 63.9093 62.1811 63.9093 62.0944C63.4755 54.0251 57.4018 48.4431 48.0889 48.4431C34.1774 48.4431 26.8312 61.3713 26.8312 73.721C26.8312 84.1908 33.223 91.4503 43.6638 91.4503C52.89 91.4503 59.7735 85.8105 61.9137 75.948L63.2152 69.9612Z" fill="white"/>
<path d="M78.6885 87.9218C73.4536 87.9218 70.0986 84.0752 70.0986 78.175C70.0986 69.9033 75.0154 63.6272 81.6675 63.6272C86.8735 63.6272 90.2284 67.4739 90.2284 73.374C90.2284 81.6457 85.3117 87.9218 78.6885 87.9218ZM81.6675 60.2433C72.8752 60.2433 66.2231 68.0812 66.2231 78.2907C66.2231 86.1575 71.1109 91.3057 78.6885 91.3057C87.4519 91.3057 94.104 83.4678 94.104 73.2583C94.104 65.3915 89.2451 60.2433 81.6675 60.2433Z" fill="white"/>
<path d="M110.214 87.9218C104.979 87.9218 101.624 84.0752 101.624 78.175C101.624 69.9033 106.541 63.6272 113.193 63.6272C118.399 63.6272 121.754 67.4739 121.754 73.374C121.754 81.6457 116.837 87.9218 110.214 87.9218ZM113.193 60.2433C104.4 60.2433 97.7482 68.0812 97.7482 78.2907C97.7482 86.1575 102.636 91.3057 110.214 91.3057C118.977 91.3057 125.629 83.4678 125.629 73.2583C125.629 65.3915 120.77 60.2433 113.193 60.2433Z" fill="white"/>
<path d="M140.322 91.3057C144.631 91.3057 148.796 88.7605 150.849 85.1742H150.965L149.779 90.814H153.655L162.534 49.0794H158.687L154.638 67.9655H154.493C153.712 63.5405 149.634 60.2433 144.486 60.2433C136.012 60.2433 129.215 68.2837 129.215 78.6667C129.215 86.2154 133.583 91.3057 140.322 91.3057ZM141.189 87.9218C136.157 87.9218 133.062 84.2487 133.062 78.4643C133.062 70.0769 138.181 63.6561 144.515 63.6561C149.663 63.6561 152.96 67.416 152.96 72.9112C152.96 81.2408 148.015 87.9218 141.189 87.9218Z" fill="white"/>
<path d="M186.944 91.3057C191.253 91.3057 195.418 88.7605 197.472 85.1742H197.587L196.402 90.814H200.277L209.156 49.0794H205.31L201.26 67.9655H201.116C200.335 63.5405 196.257 60.2433 191.109 60.2433C182.635 60.2433 175.838 68.2837 175.838 78.6667C175.838 86.2154 180.205 91.3057 186.944 91.3057ZM187.812 87.9218C182.779 87.9218 179.685 84.2487 179.685 78.4643C179.685 70.0769 184.804 63.6561 191.138 63.6561C196.286 63.6561 199.583 67.416 199.583 72.9112C199.583 81.2408 194.637 87.9218 187.812 87.9218Z" fill="white"/>
<path d="M213.09 73.4897C214.333 67.8209 218.267 63.5983 223.617 63.5983C228.997 63.5983 231.571 67.416 231.571 72.0725C231.571 72.6509 231.571 73.0269 231.484 73.4897H213.09ZM220.725 91.3635C227.117 91.3635 232.236 87.4012 233.885 81.8482H230.096C228.621 85.608 225.324 87.9507 220.812 87.9507C215.721 87.9507 212.482 84.2776 212.482 78.3197C212.482 77.8569 212.511 77.2495 212.598 76.5843H235.128C235.36 75.3696 235.446 73.8367 235.446 72.5642C235.446 64.9576 230.934 60.2433 223.675 60.2433C214.912 60.2433 208.578 68.2837 208.578 78.4643C208.578 86.0129 212.887 91.3635 220.725 91.3635Z" fill="white"/>
<path d="M241.433 68.8621C241.433 72.7377 243.631 75.1093 248.895 76.8157L251.498 77.6834C255.75 79.0716 257.022 80.1707 257.022 82.5134C257.022 85.6948 253.956 88.1243 249.705 88.1243C245.048 88.1243 241.954 85.6659 241.433 82.0795H237.587C237.876 87.4012 242.619 91.3057 249.531 91.3057C256.126 91.3057 260.869 87.5458 260.869 82.3109C260.869 78.4064 258.7 76.1505 253.262 74.3862L250.659 73.5475C246.668 72.246 245.193 70.9156 245.193 68.544C245.193 65.5939 247.999 63.4248 252.221 63.4248C256.241 63.4248 259.162 65.8542 259.51 69.267H263.183C262.98 63.9743 258.584 60.2433 252.279 60.2433C245.858 60.2433 241.433 63.8875 241.433 68.8621Z" fill="white"/>
<path d="M264.513 90.814H268.389L274.78 60.735H270.905L264.513 90.814ZM274.549 55.2398C275.937 55.2398 277.094 54.1118 277.094 52.6947C277.094 51.2775 275.937 50.1495 274.549 50.1495C273.132 50.1495 271.975 51.2775 271.975 52.6947C271.975 54.1118 273.132 55.2398 274.549 55.2398Z" fill="white"/>
<path d="M286.812 101.949C294.129 101.949 299.567 97.8132 301.244 89.9463L307.433 60.735H303.645L302.141 68.0812H301.996C301.186 63.5405 297.282 60.2433 292.105 60.2433C282.705 60.2433 276.863 69.0067 276.863 78.2618C276.863 85.8972 281.317 90.814 288.113 90.814C292.365 90.814 296.443 88.4135 298.468 84.7114H298.583L297.398 89.9753C296.038 95.6151 292.336 98.6519 286.87 98.6519C282.271 98.6519 279.177 96.396 278.83 93.3591H274.896C274.896 98.2181 279.957 101.949 286.812 101.949ZM288.923 87.4301C283.631 87.4301 280.681 83.7281 280.681 78.1461C280.681 70.1058 285.482 63.6561 292.134 63.6561C296.993 63.6561 300.521 67.3871 300.521 72.8823C300.521 80.8359 295.894 87.4301 288.923 87.4301Z" fill="white"/>
<path d="M307.607 90.814H311.454L315.358 72.5642C316.457 67.3293 320.477 63.6561 325.423 63.6561C329.79 63.6561 332.625 66.1724 332.625 70.1636C332.625 71.0024 332.48 72.1014 332.22 73.2872L328.489 90.814H332.335L336.24 72.5931C336.471 71.3784 336.616 70.1347 336.616 69.1224C336.616 64.0032 332.509 60.2433 326.927 60.2433C322.328 60.2433 318.771 62.5282 316.66 65.9988H316.544L317.672 60.735H313.999L307.607 90.814Z" fill="white"/>
<path d="M352.725 90.814H356.601L362.993 60.735H359.117L352.725 90.814ZM362.761 55.2398C364.15 55.2398 365.307 54.1118 365.307 52.6947C365.307 51.2775 364.15 50.1495 362.761 50.1495C361.344 50.1495 360.187 51.2775 360.187 52.6947C360.187 54.1118 361.344 55.2398 362.761 55.2398Z" fill="white"/>
<path d="M367.591 68.8621C367.591 72.7377 369.79 75.1093 375.053 76.8157L377.656 77.6834C381.908 79.0716 383.18 80.1707 383.18 82.5134C383.18 85.6948 380.115 88.1243 375.863 88.1243C371.207 88.1243 368.112 85.6659 367.591 82.0795H363.745C364.034 87.4012 368.777 91.3057 375.69 91.3057C382.284 91.3057 387.027 87.5458 387.027 82.3109C387.027 78.4064 384.858 76.1505 379.421 74.3862L376.818 73.5475C372.826 72.246 371.351 70.9156 371.351 68.544C371.351 65.5939 374.157 63.4248 378.379 63.4248C382.4 63.4248 385.321 65.8542 385.668 69.267H389.341C389.138 63.9743 384.742 60.2433 378.437 60.2433C372.017 60.2433 367.591 63.8875 367.591 68.8621Z" fill="white"/>
<path d="M415.342 88.0086C411.495 88.0086 408.863 85.9551 408.863 82.7737C408.863 79.1873 411.929 76.9892 417.309 76.7L426.274 76.2083L425.378 80.2864C424.366 84.8271 420.172 88.0086 415.342 88.0086ZM414.387 91.3057C418.437 91.3057 422.052 89.3968 424.163 86.3889H424.25L423.295 90.814H426.997L431.162 71.2048C431.307 70.4239 431.394 69.5273 431.394 68.6307C431.394 63.6561 427.316 60.2433 421.068 60.2433C414.301 60.2433 409.471 63.9743 408.516 69.3827H412.507C413.259 65.9121 416.21 63.6272 420.779 63.6272C425.089 63.6272 427.547 65.7385 427.547 69.1513C427.547 69.7298 427.518 70.3371 427.373 70.9734L426.911 73.1137L417.337 73.6343C409.528 74.0681 404.988 77.3942 404.988 83.1786C404.988 87.9507 409.095 91.3057 414.387 91.3057Z" fill="white"/>
<path d="M447.532 90.814H451.408L460.287 49.0794H456.411L447.532 90.814Z" fill="white"/>
<path d="M468.732 88.0086C464.885 88.0086 462.254 85.9551 462.254 82.7737C462.254 79.1873 465.319 76.9892 470.699 76.7L479.665 76.2083L478.768 80.2864C477.756 84.8271 473.562 88.0086 468.732 88.0086ZM467.778 91.3057C471.827 91.3057 475.442 89.3968 477.553 86.3889H477.64L476.686 90.814H480.388L484.552 71.2048C484.697 70.4239 484.784 69.5273 484.784 68.6307C484.784 63.6561 480.706 60.2433 474.459 60.2433C467.691 60.2433 462.861 63.9743 461.906 69.3827H465.898C466.65 65.9121 469.6 63.6272 474.169 63.6272C478.479 63.6272 480.937 65.7385 480.937 69.1513C480.937 69.7298 480.908 70.3371 480.764 70.9734L480.301 73.1137L470.728 73.6343C462.919 74.0681 458.378 77.3942 458.378 83.1786C458.378 87.9507 462.485 91.3057 467.778 91.3057Z" fill="white"/>
<path d="M486.751 90.814H490.597L494.502 72.5642C495.601 67.3293 499.621 63.6561 504.567 63.6561C508.934 63.6561 511.768 66.1724 511.768 70.1636C511.768 71.0024 511.624 72.1014 511.363 73.2872L507.632 90.814H511.479L515.383 72.5931C515.615 71.3784 515.759 70.1347 515.759 69.1224C515.759 64.0032 511.652 60.2433 506.071 60.2433C501.472 60.2433 497.914 62.5282 495.803 65.9988H495.687L496.815 60.735H493.142L486.751 90.814Z" fill="white"/>
<path d="M529.469 101.949C536.786 101.949 542.223 97.8132 543.901 89.9463L550.09 60.735H546.301L544.797 68.0812H544.653C543.843 63.5405 539.938 60.2433 534.761 60.2433C525.362 60.2433 519.519 69.0067 519.519 78.2618C519.519 85.8972 523.973 90.814 530.77 90.814C535.022 90.814 539.1 88.4135 541.124 84.7114H541.24L540.054 89.9753C538.695 95.6151 534.993 98.6519 529.526 98.6519C524.928 98.6519 521.833 96.396 521.486 93.3591H517.553C517.553 98.2181 522.614 101.949 529.469 101.949ZM531.58 87.4301C526.287 87.4301 523.337 83.7281 523.337 78.1461C523.337 70.1058 528.138 63.6561 534.79 63.6561C539.649 63.6561 543.178 67.3871 543.178 72.8823C543.178 80.8359 538.55 87.4301 531.58 87.4301Z" fill="white"/>
<path d="M581.181 60.735H577.364L573.459 78.9849C572.389 84.0462 568.34 87.8929 563.105 87.8929C558.622 87.8929 556.193 85.6659 556.193 81.5589C556.193 80.778 556.366 79.3609 556.597 78.2618L560.328 60.735H556.453L552.635 78.8692C552.404 80.055 552.23 81.6168 552.23 82.7158C552.23 87.5458 555.874 91.3057 561.717 91.3057C566.489 91.3057 570.364 88.7027 572.1 85.8683H572.215L571.116 90.814H574.789L581.181 60.735Z" fill="white"/>
<path d="M592.287 88.0086C588.441 88.0086 585.809 85.9551 585.809 82.7737C585.809 79.1873 588.875 76.9892 594.254 76.7L603.22 76.2083L602.323 80.2864C601.311 84.8271 597.117 88.0086 592.287 88.0086ZM591.333 91.3057C595.382 91.3057 598.997 89.3968 601.109 86.3889H601.195L600.241 90.814H603.943L608.108 71.2048C608.252 70.4239 608.339 69.5273 608.339 68.6307C608.339 63.6561 604.261 60.2433 598.014 60.2433C591.246 60.2433 586.416 63.9743 585.462 69.3827H589.453C590.205 65.9121 593.155 63.6272 597.725 63.6272C602.034 63.6272 604.492 65.7385 604.492 69.1513C604.492 69.7298 604.464 70.3371 604.319 70.9734L603.856 73.1137L594.283 73.6343C586.474 74.0681 581.933 77.3942 581.933 83.1786C581.933 87.9507 586.04 91.3057 591.333 91.3057Z" fill="white"/>
<path d="M621.961 101.949C629.279 101.949 634.716 97.8132 636.394 89.9463L642.583 60.735H638.794L637.29 68.0812H637.146C636.336 63.5405 632.431 60.2433 627.254 60.2433C617.854 60.2433 612.012 69.0067 612.012 78.2618C612.012 85.8972 616.466 90.814 623.263 90.814C627.514 90.814 631.593 88.4135 633.617 84.7114H633.733L632.547 89.9753C631.188 95.6151 627.486 98.6519 622.019 98.6519C617.421 98.6519 614.326 96.396 613.979 93.3591H610.046C610.046 98.2181 615.107 101.949 621.961 101.949ZM624.073 87.4301C618.78 87.4301 615.83 83.7281 615.83 78.1461C615.83 70.1058 620.631 63.6561 627.283 63.6561C632.142 63.6561 635.671 67.3871 635.671 72.8823C635.671 80.8359 631.043 87.4301 624.073 87.4301Z" fill="white"/>
<path d="M648.946 73.4897C650.189 67.8209 654.123 63.5983 659.473 63.5983C664.853 63.5983 667.427 67.416 667.427 72.0725C667.427 72.6509 667.427 73.0269 667.34 73.4897H648.946ZM656.581 91.3635C662.973 91.3635 668.092 87.4012 669.741 81.8482H665.952C664.477 85.608 661.18 87.9507 656.668 87.9507C651.578 87.9507 648.338 84.2776 648.338 78.3197C648.338 77.8569 648.367 77.2495 648.454 76.5843H670.984C671.216 75.3696 671.303 73.8367 671.303 72.5642C671.303 64.9576 666.791 60.2433 659.531 60.2433C650.768 60.2433 644.434 68.2837 644.434 78.4643C644.434 86.0129 648.743 91.3635 656.581 91.3635Z" fill="white"/>
<path d="M674.918 98.7965L681.483 84.856H677.434L671.679 98.7965H674.918Z" fill="white"/>
<path d="M701.758 90.814H705.604L709.509 72.5642C710.608 67.3293 714.628 63.6561 719.574 63.6561C723.941 63.6561 726.775 66.1724 726.775 70.1636C726.775 71.0024 726.631 72.1014 726.37 73.2872L722.639 90.814H726.486L730.39 72.5931C730.622 71.3784 730.766 70.1347 730.766 69.1224C730.766 64.0032 726.659 60.2433 721.078 60.2433C716.479 60.2433 712.921 62.5282 710.81 65.9988H710.694L711.822 60.735H708.149L701.758 90.814Z" fill="white"/>
<path d="M747.021 87.9218C741.786 87.9218 738.431 84.0752 738.431 78.175C738.431 69.9033 743.347 63.6272 750 63.6272C755.206 63.6272 758.561 67.4739 758.561 73.374C758.561 81.6457 753.644 87.9218 747.021 87.9218ZM750 60.2433C741.207 60.2433 734.555 68.0812 734.555 78.2907C734.555 86.1575 739.443 91.3057 747.021 91.3057C755.784 91.3057 762.436 83.4678 762.436 73.2583C762.436 65.3915 757.577 60.2433 750 60.2433Z" fill="white"/>
<path d="M773.774 90.9875C774.468 90.9875 775.654 90.9008 776.348 90.7851L777.042 87.5458C776.579 87.6037 775.711 87.6326 775.075 87.6326C772.472 87.6326 770.852 86.5625 770.852 84.2198C770.852 83.4967 770.968 82.658 771.2 81.6746L774.959 63.9454H781.438L782.103 60.735H775.625L777.273 53.0417H773.398L771.807 60.735H767.382L766.717 63.9454H771.113L767.122 82.7158C766.919 83.6702 766.803 84.509 766.803 85.2899C766.803 89.0787 769.724 90.9875 773.774 90.9875Z" fill="white"/>
<path d="M805.501 88.0086C801.654 88.0086 799.023 85.9551 799.023 82.7737C799.023 79.1873 802.088 76.9892 807.468 76.7L816.434 76.2083L815.537 80.2864C814.525 84.8271 810.331 88.0086 805.501 88.0086ZM804.547 91.3057C808.596 91.3057 812.211 89.3968 814.322 86.3889H814.409L813.455 90.814H817.157L821.322 71.2048C821.466 70.4239 821.553 69.5273 821.553 68.6307C821.553 63.6561 817.475 60.2433 811.228 60.2433C804.46 60.2433 799.63 63.9743 798.675 69.3827H802.667C803.419 65.9121 806.369 63.6272 810.938 63.6272C815.248 63.6272 817.706 65.7385 817.706 69.1513C817.706 69.7298 817.677 70.3371 817.533 70.9734L817.07 73.1137L807.497 73.6343C799.688 74.0681 795.147 77.3942 795.147 83.1786C795.147 87.9507 799.254 91.3057 804.547 91.3057Z" fill="white"/>
<path d="M841.625 68.8621C841.625 72.7377 843.823 75.1093 849.087 76.8157L851.69 77.6834C855.941 79.0716 857.214 80.1707 857.214 82.5134C857.214 85.6948 854.148 88.1243 849.897 88.1243C845.24 88.1243 842.145 85.6659 841.625 82.0795H837.778C838.067 87.4012 842.811 91.3057 849.723 91.3057C856.317 91.3057 861.06 87.5458 861.06 82.3109C861.06 78.4064 858.891 76.1505 853.454 74.3862L850.851 73.5475C846.86 72.246 845.385 70.9156 845.385 68.544C845.385 65.5939 848.19 63.4248 852.413 63.4248C856.433 63.4248 859.354 65.8542 859.701 69.267H863.374C863.172 63.9743 858.776 60.2433 852.471 60.2433C846.05 60.2433 841.625 63.8875 841.625 68.8621Z" fill="white"/>
<path d="M874.075 90.9875C874.77 90.9875 875.955 90.9008 876.65 90.7851L877.344 87.5458C876.881 87.6037 876.013 87.6326 875.377 87.6326C872.774 87.6326 871.154 86.5625 871.154 84.2198C871.154 83.4967 871.27 82.658 871.501 81.6746L875.261 63.9454H881.74L882.405 60.735H875.926L877.575 53.0417H873.699L872.109 60.735H867.684L867.018 63.9454H871.415L867.423 82.7158C867.221 83.6702 867.105 84.509 867.105 85.2899C867.105 89.0787 870.026 90.9875 874.075 90.9875Z" fill="white"/>
<path d="M881.913 101.486C885.76 101.486 888.508 100.011 891.776 94.2847L910.951 60.735H906.7L892.412 86.6492H892.296L888.305 60.735H884.487L889.491 90.8718L888.305 93.0699C886.252 96.9744 884.198 98.247 882 98.247C881.132 98.247 880.294 98.0735 879.686 97.871L879.108 101.11C879.773 101.313 880.872 101.486 881.913 101.486Z" fill="white"/>
<path d="M908.493 90.814H912.368L921.247 49.0794H917.372L908.493 90.814Z" fill="white"/>
<path d="M925.383 73.4897C926.627 67.8209 930.56 63.5983 935.911 63.5983C941.29 63.5983 943.865 67.416 943.865 72.0725C943.865 72.6509 943.864 73.0269 943.778 73.4897H925.383ZM933.019 91.3635C939.411 91.3635 944.53 87.4012 946.178 81.8482H942.389C940.914 85.608 937.617 87.9507 933.105 87.9507C928.015 87.9507 924.776 84.2776 924.776 78.3197C924.776 77.8569 924.805 77.2495 924.892 76.5843H947.422C947.653 75.3696 947.74 73.8367 947.74 72.5642C947.74 64.9576 943.228 60.2433 935.969 60.2433C927.205 60.2433 920.871 68.2837 920.871 78.4643C920.871 86.0129 925.181 91.3635 933.019 91.3635Z" fill="white"/>
<path d="M0.798828 16.814V12.6034C0.798828 11.3247 1.02641 9.96796 1.48156 8.53326C1.95242 7.08297 2.6273 5.68726 3.50623 4.34613C4.40085 2.9894 5.47596 1.81201 6.73156 0.813965L9.74502 3.24671C8.75623 4.65022 7.893 6.11611 7.15533 7.64437C6.43336 9.15704 6.07237 10.7789 6.07237 12.5099V16.814H0.798828ZM12.8526 16.814V12.6034C12.8526 11.3247 13.0802 9.96796 13.5354 8.53326C14.0062 7.08297 14.6811 5.68726 15.56 4.34613C16.4547 2.9894 17.5298 1.81201 18.7854 0.813965L21.7988 3.24671C20.81 4.65022 19.9468 6.11611 19.2091 7.64437C18.4872 9.15704 18.1262 10.7789 18.1262 12.5099V16.814H12.8526Z" fill="#585858"/>
<path d="M83.912 153.204L84.2247 135.292L80.9973 135.235L74.9661 149.273L74.8668 149.271L69.3167 135.032L66.1017 134.975L65.7891 152.887L68.3213 152.932L68.5514 139.749L68.6383 139.751L73.8226 152.891L75.8832 152.927L81.5106 139.975L81.5975 139.977L81.3674 153.159L83.912 153.204Z" fill="#C7C7C7"/>
<path d="M90.5092 151.419C89.0692 151.394 88.1389 150.633 88.1588 149.491C88.1783 148.374 89.0968 147.682 90.7 147.598L93.9184 147.456L93.9005 148.486C93.8708 150.186 92.3835 151.452 90.5092 151.419ZM89.7273 153.529C91.4403 153.559 93.1073 152.669 93.8898 151.23L93.9519 151.231L93.9144 153.378L96.4839 153.423L96.641 144.424C96.6867 141.805 94.6926 140.094 91.5273 140.038C88.2999 139.982 86.2587 141.685 86.0686 144.041L88.6008 144.085C88.857 142.922 89.8383 142.194 91.3899 142.221C93.0284 142.25 93.9938 143.136 93.9685 144.588L93.9509 145.594L90.3723 145.742C87.266 145.862 85.4913 147.234 85.4515 149.518C85.4105 151.864 87.1703 153.484 89.7273 153.529Z" fill="#C7C7C7"/>
<path d="M98.3826 144.094C98.3507 145.919 99.5209 147.168 101.869 147.781L104.193 148.392C105.552 148.764 106.041 149.232 106.026 150.063C106.008 151.118 105.003 151.771 103.39 151.743C101.751 151.715 100.795 151.003 100.606 149.745L97.9495 149.699C98.1187 152.098 100.139 153.735 103.23 153.789C106.432 153.845 108.683 152.245 108.724 149.862C108.758 147.938 107.782 146.928 105.162 146.249L102.974 145.701C101.626 145.343 100.99 144.785 101.005 143.978C101.023 142.948 102.003 142.258 103.455 142.283C104.957 142.309 105.9 143.058 106.004 144.24L108.524 144.284C108.477 141.961 106.47 140.299 103.565 140.248C100.512 140.195 98.4233 141.76 98.3826 144.094Z" fill="#C7C7C7"/>
<path d="M110.036 144.297C110.004 146.122 111.174 147.372 113.523 147.984L115.846 148.596C117.206 148.967 117.694 149.435 117.68 150.267C117.661 151.322 116.657 151.975 115.043 151.947C113.404 151.918 112.448 151.206 112.259 149.949L109.603 149.902C109.772 152.302 111.792 153.939 114.883 153.993C118.086 154.049 120.336 152.449 120.378 150.066C120.411 148.142 119.436 147.131 116.815 146.452L114.627 145.905C113.28 145.546 112.644 144.989 112.658 144.182C112.676 143.152 113.656 142.461 115.109 142.486C116.611 142.512 117.554 143.262 117.657 144.443L120.177 144.487C120.131 142.164 118.123 140.503 115.219 140.452C112.165 140.399 110.077 141.964 110.036 144.297Z" fill="#C7C7C7"/>
<path d="M121.849 153.866L124.53 153.913L124.758 140.854L122.076 140.807L121.849 153.866ZM123.45 138.919C124.319 138.934 125.026 138.264 125.041 137.42C125.056 136.563 124.373 135.868 123.504 135.853C122.647 135.838 121.94 136.509 121.925 137.365C121.911 138.209 122.594 138.904 123.45 138.919Z" fill="#C7C7C7"/>
<path d="M126.637 153.95L129.319 153.996L129.46 145.928C129.489 144.252 130.64 143.031 132.229 143.058C133.743 143.085 134.682 144.057 134.656 145.559L134.507 154.087L137.139 154.133L137.281 145.977C137.31 144.327 138.435 143.167 140.024 143.194C141.613 143.222 142.502 144.206 142.473 145.894L142.327 154.223L145.021 154.27L145.178 145.296C145.223 142.701 143.565 140.959 140.983 140.914C139.121 140.881 137.565 141.823 136.867 143.4L136.805 143.399C136.312 141.764 135.012 140.81 133.2 140.778C131.437 140.747 130.055 141.692 129.446 143.134L129.384 143.133L129.422 140.936L126.865 140.891L126.637 153.95Z" fill="#C7C7C7"/>
<path d="M152.586 154.651C156.323 154.716 158.825 152.189 158.899 147.981C158.972 143.786 156.546 141.173 152.823 141.108C149.099 141.043 146.584 143.57 146.51 147.765C146.437 151.973 148.85 154.586 152.586 154.651ZM152.625 152.441C150.527 152.405 149.191 150.717 149.241 147.813C149.292 144.921 150.686 143.281 152.784 143.318C154.882 143.354 156.218 145.042 156.168 147.934C156.117 150.838 154.735 152.478 152.625 152.441Z" fill="#C7C7C7"/>
<path d="M173.179 154.762L179.884 136.962L176.917 136.91L171.769 151.608L171.694 151.607L167.074 136.738L164.057 136.685L170.138 154.709L173.179 154.762Z" fill="#C7C7C7"/>
<path d="M180.363 154.887L183.045 154.934L183.272 141.876L180.591 141.829L180.363 154.887ZM181.965 139.941C182.834 139.956 183.541 139.285 183.556 138.441C183.571 137.585 182.888 136.89 182.019 136.875C181.162 136.86 180.455 137.53 180.44 138.387C180.426 139.231 181.109 139.926 181.965 139.941Z" fill="#C7C7C7"/>
<path d="M190.751 152.896C188.691 152.86 187.379 151.173 187.427 148.442C187.474 145.724 188.845 144.022 190.905 144.058C193.003 144.094 194.35 145.881 194.304 148.562C194.257 151.256 192.849 152.932 190.751 152.896ZM190.652 159.984C194.376 160.049 196.82 158.055 196.874 154.94L197.098 142.117L194.491 142.071L194.452 144.306L194.403 144.305C193.635 142.777 192.137 141.819 190.287 141.787C186.936 141.728 184.755 144.273 184.684 148.382C184.613 152.453 186.715 155.048 189.992 155.105C191.854 155.138 193.41 154.233 194.167 152.831L194.217 152.832L194.179 154.979C194.148 156.767 192.886 157.937 190.788 157.9C189.261 157.874 188.082 157.133 187.716 156.034L185.023 155.987C185.318 158.252 187.574 159.93 190.652 159.984Z" fill="#C7C7C7"/>
<path d="M198.891 155.211L201.572 155.257L201.705 147.648C201.74 145.625 202.98 144.306 204.867 144.339C206.729 144.371 207.629 145.467 207.594 147.428L207.456 155.36L210.15 155.407L210.297 146.954C210.349 143.962 208.73 142.097 205.851 142.046C203.84 142.011 202.433 142.905 201.7 144.383L201.638 144.382L201.676 142.197L199.119 142.152L198.891 155.211Z" fill="#C7C7C7"/>
<path d="M217.764 144.402C219.639 144.435 220.88 145.86 220.908 147.859L214.378 147.745C214.549 145.774 215.89 144.37 217.764 144.402ZM220.827 151.757C220.447 152.893 219.304 153.642 217.777 153.616C215.63 153.578 214.291 152.052 214.33 149.781L214.333 149.62L223.556 149.781L223.572 148.862C223.641 144.902 221.427 142.306 217.802 142.242C214.115 142.178 211.709 144.868 211.638 148.964C211.566 153.085 213.842 155.72 217.677 155.787C220.669 155.839 222.958 154.178 223.372 151.801L220.827 151.757Z" fill="#C7C7C7"/>
<path d="M225.003 155.666L227.684 155.713L227.997 137.801L225.316 137.755L225.003 155.666Z" fill="#C7C7C7"/>
<path d="M229.904 155.752L232.585 155.799L232.897 137.887L230.216 137.84L229.904 155.752Z" fill="#C7C7C7"/>
<path d="M234.792 155.837L237.473 155.884L237.701 142.826L235.02 142.779L234.792 155.837ZM236.394 140.891C237.263 140.906 237.97 140.235 237.984 139.391C237.999 138.535 237.316 137.84 236.447 137.825C235.591 137.81 234.884 138.48 234.869 139.337C234.854 140.181 235.537 140.876 236.394 140.891Z" fill="#C7C7C7"/>
<path d="M24.3538 140.162L57.3487 140.738L57.3138 142.738L24.3188 142.162L24.3538 140.162Z" fill="#D9D9D9"/>
</svg>
