<svg width="470" height="66" viewBox="0 0 470 66" fill="none" xmlns="http://www.w3.org/2000/svg">
<path d="M0 11.6028V0.373511H2.11752V11.6028H0Z" fill="#979797"/>
<path d="M3.8929 11.6028V3.64605H5.88209V4.68877H6.17084C6.29918 4.41071 6.5398 4.14869 6.89272 3.90272C7.24565 3.64605 7.78037 3.51771 8.49691 3.51771C9.11719 3.51771 9.65727 3.66209 10.1171 3.95084C10.5877 4.2289 10.9513 4.61925 11.208 5.12189C11.4646 5.61384 11.593 6.19135 11.593 6.85441V11.6028H9.57171V7.01483C9.57171 6.41594 9.42199 5.96676 9.12254 5.66732C8.83379 5.36787 8.4167 5.21815 7.87128 5.21815C7.25099 5.21815 6.76974 5.42669 6.42751 5.84378C6.08529 6.25017 5.91417 6.82233 5.91417 7.56025V11.6028H3.8929Z" fill="#979797"/>
<path d="M16.2056 11.6028C15.6816 11.6028 15.2538 11.4424 14.9223 11.1215C14.6015 10.79 14.441 10.3515 14.441 9.80611V5.3144H12.4518V3.64605H14.441V1.1756H16.4623V3.64605H18.644V5.3144H16.4623V9.45319C16.4623 9.77403 16.612 9.93445 16.9115 9.93445H18.4515V11.6028H16.2056Z" fill="#979797"/>
<path d="M20.0726 11.6028V3.64605H22.0618V4.54439H22.3505C22.4682 4.22355 22.6607 3.98827 22.928 3.83855C23.2061 3.68882 23.5269 3.61396 23.8906 3.61396H24.8531V5.41065H23.8585C23.3451 5.41065 22.9227 5.54968 22.5912 5.82774C22.2596 6.0951 22.0939 6.51219 22.0939 7.079V11.6028H20.0726Z" fill="#979797"/>
<path d="M29.5358 11.8274C28.7444 11.8274 28.0332 11.667 27.4022 11.3461C26.7712 11.0253 26.2739 10.5601 25.9103 9.95049C25.5467 9.3409 25.3649 8.60832 25.3649 7.75276V7.49609C25.3649 6.64052 25.5467 5.90794 25.9103 5.29836C26.2739 4.68877 26.7712 4.22355 27.4022 3.90272C28.0332 3.58188 28.7444 3.42146 29.5358 3.42146C30.3272 3.42146 31.0384 3.58188 31.6693 3.90272C32.3003 4.22355 32.7976 4.68877 33.1612 5.29836C33.5248 5.90794 33.7066 6.64052 33.7066 7.49609V7.75276C33.7066 8.60832 33.5248 9.3409 33.1612 9.95049C32.7976 10.5601 32.3003 11.0253 31.6693 11.3461C31.0384 11.667 30.3272 11.8274 29.5358 11.8274ZM29.5358 10.0307C30.1561 10.0307 30.6694 9.83285 31.0758 9.43715C31.4822 9.03075 31.6854 8.45325 31.6854 7.70463V7.54421C31.6854 6.79559 31.4822 6.22343 31.0758 5.82774C30.6801 5.42134 30.1668 5.21815 29.5358 5.21815C28.9155 5.21815 28.4022 5.42134 27.9958 5.82774C27.5894 6.22343 27.3862 6.79559 27.3862 7.54421V7.70463C27.3862 8.45325 27.5894 9.03075 27.9958 9.43715C28.4022 9.83285 28.9155 10.0307 29.5358 10.0307Z" fill="#979797"/>
<path d="M38.3797 11.8274C37.7487 11.8274 37.1552 11.6723 36.5991 11.3622C36.0536 11.0413 35.6152 10.5761 35.2836 9.96653C34.9521 9.35694 34.7863 8.61901 34.7863 7.75276V7.49609C34.7863 6.62983 34.9521 5.8919 35.2836 5.28231C35.6152 4.67272 36.0536 4.21286 36.5991 3.90272C37.1445 3.58188 37.738 3.42146 38.3797 3.42146C38.861 3.42146 39.262 3.48028 39.5829 3.59792C39.9144 3.70487 40.1817 3.8439 40.3849 4.01501C40.5881 4.18612 40.7432 4.36793 40.8502 4.56043H41.1389V0.373511H43.1602V11.6028H41.171V10.6403H40.8822C40.7004 10.9397 40.417 11.2124 40.032 11.4584C39.6577 11.7044 39.1069 11.8274 38.3797 11.8274ZM38.9893 10.0628C39.6096 10.0628 40.1283 9.86493 40.5454 9.46923C40.9624 9.06284 41.171 8.47464 41.171 7.70463V7.54421C41.171 6.7742 40.9624 6.19135 40.5454 5.79565C40.139 5.38926 39.6203 5.18606 38.9893 5.18606C38.369 5.18606 37.8503 5.38926 37.4332 5.79565C37.0162 6.19135 36.8076 6.7742 36.8076 7.54421V7.70463C36.8076 8.47464 37.0162 9.06284 37.4332 9.46923C37.8503 9.86493 38.369 10.0628 38.9893 10.0628Z" fill="#979797"/>
<path d="M48.032 11.7311C47.4117 11.7311 46.8663 11.5921 46.3957 11.314C45.9359 11.0253 45.5776 10.6296 45.3209 10.1269C45.0643 9.6243 44.9359 9.0468 44.9359 8.39443V3.64605H46.9572V8.23401C46.9572 8.83291 47.1016 9.28208 47.3903 9.58152C47.6898 9.88097 48.1122 10.0307 48.6576 10.0307C49.2779 10.0307 49.7592 9.8275 50.1014 9.42111C50.4436 9.00402 50.6147 8.42651 50.6147 7.68859V3.64605H52.636V11.6028H50.6468V10.5601H50.3581C50.2297 10.8274 49.9891 11.0895 49.6362 11.3461C49.2833 11.6028 48.7485 11.7311 48.032 11.7311Z" fill="#979797"/>
<path d="M58.222 11.8274C57.4519 11.8274 56.7515 11.667 56.1205 11.3461C55.5002 11.0253 55.0082 10.5601 54.6446 9.95049C54.281 9.3409 54.0992 8.60297 54.0992 7.73671V7.51213C54.0992 6.64587 54.281 5.90794 54.6446 5.29836C55.0082 4.68877 55.5002 4.22355 56.1205 3.90272C56.7515 3.58188 57.4519 3.42146 58.222 3.42146C58.9813 3.42146 59.6336 3.55514 60.1791 3.82251C60.7245 4.08987 61.163 4.45883 61.4945 4.92939C61.8367 5.38926 62.0613 5.91329 62.1682 6.50149L60.2111 6.91858C60.1684 6.59774 60.0721 6.30899 59.9224 6.05232C59.7727 5.79565 59.5588 5.59246 59.2807 5.44273C59.0134 5.29301 58.6765 5.21815 58.2701 5.21815C57.8637 5.21815 57.4947 5.30905 57.1632 5.49086C56.8424 5.66197 56.5857 5.92399 56.3932 6.27691C56.2114 6.61913 56.1205 7.04157 56.1205 7.54421V7.70463C56.1205 8.20727 56.2114 8.63506 56.3932 8.98798C56.5857 9.3302 56.8424 9.59222 57.1632 9.77403C57.4947 9.94514 57.8637 10.0307 58.2701 10.0307C58.8797 10.0307 59.3395 9.87563 59.6497 9.56548C59.9705 9.24465 60.1737 8.82756 60.2593 8.31422L62.2164 8.77943C62.0773 9.34624 61.8367 9.86493 61.4945 10.3355C61.163 10.7954 60.7245 11.159 60.1791 11.4263C59.6336 11.6937 58.9813 11.8274 58.222 11.8274Z" fill="#979797"/>
<path d="M66.2643 11.6028C65.7403 11.6028 65.3125 11.4424 64.981 11.1215C64.6601 10.79 64.4997 10.3515 64.4997 9.80611V5.3144H62.5105V3.64605H64.4997V1.1756H66.521V3.64605H68.7027V5.3144H66.521V9.45319C66.521 9.77403 66.6707 9.93445 66.9701 9.93445H68.5102V11.6028H66.2643Z" fill="#979797"/>
<path d="M70.1313 11.6028V3.64605H72.1525V11.6028H70.1313ZM71.1419 2.71562C70.7783 2.71562 70.4681 2.59798 70.2115 2.3627C69.9655 2.12742 69.8425 1.81728 69.8425 1.43227C69.8425 1.04727 69.9655 0.737127 70.2115 0.501846C70.4681 0.266566 70.7783 0.148926 71.1419 0.148926C71.5162 0.148926 71.8263 0.266566 72.0723 0.501846C72.3183 0.737127 72.4413 1.04727 72.4413 1.43227C72.4413 1.81728 72.3183 2.12742 72.0723 2.3627C71.8263 2.59798 71.5162 2.71562 71.1419 2.71562Z" fill="#979797"/>
<path d="M77.7772 11.8274C76.9858 11.8274 76.2746 11.667 75.6436 11.3461C75.0127 11.0253 74.5154 10.5601 74.1517 9.95049C73.7881 9.3409 73.6063 8.60832 73.6063 7.75276V7.49609C73.6063 6.64052 73.7881 5.90794 74.1517 5.29836C74.5154 4.68877 75.0127 4.22355 75.6436 3.90272C76.2746 3.58188 76.9858 3.42146 77.7772 3.42146C78.5686 3.42146 79.2798 3.58188 79.9108 3.90272C80.5417 4.22355 81.039 4.68877 81.4027 5.29836C81.7663 5.90794 81.9481 6.64052 81.9481 7.49609V7.75276C81.9481 8.60832 81.7663 9.3409 81.4027 9.95049C81.039 10.5601 80.5417 11.0253 79.9108 11.3461C79.2798 11.667 78.5686 11.8274 77.7772 11.8274ZM77.7772 10.0307C78.3975 10.0307 78.9108 9.83285 79.3172 9.43715C79.7236 9.03075 79.9268 8.45325 79.9268 7.70463V7.54421C79.9268 6.79559 79.7236 6.22343 79.3172 5.82774C78.9215 5.42134 78.4082 5.21815 77.7772 5.21815C77.1569 5.21815 76.6436 5.42134 76.2372 5.82774C75.8308 6.22343 75.6276 6.79559 75.6276 7.54421V7.70463C75.6276 8.45325 75.8308 9.03075 76.2372 9.43715C76.6436 9.83285 77.1569 10.0307 77.7772 10.0307Z" fill="#979797"/>
<path d="M83.4128 11.6028V3.64605H85.402V4.68877H85.6907C85.819 4.41071 86.0597 4.14869 86.4126 3.90272C86.7655 3.64605 87.3002 3.51771 88.0168 3.51771C88.6371 3.51771 89.1771 3.66209 89.637 3.95084C90.1076 4.2289 90.4712 4.61925 90.7278 5.12189C90.9845 5.61384 91.1128 6.19135 91.1128 6.85441V11.6028H89.0916V7.01483C89.0916 6.41594 88.9419 5.96676 88.6424 5.66732C88.3537 5.36787 87.9366 5.21815 87.3911 5.21815C86.7709 5.21815 86.2896 5.42669 85.9474 5.84378C85.6052 6.25017 85.434 6.82233 85.434 7.56025V11.6028H83.4128Z" fill="#979797"/>
<path d="M2.07336 59.6028V29.5687H6.70719V42.4405H19.3215V29.5687H23.9553V59.6028H19.3215V46.6452H6.70719V59.6028H2.07336Z" fill="white"/>
<path d="M38.9831 60.2035C36.8378 60.2035 34.9642 59.7601 33.3624 58.8734C31.7606 57.9581 30.502 56.6852 29.5867 55.0548C28.7 53.3958 28.2566 51.4793 28.2566 49.3054V48.7905C28.2566 46.588 28.7 44.6716 29.5867 43.0412C30.4734 41.3821 31.7034 40.1093 33.2766 39.2225C34.8784 38.3072 36.7234 37.8496 38.8114 37.8496C40.8423 37.8496 42.6158 38.3072 44.1318 39.2225C45.6764 40.1093 46.8777 41.3535 47.7358 42.9553C48.594 44.5572 49.023 46.4307 49.023 48.576V50.2493H32.7617C32.8189 52.1086 33.4339 53.596 34.6067 54.7115C35.808 55.7985 37.2954 56.342 39.0689 56.342C40.7279 56.342 41.9722 55.9701 42.8017 55.2264C43.6598 54.4827 44.3177 53.6246 44.7753 52.6521L48.4223 54.5399C48.0219 55.3408 47.4355 56.1846 46.6632 57.0714C45.9195 57.9581 44.9327 58.7018 43.7027 59.3025C42.4727 59.9031 40.8995 60.2035 38.9831 60.2035ZM32.8046 46.8598H44.5179C44.4035 45.258 43.8314 44.0137 42.8017 43.127C41.7719 42.2116 40.4276 41.754 38.7685 41.754C37.1095 41.754 35.7508 42.2116 34.6925 43.127C33.6627 44.0137 33.0335 45.258 32.8046 46.8598Z" fill="white"/>
<path d="M53.27 59.6028V29.5687H57.6893V59.6028H53.27Z" fill="white"/>
<path d="M63.1752 59.6028V29.5687H67.5945V59.6028H63.1752Z" fill="white"/>
<path d="M82.9917 60.2035C80.875 60.2035 78.9871 59.7744 77.3281 58.9163C75.6977 58.0296 74.4105 56.771 73.4666 55.1406C72.5227 53.5102 72.0507 51.5794 72.0507 49.3483V48.7047C72.0507 46.4736 72.5227 44.5572 73.4666 42.9553C74.4105 41.3249 75.6977 40.0664 77.3281 39.1796C78.9871 38.2929 80.875 37.8496 82.9917 37.8496C85.1084 37.8496 86.9962 38.2929 88.6552 39.1796C90.3143 40.0664 91.6157 41.3249 92.5597 42.9553C93.5036 44.5572 93.9755 46.4736 93.9755 48.7047V49.3483C93.9755 51.5794 93.5036 53.5102 92.5597 55.1406C91.6157 56.771 90.3143 58.0296 88.6552 58.9163C86.9962 59.7744 85.1084 60.2035 82.9917 60.2035ZM82.9917 56.2561C84.9367 56.2561 86.5099 55.6412 87.7113 54.4112C88.9413 53.1526 89.5563 51.4221 89.5563 49.2196V48.8334C89.5563 46.6309 88.9556 44.9147 87.7542 43.6847C86.5528 42.4262 84.9653 41.7969 82.9917 41.7969C81.0752 41.7969 79.502 42.4262 78.272 43.6847C77.0707 44.9147 76.47 46.6309 76.47 48.8334V49.2196C76.47 51.4221 77.0707 53.1526 78.272 54.4112C79.502 55.6412 81.0752 56.2561 82.9917 56.2561Z" fill="white"/>
<path d="M98.7911 50.6355V29.5687H103.296V50.6355H98.7911ZM101.065 60.2035C100.064 60.2035 99.2201 59.8745 98.5336 59.2166C97.8757 58.5588 97.5468 57.7149 97.5468 56.6852C97.5468 55.6555 97.8757 54.826 98.5336 54.1967C99.2201 53.5388 100.064 53.2098 101.065 53.2098C102.066 53.2098 102.896 53.5388 103.554 54.1967C104.24 54.8546 104.583 55.6841 104.583 56.6852C104.583 57.7149 104.24 58.5588 103.554 59.2166C102.896 59.8745 102.066 60.2035 101.065 60.2035Z" fill="white"/>
<path d="M109.233 65.438V62.9065H110.692C111.864 62.9065 112.451 62.3202 112.451 61.1474V59.7744H111.807C110.806 59.7744 109.977 59.4741 109.319 58.8734C108.661 58.2727 108.332 57.5147 108.332 56.5994C108.332 55.5983 108.661 54.7973 109.319 54.1967C109.977 53.5674 110.806 53.2527 111.807 53.2527C112.808 53.2527 113.624 53.5817 114.253 54.2396C114.911 54.8689 115.24 55.6984 115.24 56.7281V61.1903C115.24 64.0221 113.824 65.438 110.992 65.438H109.233Z" fill="white"/>
<path d="M128.243 59.6028V29.5687H132.877V59.6028H128.243Z" fill="white"/>
<path d="M138.236 41.1533V38.6219H139.695C140.868 38.6219 141.454 38.0355 141.454 36.8627V35.4897H140.811C139.809 35.4897 138.98 35.1894 138.322 34.5887C137.664 33.988 137.335 33.23 137.335 32.3147C137.335 31.3136 137.664 30.5127 138.322 29.912C138.98 29.2827 139.809 28.9681 140.811 28.9681C141.812 28.9681 142.627 29.297 143.256 29.9549C143.914 30.5842 144.243 31.4137 144.243 32.4434V36.9056C144.243 39.7374 142.827 41.1533 139.995 41.1533H138.236Z" fill="white"/>
<path d="M148.853 59.6028V38.4502H153.186V40.9388H153.873C154.273 40.1951 154.917 39.5372 155.803 38.9651C156.69 38.393 157.892 38.107 159.408 38.107C160.981 38.107 162.239 38.4359 163.183 39.0938C164.156 39.7231 164.885 40.5383 165.371 41.5395H166.058C166.544 40.5669 167.245 39.7517 168.16 39.0938C169.104 38.4359 170.434 38.107 172.151 38.107C173.524 38.107 174.739 38.393 175.798 38.9651C176.856 39.5086 177.7 40.3381 178.329 41.4536C178.958 42.5406 179.273 43.8993 179.273 45.5297V59.6028H174.854V45.8729C174.854 44.5858 174.496 43.5989 173.781 42.9124C173.094 42.1973 172.108 41.8398 170.82 41.8398C169.448 41.8398 168.346 42.2832 167.517 43.1699C166.687 44.0566 166.272 45.3295 166.272 46.9885V59.6028H161.853V45.8729C161.853 44.5858 161.496 43.5989 160.781 42.9124C160.094 42.1973 159.107 41.8398 157.82 41.8398C156.447 41.8398 155.346 42.2832 154.516 43.1699C153.687 44.0566 153.272 45.3295 153.272 46.9885V59.6028H148.853Z" fill="white"/>
<path d="M194.003 59.6028V29.5687H204.515L209.706 55.7413H210.479L215.67 29.5687H226.182V59.6028H220.69V33.7306H219.918L214.769 59.6028H205.416L200.267 33.7306H199.495V59.6028H194.003Z" fill="white"/>
<path d="M237.545 60.2035C236.029 60.2035 234.67 59.946 233.469 59.4312C232.268 58.8877 231.309 58.1154 230.594 57.1143C229.908 56.0845 229.565 54.8403 229.565 53.3815C229.565 51.9227 229.908 50.707 230.594 49.7345C231.309 48.7333 232.282 47.9896 233.512 47.5034C234.77 46.9885 236.201 46.7311 237.802 46.7311H243.638V45.5297C243.638 44.5286 243.323 43.7134 242.694 43.0841C242.064 42.4262 241.063 42.0972 239.69 42.0972C238.346 42.0972 237.345 42.4119 236.687 43.0412C236.029 43.6418 235.6 44.4284 235.4 45.401L230.423 43.7277C230.766 42.6407 231.309 41.6539 232.053 40.7672C232.825 39.8518 233.841 39.1224 235.099 38.579C236.387 38.0069 237.945 37.7208 239.776 37.7208C242.579 37.7208 244.796 38.4216 246.427 39.8232C248.057 41.2248 248.872 43.2557 248.872 45.9158V53.8534C248.872 54.7115 249.273 55.1406 250.074 55.1406H251.79V59.6028H248.186C247.127 59.6028 246.255 59.3454 245.568 58.8305C244.882 58.3156 244.539 57.6291 244.539 56.771V56.7281H243.723C243.609 57.0714 243.352 57.529 242.951 58.1011C242.551 58.6446 241.921 59.1308 241.063 59.5599C240.205 59.9889 239.032 60.2035 237.545 60.2035ZM238.489 55.8271C240.005 55.8271 241.235 55.4123 242.179 54.5828C243.151 53.7247 243.638 52.5948 243.638 51.1933V50.7642H238.189C237.187 50.7642 236.401 50.9787 235.829 51.4078C235.257 51.8368 234.971 52.4375 234.971 53.2098C234.971 53.9821 235.271 54.6114 235.872 55.0977C236.472 55.584 237.345 55.8271 238.489 55.8271Z" fill="white"/>
<path d="M254.67 59.6028V38.3215H259.99V41.1104H260.762C261.106 40.3667 261.749 39.6659 262.693 39.008C263.637 38.3215 265.067 37.9783 266.984 37.9783C268.643 37.9783 270.087 38.3644 271.317 39.1367C272.576 39.8804 273.548 40.9245 274.235 42.2689C274.921 43.5846 275.265 45.1292 275.265 46.9027V59.6028H269.858V47.3317C269.858 45.7299 269.458 44.5286 268.657 43.7277C267.885 42.9267 266.769 42.5263 265.31 42.5263C263.651 42.5263 262.364 43.0841 261.449 44.1996C260.534 45.2866 260.076 46.8169 260.076 48.7905V59.6028H254.67Z" fill="white"/>
<path d="M280.036 59.6028V38.3215H285.442V59.6028H280.036ZM282.739 35.833C281.767 35.833 280.937 35.5183 280.251 34.8891C279.593 34.2598 279.264 33.4303 279.264 32.4005C279.264 31.3708 279.593 30.5413 280.251 29.912C280.937 29.2827 281.767 28.9681 282.739 28.9681C283.74 28.9681 284.57 29.2827 285.228 29.912C285.886 30.5413 286.215 31.3708 286.215 32.4005C286.215 33.4303 285.886 34.2598 285.228 34.8891C284.57 35.5183 283.74 35.833 282.739 35.833Z" fill="white"/>
<path d="M290.36 59.6028V29.5687H295.766V46.1733H296.539L303.575 38.3215H310.612L300.786 48.6189L310.955 59.6028H304.004L296.539 51.1504H295.766V59.6028H290.36Z" fill="white"/>
<path d="M333.582 60.2035C331.265 60.2035 329.22 59.7887 327.446 58.9592C325.673 58.1297 324.286 56.9426 323.285 55.398C322.283 53.8534 321.783 51.9942 321.783 49.8203V48.6189H327.361V49.8203C327.361 51.6223 327.918 52.981 329.034 53.8963C330.149 54.783 331.665 55.2264 333.582 55.2264C335.527 55.2264 336.971 54.8403 337.915 54.0679C338.888 53.2956 339.374 52.3088 339.374 51.1074C339.374 50.2779 339.131 49.6057 338.645 49.0909C338.187 48.576 337.501 48.1612 336.585 47.8466C335.699 47.5034 334.612 47.1887 333.324 46.9027L332.338 46.6882C330.278 46.2305 328.505 45.6584 327.017 44.9719C325.559 44.2568 324.429 43.3272 323.628 42.183C322.855 41.0389 322.469 39.5515 322.469 37.7208C322.469 35.8902 322.898 34.3313 323.756 33.0441C324.643 31.7283 325.873 30.7272 327.446 30.0407C329.048 29.3256 330.922 28.9681 333.067 28.9681C335.212 28.9681 337.114 29.3399 338.773 30.0836C340.461 30.7987 341.777 31.8857 342.721 33.3445C343.693 34.7746 344.18 36.5767 344.18 38.7506V40.0378H338.602V38.7506C338.602 37.6064 338.373 36.6911 337.915 36.0046C337.486 35.2895 336.857 34.7746 336.028 34.46C335.198 34.1168 334.211 33.9451 333.067 33.9451C331.351 33.9451 330.078 34.2741 329.248 34.932C328.448 35.5613 328.047 36.4337 328.047 37.5492C328.047 38.2929 328.233 38.9222 328.605 39.4371C329.005 39.9519 329.592 40.381 330.364 40.7242C331.136 41.0675 332.123 41.3678 333.324 41.6253L334.311 41.8398C336.457 42.2975 338.316 42.8838 339.889 43.5989C341.491 44.314 342.735 45.258 343.622 46.4307C344.509 47.6035 344.952 49.1052 344.952 50.9358C344.952 52.7665 344.48 54.3826 343.536 55.7842C342.621 57.1572 341.305 58.2441 339.589 59.045C337.901 59.8173 335.899 60.2035 333.582 60.2035Z" fill="white"/>
<path d="M348.275 59.6028V29.5687H353.681V40.9388H354.453C354.682 40.4811 355.04 40.0235 355.526 39.5658C356.012 39.1081 356.656 38.7363 357.457 38.4502C358.286 38.1356 359.33 37.9783 360.589 37.9783C362.248 37.9783 363.692 38.3644 364.922 39.1367C366.181 39.8804 367.153 40.9245 367.84 42.2689C368.526 43.5846 368.87 45.1292 368.87 46.9027V59.6028H363.463V47.3317C363.463 45.7299 363.063 44.5286 362.262 43.7277C361.49 42.9267 360.374 42.5263 358.915 42.5263C357.256 42.5263 355.969 43.0841 355.054 44.1996C354.139 45.2866 353.681 46.8169 353.681 48.7905V59.6028H348.275Z" fill="white"/>
<path d="M380.249 60.2035C378.733 60.2035 377.374 59.946 376.173 59.4312C374.971 58.8877 374.013 58.1154 373.298 57.1143C372.611 56.0845 372.268 54.8403 372.268 53.3815C372.268 51.9227 372.611 50.707 373.298 49.7345C374.013 48.7333 374.986 47.9896 376.216 47.5034C377.474 46.9885 378.904 46.7311 380.506 46.7311H386.341V45.5297C386.341 44.5286 386.027 43.7134 385.397 43.0841C384.768 42.4262 383.767 42.0972 382.394 42.0972C381.05 42.0972 380.048 42.4119 379.391 43.0412C378.733 43.6418 378.304 44.4284 378.103 45.401L373.126 43.7277C373.47 42.6407 374.013 41.6539 374.757 40.7672C375.529 39.8518 376.544 39.1224 377.803 38.579C379.09 38.0069 380.649 37.7208 382.48 37.7208C385.283 37.7208 387.5 38.4216 389.13 39.8232C390.761 41.2248 391.576 43.2557 391.576 45.9158V53.8534C391.576 54.7115 391.976 55.1406 392.777 55.1406H394.493V59.6028H390.889C389.831 59.6028 388.959 59.3454 388.272 58.8305C387.586 58.3156 387.242 57.6291 387.242 56.771V56.7281H386.427C386.313 57.0714 386.055 57.529 385.655 58.1011C385.254 58.6446 384.625 59.1308 383.767 59.5599C382.909 59.9889 381.736 60.2035 380.249 60.2035ZM381.193 55.8271C382.709 55.8271 383.939 55.4123 384.883 54.5828C385.855 53.7247 386.341 52.5948 386.341 51.1933V50.7642H380.892C379.891 50.7642 379.105 50.9787 378.532 51.4078C377.96 51.8368 377.674 52.4375 377.674 53.2098C377.674 53.9821 377.975 54.6114 378.575 55.0977C379.176 55.584 380.048 55.8271 381.193 55.8271Z" fill="white"/>
<path d="M397.373 59.6028V38.3215H402.694V40.7242H403.466C403.781 39.8661 404.296 39.2368 405.011 38.8364C405.754 38.4359 406.612 38.2357 407.585 38.2357H410.159V43.0412H407.499C406.126 43.0412 404.996 43.413 404.11 44.1567C403.223 44.8718 402.78 45.9874 402.78 47.5034V59.6028H397.373Z" fill="white"/>
<path d="M413.312 59.6028V38.3215H418.633V40.6384H419.405C419.777 39.9233 420.392 39.3084 421.25 38.7935C422.108 38.25 423.238 37.9783 424.639 37.9783C426.155 37.9783 427.371 38.2786 428.286 38.8793C429.202 39.4514 429.902 40.2094 430.389 41.1533H431.161C431.647 40.238 432.334 39.48 433.221 38.8793C434.107 38.2786 435.366 37.9783 436.996 37.9783C438.312 37.9783 439.499 38.2643 440.557 38.8364C441.644 39.3799 442.502 40.2237 443.132 41.3678C443.79 42.4834 444.119 43.8993 444.119 45.6155V59.6028H438.712V46.0017C438.712 44.8289 438.412 43.9565 437.811 43.3844C437.211 42.7837 436.367 42.4834 435.28 42.4834C434.05 42.4834 433.092 42.8838 432.405 43.6847C431.747 44.4571 431.418 45.5726 431.418 47.0314V59.6028H426.012V46.0017C426.012 44.8289 425.712 43.9565 425.111 43.3844C424.511 42.7837 423.667 42.4834 422.58 42.4834C421.35 42.4834 420.392 42.8838 419.705 43.6847C419.047 44.4571 418.718 45.5726 418.718 47.0314V59.6028H413.312Z" fill="white"/>
<path d="M455.468 60.2035C453.952 60.2035 452.593 59.946 451.392 59.4312C450.19 58.8877 449.232 58.1154 448.517 57.1143C447.831 56.0845 447.487 54.8403 447.487 53.3815C447.487 51.9227 447.831 50.707 448.517 49.7345C449.232 48.7333 450.205 47.9896 451.435 47.5034C452.693 46.9885 454.123 46.7311 455.725 46.7311H461.56V45.5297C461.56 44.5286 461.246 43.7134 460.617 43.0841C459.987 42.4262 458.986 42.0972 457.613 42.0972C456.269 42.0972 455.268 42.4119 454.61 43.0412C453.952 43.6418 453.523 44.4284 453.323 45.401L448.346 43.7277C448.689 42.6407 449.232 41.6539 449.976 40.7672C450.748 39.8518 451.764 39.1224 453.022 38.579C454.309 38.0069 455.868 37.7208 457.699 37.7208C460.502 37.7208 462.719 38.4216 464.349 39.8232C465.98 41.2248 466.795 43.2557 466.795 45.9158V53.8534C466.795 54.7115 467.195 55.1406 467.996 55.1406H469.713V59.6028H466.109C465.05 59.6028 464.178 59.3454 463.491 58.8305C462.805 58.3156 462.462 57.6291 462.462 56.771V56.7281H461.646C461.532 57.0714 461.274 57.529 460.874 58.1011C460.474 58.6446 459.844 59.1308 458.986 59.5599C458.128 59.9889 456.955 60.2035 455.468 60.2035ZM456.412 55.8271C457.928 55.8271 459.158 55.4123 460.102 54.5828C461.074 53.7247 461.56 52.5948 461.56 51.1933V50.7642H456.111C455.11 50.7642 454.324 50.9787 453.752 51.4078C453.18 51.8368 452.894 52.4375 452.894 53.2098C452.894 53.9821 453.194 54.6114 453.795 55.0977C454.395 55.584 455.268 55.8271 456.412 55.8271Z" fill="white"/>
</svg>
