<svg width="17" height="19" viewBox="0 0 17 19" fill="none" xmlns="http://www.w3.org/2000/svg">
<path d="M3.33053 1.49219V18.2285C3.33053 18.3887 3.25846 18.4688 3.11592 18.4688H0.34201C0.197869 18.4688 0.127401 18.3887 0.127401 18.2285V1.49219C0.123084 1.46301 0.125658 1.43323 0.134916 1.40522C0.144174 1.37721 0.15986 1.35176 0.180719 1.3309C0.201577 1.31004 0.227028 1.29436 0.255036 1.2851C0.283043 1.27584 0.312829 1.27327 0.34201 1.27759H3.14314C3.26807 1.27759 3.33053 1.34966 3.33053 1.49219ZM11.633 18.7891C9.77361 18.7891 8.34342 18.2622 7.23193 17.2099C6.12045 16.1577 5.56311 14.6026 5.56311 12.543C5.56311 10.6713 6.16049 9.13378 7.35525 7.93048C7.96703 7.29822 8.70227 6.79851 9.51531 6.46239C10.3284 6.12626 11.2018 5.9609 12.0815 5.97657C12.4749 5.96957 12.8676 6.01153 13.2506 6.10149V0.681805C13.2477 0.661501 13.2496 0.640803 13.256 0.621331C13.2624 0.601858 13.2733 0.584138 13.2877 0.569559C13.3021 0.55498 13.3197 0.543936 13.3391 0.537291C13.3585 0.530646 13.3792 0.528581 13.3996 0.531257H16.3288C16.4121 0.531257 16.4537 0.580906 16.4537 0.681805V15.8566C16.4537 16.4972 16.7308 17.0434 16.774 17.511C16.7829 17.5573 16.7752 17.6053 16.7524 17.6465C16.7296 17.6878 16.693 17.7197 16.6491 17.7368C15.2109 18.4383 13.3259 18.7891 11.633 18.7891ZM13.2506 16.3082V8.56149C13.1465 8.37891 12.5956 8.21876 12.0318 8.21876C11.565 8.20676 11.1014 8.29901 10.6747 8.48879C10.2481 8.67858 9.8691 8.96111 9.56541 9.31583C8.82674 10.181 8.42823 11.2854 8.44432 12.4229C8.44432 13.8258 8.92479 14.7868 9.5526 15.4546C9.849 15.7948 10.2143 16.0681 10.6243 16.2564C11.0344 16.4447 11.4797 16.5437 11.9309 16.5469C12.5299 16.5469 13.1145 16.4572 13.2506 16.3082Z" fill="#FF3366"/>
</svg>
