<svg width="41" height="41" viewBox="0 0 41 41" fill="none" xmlns="http://www.w3.org/2000/svg">
<g clip-path="url(#clip0_372_174)">
<path fill-rule="evenodd" clip-rule="evenodd" d="M39.5672 18.7251L22.1535 1.31279C21.1514 0.309799 19.5248 0.309799 18.5214 1.31279L14.9055 4.92873L19.4925 9.51571C20.5585 9.15556 21.7807 9.39712 22.6305 10.2469C23.4843 11.102 23.7241 12.3348 23.3552 13.4043L27.7759 17.825C28.8454 17.4565 30.0795 17.695 30.9337 18.5505C32.1274 19.7439 32.1274 21.6781 30.9337 22.8723C29.7394 24.0665 27.8052 24.0665 26.6106 22.8723C25.7126 21.9735 25.4907 20.6545 25.9454 19.5483L21.8227 15.4256L21.8223 26.2747C22.1133 26.4191 22.3881 26.6112 22.6305 26.8528C23.8243 28.0461 23.8243 29.9803 22.6305 31.1754C21.4363 32.3692 19.5012 32.3692 18.3087 31.1754C17.1149 29.9803 17.1149 28.0461 18.3087 26.8528C18.6037 26.5583 18.945 26.3355 19.3091 26.1859V15.2357C18.945 15.0869 18.6041 14.8654 18.3087 14.5687C17.4042 13.6655 17.1867 12.3383 17.6501 11.2276L13.1288 6.70541L1.18873 18.6446C0.1853 19.6485 0.1853 21.275 1.18873 22.278L18.6024 39.6908C19.6049 40.6938 21.2311 40.6938 22.2349 39.6908L39.5672 22.359C40.5702 21.3556 40.5702 19.7281 39.5672 18.7251" fill="#DE4C36"/>
</g>
<defs>
<clipPath id="clip0_372_174">
<rect width="40.0391" height="39.8833" fill="white" transform="translate(0.436035 0.560547)"/>
</clipPath>
</defs>
</svg>
