<svg width="187" height="39" viewBox="0 0 187 39" fill="none" xmlns="http://www.w3.org/2000/svg">
<path d="M4.07335 30.6028V0.568726H8.70717V30.6028H4.07335Z" fill="white"/>
<path d="M13.8947 30.6028V0.568726H18.5286V30.6028H13.8947Z" fill="white"/>
<path d="M23.7162 30.6028V0.568726H28.35V30.6028H23.7162Z" fill="white"/>
<path d="M40.7028 30.6028V4.77349H31.4781V0.568726H54.5614V4.77349H45.3366V30.6028H40.7028Z" fill="white"/>
<path d="M65.2067 21.6355V17.6023H77.9068V21.6355H65.2067Z" fill="white"/>
<path d="M90.6884 30.6028V26.4838H94.7215V4.68768H90.6884V0.568726H102.702C106.707 0.568726 109.767 1.58416 111.884 3.61504C114.029 5.64591 115.102 8.70652 115.102 12.7969V18.4175C115.102 22.5079 114.029 25.5685 111.884 27.5994C109.767 29.6016 106.707 30.6028 102.702 30.6028H90.6884ZM99.3983 26.398H102.745C105.348 26.398 107.279 25.7401 108.537 24.4243C109.796 23.1086 110.425 21.1492 110.425 18.5463V12.6253C110.425 9.9937 109.796 8.03433 108.537 6.74716C107.279 5.45999 105.348 4.8164 102.745 4.8164H99.3983V26.398Z" fill="white"/>
<path d="M129.091 31.2035C126.945 31.2035 125.072 30.7601 123.47 29.8734C121.868 28.9581 120.61 27.6852 119.694 26.0548C118.808 24.3957 118.364 22.4793 118.364 20.3054V19.7905C118.364 17.588 118.808 15.6716 119.694 14.0411C120.581 12.3821 121.811 11.1092 123.384 10.2225C124.986 9.30721 126.831 8.84954 128.919 8.84954C130.95 8.84954 132.723 9.30721 134.239 10.2225C135.784 11.1092 136.985 12.3535 137.844 13.9553C138.702 15.5571 139.131 17.4307 139.131 19.576V21.2493H122.869C122.927 23.1086 123.542 24.596 124.714 25.7115C125.916 26.7985 127.403 27.3419 129.177 27.3419C130.836 27.3419 132.08 26.9701 132.909 26.2264C133.767 25.4827 134.425 24.6246 134.883 23.652L138.53 25.5399C138.13 26.3408 137.543 27.1846 136.771 28.0713C136.027 28.9581 135.04 29.7018 133.81 30.3024C132.58 30.9031 131.007 31.2035 129.091 31.2035ZM122.912 17.8598H134.626C134.511 16.2579 133.939 15.0137 132.909 14.127C131.88 13.2116 130.535 12.754 128.876 12.754C127.217 12.754 125.859 13.2116 124.8 14.127C123.77 15.0137 123.141 16.2579 122.912 17.8598Z" fill="white"/>
<path d="M143.378 30.6028V0.568726H147.797V30.6028H143.378Z" fill="white"/>
<path d="M153.283 30.6028V0.568726H157.702V12.4536H158.389C158.675 11.9102 159.075 11.381 159.59 10.8661C160.134 10.3512 160.834 9.93649 161.692 9.62185C162.579 9.2786 163.695 9.10698 165.039 9.10698C166.641 9.10698 168.057 9.46453 169.287 10.1796C170.545 10.8947 171.532 11.9102 172.247 13.2259C172.962 14.5131 173.32 16.072 173.32 17.9027V30.6028H168.901V18.2459C168.901 16.4153 168.443 15.0709 167.528 14.2128C166.612 13.326 165.354 12.8827 163.752 12.8827C161.921 12.8827 160.448 13.4834 159.333 14.6847C158.246 15.8861 157.702 17.6309 157.702 19.9192V30.6028H153.283Z" fill="white"/>
<path d="M178.607 30.6028V9.45022H183.027V30.6028H178.607ZM180.838 6.57554C179.98 6.57554 179.251 6.3038 178.65 5.76033C178.078 5.18825 177.792 4.45885 177.792 3.57213C177.792 2.68541 178.078 1.97032 178.65 1.42684C179.251 0.854765 179.98 0.568726 180.838 0.568726C181.725 0.568726 182.455 0.854765 183.027 1.42684C183.599 1.97032 183.885 2.68541 183.885 3.57213C183.885 4.45885 183.599 5.18825 183.027 5.76033C182.455 6.3038 181.725 6.57554 180.838 6.57554Z" fill="white"/>
<path d="M0.941223 35.966H186.33V38.1113H0.941223V35.966Z" fill="white"/>
</svg>
