<svg width="162" height="15" viewBox="0 0 162 15" fill="none" xmlns="http://www.w3.org/2000/svg">
<path d="M0.174805 13.9838V0.683838H4.03181L6.93881 12.6158H7.24281L10.1498 0.683838H14.0068V13.9838H12.0118V2.12784H11.7078L8.8198 13.9838H5.3618L2.4738 2.12784H2.1698V13.9838H0.174805Z" fill="#696969"/>
<path d="M19.2703 14.2498C18.5989 14.2498 17.9973 14.1358 17.4653 13.9078C16.9459 13.6798 16.5279 13.3442 16.2113 12.9008C15.9073 12.4575 15.7552 11.9192 15.7552 11.2858C15.7552 10.6398 15.9073 10.1078 16.2113 9.68984C16.5279 9.25917 16.9522 8.93617 17.4842 8.72084C18.0289 8.50551 18.6432 8.39784 19.3272 8.39784H22.1772V7.78984C22.1772 7.24517 22.0126 6.80817 21.6833 6.47884C21.3539 6.1495 20.8472 5.98484 20.1632 5.98484C19.4919 5.98484 18.9789 6.14317 18.6243 6.45984C18.2696 6.77651 18.0352 7.18817 17.9212 7.69484L16.0972 7.10584C16.2492 6.59917 16.4899 6.14317 16.8193 5.73784C17.1613 5.31984 17.6109 4.98417 18.1682 4.73084C18.7256 4.4775 19.3969 4.35084 20.1822 4.35084C21.3982 4.35084 22.3546 4.66117 23.0513 5.28184C23.7479 5.9025 24.0963 6.78284 24.0963 7.92284V11.7798C24.0963 12.1598 24.2736 12.3498 24.6283 12.3498H25.4263V13.9838H23.9632C23.5199 13.9838 23.1589 13.8698 22.8803 13.6418C22.6016 13.4138 22.4622 13.1035 22.4622 12.7108V12.6538H22.1772C22.0759 12.8438 21.9239 13.0655 21.7213 13.3188C21.5186 13.5722 21.2209 13.7938 20.8282 13.9838C20.4356 14.1612 19.9163 14.2498 19.2703 14.2498ZM19.5553 12.6348C20.3406 12.6348 20.9739 12.4132 21.4552 11.9698C21.9366 11.5138 22.1772 10.8932 22.1772 10.1078V9.91784H19.4412C18.9219 9.91784 18.5039 10.0318 18.1873 10.2598C17.8706 10.4752 17.7122 10.7982 17.7122 11.2288C17.7122 11.6595 17.8769 12.0015 18.2062 12.2548C18.5356 12.5082 18.9853 12.6348 19.5553 12.6348Z" fill="#696969"/>
<path d="M30.5074 14.2498C29.7347 14.2498 29.0191 14.0598 28.3604 13.6798C27.7017 13.2998 27.1697 12.7552 26.7644 12.0458C26.3717 11.3238 26.1754 10.4562 26.1754 9.44284V9.15784C26.1754 8.15717 26.3717 7.29584 26.7644 6.57384C27.1571 5.85184 27.6827 5.30084 28.3414 4.92084C29.0001 4.54084 29.7221 4.35084 30.5074 4.35084C31.1154 4.35084 31.6221 4.42684 32.0274 4.57884C32.4454 4.73084 32.7874 4.92717 33.0534 5.16784C33.3194 5.39584 33.5221 5.63651 33.6614 5.88984H33.9654V0.683838H35.9224V13.9838H34.0034V12.6538H33.6994C33.4587 13.0592 33.0914 13.4265 32.5974 13.7558C32.1161 14.0852 31.4194 14.2498 30.5074 14.2498ZM31.0584 12.5398C31.9071 12.5398 32.6037 12.2675 33.1484 11.7228C33.7057 11.1782 33.9844 10.3992 33.9844 9.38584V9.21484C33.9844 8.21417 33.7121 7.44151 33.1674 6.89684C32.6227 6.35217 31.9197 6.07984 31.0584 6.07984C30.2224 6.07984 29.5257 6.35217 28.9684 6.89684C28.4237 7.44151 28.1514 8.21417 28.1514 9.21484V9.38584C28.1514 10.3992 28.4237 11.1782 28.9684 11.7228C29.5257 12.2675 30.2224 12.5398 31.0584 12.5398Z" fill="#696969"/>
<path d="M42.6223 14.2498C41.6723 14.2498 40.8426 14.0535 40.1333 13.6608C39.424 13.2555 38.8666 12.6918 38.4613 11.9698C38.0686 11.2352 37.8723 10.3865 37.8723 9.42384V9.19584C37.8723 8.22051 38.0686 7.37184 38.4613 6.64984C38.854 5.91517 39.3986 5.3515 40.0953 4.95884C40.8046 4.55351 41.6216 4.35084 42.5463 4.35084C43.4456 4.35084 44.231 4.55351 44.9023 4.95884C45.5863 5.3515 46.1183 5.9025 46.4983 6.61184C46.8783 7.32117 47.0683 8.15084 47.0683 9.10084V9.84184H39.8673C39.8926 10.6652 40.165 11.3238 40.6843 11.8178C41.2163 12.2992 41.875 12.5398 42.6603 12.5398C43.395 12.5398 43.946 12.3752 44.3133 12.0458C44.6933 11.7165 44.9846 11.3365 45.1873 10.9058L46.8023 11.7418C46.625 12.0965 46.3653 12.4702 46.0233 12.8628C45.694 13.2555 45.257 13.5848 44.7123 13.8508C44.1676 14.1168 43.471 14.2498 42.6223 14.2498ZM39.8863 8.34084H45.0733C45.0226 7.63151 44.7693 7.08051 44.3133 6.68784C43.8573 6.28251 43.262 6.07984 42.5273 6.07984C41.7926 6.07984 41.191 6.28251 40.7223 6.68784C40.2663 7.08051 39.9876 7.63151 39.8863 8.34084Z" fill="#696969"/>
<path d="M54.3428 13.9838L52.7468 4.61684H54.7038L55.8818 12.6728H56.1858L57.8198 4.61684H60.9928L62.6078 12.6728H62.9118L64.0898 4.61684H66.0468L64.4508 13.9838H61.1638L59.5488 5.94684H59.2448L57.6298 13.9838H54.3428Z" fill="#696969"/>
<path d="M67.8896 13.9838V4.61684H69.8466V13.9838H67.8896ZM68.8776 3.34384C68.4976 3.34384 68.1746 3.22351 67.9086 2.98284C67.6553 2.7295 67.5286 2.4065 67.5286 2.01384C67.5286 1.62117 67.6553 1.30451 67.9086 1.06384C68.1746 0.810505 68.4976 0.683838 68.8776 0.683838C69.2703 0.683838 69.5933 0.810505 69.8466 1.06384C70.1 1.30451 70.2266 1.62117 70.2266 2.01384C70.2266 2.4065 70.1 2.7295 69.8466 2.98284C69.5933 3.22351 69.2703 3.34384 68.8776 3.34384Z" fill="#696969"/>
<path d="M75.7909 13.9838C75.2209 13.9838 74.765 13.8128 74.423 13.4708C74.0936 13.1288 73.9289 12.6728 73.9289 12.1028V6.26984H71.3449V4.61684H73.9289V1.51984H75.8859V4.61684H78.6789V6.26984H75.8859V11.7608C75.8859 12.1408 76.0633 12.3308 76.4179 12.3308H78.3749V13.9838H75.7909Z" fill="#696969"/>
<path d="M80.5031 13.9838V0.683838H82.4601V5.94684H82.7641C82.8908 5.70617 83.0681 5.47184 83.2961 5.24384C83.5368 5.01584 83.8471 4.83217 84.2271 4.69284C84.6198 4.54084 85.1138 4.46484 85.7091 4.46484C86.4184 4.46484 87.0454 4.62317 87.5901 4.93984C88.1474 5.2565 88.5844 5.70617 88.9011 6.28884C89.2178 6.85884 89.3761 7.54917 89.3761 8.35984V13.9838H87.4191V8.51184C87.4191 7.70117 87.2164 7.10584 86.8111 6.72584C86.4058 6.33317 85.8484 6.13684 85.1391 6.13684C84.3284 6.13684 83.6761 6.40284 83.1821 6.93484C82.7008 7.46684 82.4601 8.2395 82.4601 9.25284V13.9838H80.5031Z" fill="#696969"/>
<path d="M96.0283 13.9838V0.683838H98.0803V12.1218H104.483V13.9838H96.0283Z" fill="#696969"/>
<path d="M110.297 14.2498C109.36 14.2498 108.524 14.0598 107.789 13.6798C107.067 13.2872 106.497 12.7298 106.079 12.0078C105.661 11.2858 105.452 10.4308 105.452 9.44284V9.15784C105.452 8.16984 105.661 7.32117 106.079 6.61184C106.497 5.88984 107.067 5.3325 107.789 4.93984C108.524 4.54717 109.36 4.35084 110.297 4.35084C111.235 4.35084 112.071 4.54717 112.805 4.93984C113.54 5.3325 114.116 5.88984 114.534 6.61184C114.952 7.32117 115.161 8.16984 115.161 9.15784V9.44284C115.161 10.4308 114.952 11.2858 114.534 12.0078C114.116 12.7298 113.54 13.2872 112.805 13.6798C112.071 14.0598 111.235 14.2498 110.297 14.2498ZM110.297 12.5018C111.159 12.5018 111.855 12.2295 112.387 11.6848C112.932 11.1275 113.204 10.3612 113.204 9.38584V9.21484C113.204 8.2395 112.938 7.47951 112.406 6.93484C111.874 6.3775 111.171 6.09884 110.297 6.09884C109.449 6.09884 108.752 6.3775 108.207 6.93484C107.675 7.47951 107.409 8.2395 107.409 9.21484V9.38584C107.409 10.3612 107.675 11.1275 108.207 11.6848C108.752 12.2295 109.449 12.5018 110.297 12.5018Z" fill="#696969"/>
<path d="M118.955 13.9838L115.801 4.61684H117.872L120.361 12.5398H120.665L123.154 4.61684H125.225L122.071 13.9838H118.955Z" fill="#696969"/>
<path d="M130.609 14.2498C129.659 14.2498 128.829 14.0535 128.12 13.6608C127.41 13.2555 126.853 12.6918 126.448 11.9698C126.055 11.2352 125.859 10.3865 125.859 9.42384V9.19584C125.859 8.22051 126.055 7.37184 126.448 6.64984C126.84 5.91517 127.385 5.3515 128.082 4.95884C128.791 4.55351 129.608 4.35084 130.533 4.35084C131.432 4.35084 132.217 4.55351 132.889 4.95884C133.573 5.3515 134.105 5.9025 134.485 6.61184C134.865 7.32117 135.055 8.15084 135.055 9.10084V9.84184H127.854C127.879 10.6652 128.151 11.3238 128.671 11.8178C129.203 12.2992 129.861 12.5398 130.647 12.5398C131.381 12.5398 131.932 12.3752 132.3 12.0458C132.68 11.7165 132.971 11.3365 133.174 10.9058L134.789 11.7418C134.611 12.0965 134.352 12.4702 134.01 12.8628C133.68 13.2555 133.243 13.5848 132.699 13.8508C132.154 14.1168 131.457 14.2498 130.609 14.2498ZM127.873 8.34084H133.06C133.009 7.63151 132.756 7.08051 132.3 6.68784C131.844 6.28251 131.248 6.07984 130.514 6.07984C129.779 6.07984 129.177 6.28251 128.709 6.68784C128.253 7.08051 127.974 7.63151 127.873 8.34084Z" fill="#696969"/>
<path d="M149.739 11.5138L141.759 8.56884V6.09884L149.739 3.15384V5.11084L143.697 7.18184V7.48584L149.739 9.55684V11.5138Z" fill="#696969"/>
<path d="M156.942 14.2498C155.967 14.2498 155.099 14.0725 154.339 13.7178C153.579 13.3632 152.984 12.8502 152.553 12.1788C152.135 11.5075 151.926 10.7095 151.926 9.78484V9.44284H153.921V9.74684C153.921 10.5828 154.194 11.2478 154.738 11.7418C155.296 12.2232 156.03 12.4638 156.942 12.4638C157.854 12.4638 158.564 12.2358 159.07 11.7798C159.577 11.3238 159.83 10.7475 159.83 10.0508V9.87984C159.83 9.38584 159.71 8.98684 159.469 8.68284C159.229 8.37884 158.906 8.15717 158.5 8.01784C158.095 7.86584 157.639 7.78984 157.132 7.78984H154.719V5.49084L159.393 2.73584V2.46984H152.249V0.683838H161.559V3.38184L157.094 6.04184V6.30784H157.911C158.583 6.30784 159.216 6.43451 159.811 6.68784C160.407 6.94117 160.888 7.32751 161.255 7.84684C161.635 8.36617 161.825 9.02484 161.825 9.82284V10.0508C161.825 10.8995 161.623 11.6405 161.217 12.2738C160.812 12.8945 160.242 13.3822 159.507 13.7368C158.773 14.0788 157.918 14.2498 156.942 14.2498Z" fill="#696969"/>
</svg>
