<svg width="259" height="46" viewBox="0 0 259 46" fill="none" xmlns="http://www.w3.org/2000/svg">
<path d="M0.625671 35.5758V0.575806H8.62567L17.9257 32.9258H18.5757L27.8757 0.575806H35.8757V35.5758H31.8257V3.32581H31.1257L21.8757 35.5758H14.6257L5.37567 3.32581H4.67567V35.5758H0.625671Z" fill="white"/>
<path d="M45.7374 45.5758V42.0758H59.7374C60.7041 42.0758 61.1874 41.5758 61.1874 40.5758V31.6758H60.4874C60.1541 32.3758 59.6374 33.0758 58.9374 33.7758C58.2707 34.4425 57.3874 34.9925 56.2874 35.4258C55.1874 35.8258 53.8041 36.0258 52.1374 36.0258C50.3707 36.0258 48.7374 35.6425 47.2374 34.8758C45.7707 34.1091 44.6041 32.9758 43.7374 31.4758C42.9041 29.9758 42.4874 28.1425 42.4874 25.9758V11.1258H46.4374V25.6758C46.4374 28.0758 47.0374 29.8258 48.2374 30.9258C49.4707 32.0258 51.1207 32.5758 53.1874 32.5758C55.5207 32.5758 57.4374 31.8091 58.9374 30.2758C60.4374 28.7425 61.1874 26.4591 61.1874 23.4258V11.1258H65.1374V41.2758C65.1374 42.6091 64.7541 43.6591 63.9874 44.4258C63.2541 45.1925 62.1707 45.5758 60.7374 45.5758H45.7374Z" fill="white"/>
<path d="M83.5944 35.5758V0.575806H87.7944V35.5758H83.5944Z" fill="white"/>
<path d="M94.7015 35.5758V11.1258H98.5515V15.2758H99.2514C99.7848 14.1091 100.685 13.0591 101.951 12.1258C103.251 11.1591 105.151 10.6758 107.651 10.6758C109.485 10.6758 111.118 11.0591 112.551 11.8258C114.018 12.5925 115.185 13.7258 116.051 15.2258C116.918 16.7258 117.351 18.5758 117.351 20.7758V35.5758H113.401V21.0758C113.401 18.6425 112.785 16.8758 111.551 15.7758C110.351 14.6758 108.718 14.1258 106.651 14.1258C104.285 14.1258 102.351 14.8925 100.851 16.4258C99.3848 17.9591 98.6515 20.2425 98.6515 23.2758V35.5758H94.7015Z" fill="white"/>
<path d="M132.432 35.5758C131.032 35.5758 129.949 35.1925 129.182 34.4258C128.449 33.6591 128.082 32.6091 128.082 31.2758V14.5758H120.732V11.1258H128.082V2.42581H132.032V11.1258H140.032V14.5758H132.032V30.6758C132.032 31.6758 132.515 32.1758 133.482 32.1758H138.932V35.5758H132.432Z" fill="white"/>
<path d="M155.501 36.2758C153.034 36.2758 150.868 35.7591 149.001 34.7258C147.134 33.6591 145.684 32.1758 144.651 30.2758C143.618 28.3758 143.101 26.1758 143.101 23.6758V23.0758C143.101 20.5425 143.618 18.3258 144.651 16.4258C145.684 14.5258 147.118 13.0591 148.951 12.0258C150.784 10.9591 152.884 10.4258 155.251 10.4258C157.551 10.4258 159.584 10.9258 161.351 11.9258C163.118 12.8925 164.501 14.2925 165.501 16.1258C166.501 17.9591 167.001 20.1091 167.001 22.5758V24.3758H147.051C147.151 27.0091 148.001 29.0758 149.601 30.5758C151.201 32.0425 153.201 32.7758 155.601 32.7758C157.701 32.7758 159.318 32.2925 160.451 31.3258C161.584 30.3591 162.451 29.2091 163.051 27.8758L166.451 29.5258C165.951 30.5591 165.251 31.5925 164.351 32.6258C163.484 33.6591 162.334 34.5258 160.901 35.2258C159.501 35.9258 157.701 36.2758 155.501 36.2758ZM147.101 21.1258H163.001C162.868 18.8591 162.084 17.0925 160.651 15.8258C159.251 14.5591 157.451 13.9258 155.251 13.9258C153.018 13.9258 151.184 14.5591 149.751 15.8258C148.318 17.0925 147.434 18.8591 147.101 21.1258Z" fill="white"/>
<path d="M172.641 35.5758V11.1258H176.491V14.1258H177.191C177.624 13.0591 178.291 12.2758 179.191 11.7758C180.091 11.2758 181.274 11.0258 182.741 11.0258H185.641V14.6258H182.491C180.724 14.6258 179.291 15.1258 178.191 16.1258C177.124 17.0925 176.591 18.6091 176.591 20.6758V35.5758H172.641Z" fill="white"/>
<path d="M200.56 36.2758C198.093 36.2758 195.926 35.7591 194.06 34.7258C192.193 33.6591 190.743 32.1758 189.71 30.2758C188.676 28.3758 188.16 26.1758 188.16 23.6758V23.0758C188.16 20.5425 188.676 18.3258 189.71 16.4258C190.743 14.5258 192.176 13.0591 194.01 12.0258C195.843 10.9591 197.943 10.4258 200.31 10.4258C202.61 10.4258 204.643 10.9258 206.41 11.9258C208.176 12.8925 209.56 14.2925 210.56 16.1258C211.56 17.9591 212.06 20.1091 212.06 22.5758V24.3758H192.11C192.21 27.0091 193.06 29.0758 194.66 30.5758C196.26 32.0425 198.26 32.7758 200.66 32.7758C202.76 32.7758 204.376 32.2925 205.51 31.3258C206.643 30.3591 207.51 29.2091 208.11 27.8758L211.51 29.5258C211.01 30.5591 210.31 31.5925 209.41 32.6258C208.543 33.6591 207.393 34.5258 205.96 35.2258C204.56 35.9258 202.76 36.2758 200.56 36.2758ZM192.16 21.1258H208.06C207.926 18.8591 207.143 17.0925 205.71 15.8258C204.31 14.5591 202.51 13.9258 200.31 13.9258C198.076 13.9258 196.243 14.5591 194.81 15.8258C193.376 17.0925 192.493 18.8591 192.16 21.1258Z" fill="white"/>
<path d="M227.549 36.2758C224.516 36.2758 221.95 35.5758 219.85 34.1758C217.783 32.7758 216.533 30.5591 216.1 27.5258L219.85 26.6758C220.116 28.2758 220.616 29.5425 221.35 30.4758C222.083 31.3758 222.983 32.0258 224.049 32.4258C225.149 32.7925 226.316 32.9758 227.549 32.9758C229.383 32.9758 230.833 32.6091 231.9 31.8758C232.966 31.1425 233.499 30.1591 233.499 28.9258C233.499 27.6591 232.983 26.7758 231.949 26.2758C230.949 25.7425 229.566 25.3091 227.799 24.9758L225.749 24.6258C224.183 24.3591 222.749 23.9425 221.449 23.3758C220.149 22.8091 219.116 22.0425 218.35 21.0758C217.583 20.1091 217.199 18.8925 217.199 17.4258C217.199 15.2258 218.049 13.5091 219.749 12.2758C221.449 11.0425 223.699 10.4258 226.499 10.4258C229.266 10.4258 231.499 11.0591 233.199 12.3258C234.933 13.5591 236.049 15.3091 236.549 17.5758L232.85 18.5258C232.55 16.7591 231.833 15.5258 230.699 14.8258C229.566 14.0925 228.166 13.7258 226.499 13.7258C224.833 13.7258 223.516 14.0425 222.549 14.6758C221.583 15.2758 221.1 16.1758 221.1 17.3758C221.1 18.5425 221.549 19.4091 222.449 19.9758C223.383 20.5091 224.616 20.9091 226.15 21.1758L228.199 21.5258C229.933 21.8258 231.483 22.2425 232.85 22.7758C234.25 23.2758 235.35 24.0091 236.15 24.9758C236.983 25.9425 237.4 27.2091 237.4 28.7758C237.4 31.1758 236.499 33.0258 234.699 34.3258C232.933 35.6258 230.549 36.2758 227.549 36.2758Z" fill="white"/>
<path d="M251.28 35.5758C249.88 35.5758 248.796 35.1925 248.03 34.4258C247.296 33.6591 246.93 32.6091 246.93 31.2758V14.5758H239.58V11.1258H246.93V2.42581H250.88V11.1258H258.88V14.5758H250.88V30.6758C250.88 31.6758 251.363 32.1758 252.33 32.1758H257.78V35.5758H251.28Z" fill="white"/>
</svg>
