<svg width="37" height="41" viewBox="0 0 37 41" fill="none" xmlns="http://www.w3.org/2000/svg">
<path fill-rule="evenodd" clip-rule="evenodd" d="M18.4919 40.4452C17.9411 40.4452 17.4271 40.2984 16.9498 40.0414L12.0667 37.1408C11.3324 36.737 11.6995 36.5901 11.9198 36.5167C12.9111 36.1862 13.0947 36.1128 14.1227 35.5254C14.2329 35.4519 14.3797 35.4887 14.4899 35.5621L18.2349 37.8017C18.3817 37.8752 18.5653 37.8752 18.6754 37.8017L33.3249 29.3205C33.4718 29.247 33.5452 29.1002 33.5452 28.9166V11.9908C33.5452 11.8072 33.4718 11.6603 33.3249 11.5869L18.6754 3.14234C18.5286 3.06891 18.345 3.06891 18.2349 3.14234L3.58539 11.5869C3.43853 11.6603 3.3651 11.8439 3.3651 11.9908V28.9166C3.3651 29.0634 3.43853 29.247 3.58539 29.3205L7.58737 31.6335C9.75359 32.735 11.1121 31.45 11.1121 30.1649V13.4594C11.1121 13.2391 11.2956 13.0188 11.5526 13.0188H13.4251C13.6454 13.0188 13.8657 13.2024 13.8657 13.4594V30.1649C13.8657 33.0654 12.287 34.7543 9.53329 34.7543C8.68884 34.7543 8.02796 34.7543 6.15547 33.8365L2.30035 31.6335C1.34575 31.0828 0.758301 30.0548 0.758301 28.9533V12.0275C0.758301 10.926 1.34575 9.89798 2.30035 9.34725L16.9498 0.865981C17.8677 0.351965 19.116 0.351965 20.0339 0.865981L34.6834 9.34725C35.638 9.89798 36.2254 10.926 36.2254 12.0275V28.9533C36.2254 30.0548 35.638 31.0828 34.6834 31.6335L20.0339 40.1148C19.5566 40.3351 19.0059 40.4452 18.4919 40.4452ZM23.0079 28.8064C16.5827 28.8064 15.2609 25.8692 15.2609 23.3726C15.2609 23.1523 15.4445 22.932 15.7015 22.932H17.6107C17.831 22.932 18.0146 23.0788 18.0146 23.2991C18.3083 25.245 19.1527 26.1996 23.0446 26.1996C26.1287 26.1996 27.4504 25.502 27.4504 23.8499C27.4504 22.8953 27.0833 22.1977 22.2736 21.7204C18.2716 21.3165 15.7749 20.4353 15.7749 17.2411C15.7749 14.2671 18.2716 12.5048 22.4571 12.5048C27.1567 12.5048 29.4698 14.1203 29.7635 17.6449C29.7635 17.7551 29.7268 17.8652 29.6534 17.9754C29.5799 18.0488 29.4698 18.1222 29.3596 18.1222H27.4504C27.2669 18.1222 27.0833 17.9754 27.0466 17.7918C26.606 15.7725 25.4678 15.1116 22.4571 15.1116C19.0793 15.1116 18.6754 16.2865 18.6754 17.1676C18.6754 18.2324 19.1527 18.5628 23.7055 19.1503C28.2215 19.7377 30.351 20.5822 30.351 23.7397C30.3142 26.9707 27.6707 28.8064 23.0079 28.8064Z" fill="#539E43"/>
</svg>
