<svg width="41" height="41" viewBox="0 0 41 41" fill="none" xmlns="http://www.w3.org/2000/svg">
<path d="M37.1667 10.5611C35.9139 11.1046 34.5891 11.4638 33.2334 11.6277C34.6637 10.7733 35.7355 9.42903 36.25 7.84439C34.906 8.6445 33.4346 9.20822 31.9 9.51106C30.8743 8.39868 29.5083 7.65822 28.0164 7.40581C26.5245 7.1534 24.9909 7.40332 23.6564 8.11637C22.3218 8.82943 21.2616 9.96528 20.6421 11.3458C20.0226 12.7263 19.8789 14.2734 20.2334 15.7444C17.5158 15.6069 14.8574 14.8993 12.4311 13.6675C10.0048 12.4357 7.86478 10.7072 6.15004 8.59439C5.5486 9.64467 5.23257 10.8341 5.23337 12.0444C5.23124 13.1684 5.50707 14.2754 6.0363 15.267C6.56553 16.2586 7.33174 17.1039 8.26671 17.7277C7.18 17.6982 6.11652 17.4066 5.16671 16.8777V16.9611C5.17485 18.5359 5.7267 20.0595 6.7289 21.2743C7.7311 22.4891 9.12213 23.3205 10.6667 23.6277C10.0721 23.8087 9.45483 23.9041 8.83337 23.9111C8.40319 23.906 7.97408 23.867 7.55004 23.7944C7.98989 25.1491 8.84108 26.333 9.98517 27.1813C11.1293 28.0297 12.5093 28.5003 13.9334 28.5277C11.5287 30.4198 8.55985 31.4525 5.50004 31.4611C4.94293 31.4629 4.38627 31.4295 3.83337 31.3611C6.95742 33.3782 10.5981 34.4489 14.3167 34.4444C16.8829 34.471 19.4286 33.9861 21.8052 33.0179C24.1819 32.0496 26.3417 30.6175 28.1587 28.8052C29.9757 26.9929 31.4133 24.8367 32.3876 22.4626C33.362 20.0884 33.8534 17.5439 33.8334 14.9777C33.8334 14.6944 33.8334 14.3944 33.8334 14.0944C35.1412 13.1191 36.2692 11.9234 37.1667 10.5611Z" fill="white"/>
</svg>
