<svg width="42" height="37" viewBox="0 0 42 37" fill="none" xmlns="http://www.w3.org/2000/svg">
<path d="M34.6658 12.0655C34.2405 11.9191 33.7997 11.7806 33.346 11.6496C33.4205 11.3452 33.489 11.0447 33.5499 10.7494C34.549 5.89969 33.8957 1.99273 31.6651 0.706399C29.5262 -0.527026 26.0282 0.759018 22.4955 3.8335C22.1557 4.12914 21.8151 4.44214 21.4745 4.77019C21.2476 4.55315 21.0211 4.3434 20.7952 4.14278C17.0927 0.85535 13.3816 -0.530019 11.1531 0.760039C9.01629 1.99704 8.38349 5.66995 9.28281 10.2661C9.36966 10.71 9.47117 11.1633 9.58597 11.6243C9.06074 11.7734 8.55368 11.9323 8.06851 12.1014C3.72776 13.6148 0.955566 15.9866 0.955566 18.4468C0.955566 20.9878 3.93152 23.5363 8.45275 25.0817C8.80954 25.2036 9.17977 25.3189 9.5613 25.4284C9.43746 25.9269 9.32974 26.4155 9.23932 26.8919C8.38181 31.4083 9.05147 34.9944 11.1826 36.2236C13.3839 37.493 17.0783 36.1882 20.6756 33.0437C20.96 32.7951 21.2453 32.5315 21.5312 32.2552C21.9017 32.612 22.2716 32.9497 22.6396 33.2664C26.1241 36.2649 29.5656 37.4757 31.6947 36.2431C33.8938 34.97 34.6085 31.1177 33.6806 26.4306C33.6098 26.0727 33.5273 25.707 33.4347 25.3348C33.6941 25.2581 33.9488 25.1789 34.1972 25.0966C38.8974 23.5393 41.9556 21.0217 41.9556 18.4468C41.9556 15.9777 39.094 13.5899 34.6658 12.0655ZM33.6463 23.434C33.4222 23.5082 33.1921 23.58 32.9577 23.6495C32.4388 22.0068 31.7385 20.2601 30.8815 18.4554C31.6993 16.6936 32.3726 14.9692 32.8769 13.3372C33.2963 13.4585 33.7034 13.5865 34.0957 13.7216C37.8897 15.0277 40.2041 16.9588 40.2041 18.4468C40.2041 20.0318 37.7047 22.0893 33.6463 23.434ZM31.9624 26.7708C32.3727 28.8433 32.4313 30.7172 32.1595 32.182C31.9153 33.4983 31.4243 34.3758 30.8171 34.7273C29.525 35.4752 26.7618 34.503 23.7819 31.9387C23.4402 31.6447 23.0961 31.3308 22.751 30.9986C23.9062 29.7351 25.0608 28.2663 26.1877 26.635C28.1697 26.4591 30.0423 26.1716 31.7405 25.779C31.8241 26.1164 31.8984 26.4473 31.9624 26.7708ZM14.9334 34.5981C13.671 35.0439 12.6656 35.0567 12.0578 34.7062C10.7645 33.9603 10.2269 31.081 10.9602 27.2186C11.0442 26.7763 11.1442 26.3219 11.2595 25.8575C12.939 26.2288 14.7979 26.4961 16.7847 26.6572C17.9191 28.2534 19.1071 29.7207 20.3042 31.0054C20.0427 31.2579 19.7821 31.4983 19.5231 31.7249C17.9323 33.1153 16.3382 34.1019 14.9334 34.5981ZM9.01921 23.4243C7.02001 22.741 5.369 21.8529 4.23731 20.8838C3.22041 20.013 2.707 19.1484 2.707 18.4468C2.707 16.9539 4.9328 15.0496 8.64505 13.7553C9.09548 13.5983 9.567 13.4503 10.0563 13.3113C10.5694 14.9802 11.2424 16.725 12.0546 18.4894C11.2319 20.2801 10.5493 22.0527 10.0312 23.7412C9.68238 23.6409 9.34441 23.5354 9.01921 23.4243ZM11.0017 9.92969C10.2312 5.99186 10.7429 3.02131 12.0306 2.2759C13.4023 1.48181 16.4354 2.61401 19.6322 5.45254C19.8365 5.63397 20.0417 5.82386 20.2474 6.02032C19.0561 7.29944 17.8791 8.75567 16.7547 10.3425C14.8264 10.5213 12.9806 10.8084 11.2835 11.1928C11.1768 10.7636 11.0823 10.3419 11.0017 9.92969ZM28.6872 14.2967C28.2816 13.596 27.8651 12.9118 27.4405 12.2463C28.7486 12.4116 30.002 12.6312 31.179 12.8998C30.8256 14.0323 30.3852 15.2164 29.8667 16.4303C29.4948 15.7242 29.1015 15.0123 28.6872 14.2967ZM21.4751 7.27207C22.283 8.14731 23.0921 9.12451 23.8878 10.1848C23.0859 10.1469 22.2741 10.1272 21.4556 10.1272C20.6448 10.1272 19.8389 10.1464 19.042 10.1837C19.8386 9.13326 20.6546 8.15738 21.4751 7.27207ZM14.2168 14.3088C13.8116 15.0115 13.4255 15.7196 13.0594 16.4289C12.5494 15.2193 12.113 14.0298 11.7566 12.8813C12.9264 12.6195 14.1738 12.4054 15.4737 12.2432C15.0431 12.9148 14.6232 13.6041 14.2168 14.3087V14.3088ZM15.5111 24.7754C14.1681 24.6256 12.9019 24.4225 11.7324 24.168C12.0946 22.9989 12.5405 21.784 13.0614 20.5483C13.4284 21.2572 13.816 21.9655 14.2237 22.6698H14.2238C14.6391 23.3872 15.0694 24.09 15.5111 24.7754ZM21.5236 29.7451C20.6934 28.8494 19.8654 27.8586 19.0567 26.7929C19.8418 26.8237 20.6421 26.8395 21.4556 26.8395C22.2913 26.8395 23.1174 26.8206 23.9305 26.7844C23.1321 27.8694 22.326 28.8617 21.5236 29.7451ZM29.8835 20.4854C30.4315 21.7344 30.8934 22.9429 31.2602 24.0921C30.0714 24.3633 28.788 24.5817 27.4356 24.744C27.8613 24.0695 28.2814 23.3736 28.6943 22.6577C29.1119 21.9335 29.5085 21.2082 29.8835 20.4854ZM27.1771 21.7827C26.5362 22.894 25.8782 23.9548 25.2102 24.9562C23.9936 25.0431 22.7366 25.088 21.4556 25.088C20.1797 25.088 18.9386 25.0483 17.7435 24.9708C17.0486 23.9563 16.3763 22.8923 15.7395 21.7923H15.7396C15.1045 20.6953 14.5199 19.589 13.9902 18.4889C14.5197 17.3862 15.1028 16.2787 15.7343 15.1836L15.7341 15.1838C16.3673 14.0859 17.0337 13.0271 17.7222 12.0189C18.9415 11.9268 20.1919 11.8787 21.4555 11.8787H21.4556C22.7249 11.8787 23.9769 11.9271 25.1958 12.0201C25.8738 13.0209 26.5357 14.0762 27.1713 15.1744C27.8142 16.2848 28.4047 17.385 28.9388 18.464C28.4063 19.5615 27.8171 20.6728 27.1771 21.7827ZM30.7902 2.22379C32.1632 3.01554 32.6971 6.20869 31.8345 10.3959C31.7795 10.6631 31.7175 10.9352 31.6502 11.211C29.9492 10.8185 28.1021 10.5264 26.1682 10.345C25.0416 8.74071 23.8742 7.28221 22.7023 6.01952C23.0174 5.71644 23.332 5.42744 23.6453 5.15472C26.6722 2.52052 29.5013 1.48049 30.7902 2.22379ZM21.4556 14.7857C23.4775 14.7857 25.1167 16.4248 25.1167 18.4468C25.1167 20.4688 23.4775 22.108 21.4556 22.108C19.4336 22.108 17.7944 20.4688 17.7944 18.4468C17.7944 16.4248 19.4336 14.7857 21.4556 14.7857Z" fill="#00D8FF"/>
</svg>
