<svg width="381" height="66" viewBox="0 0 381 66" fill="none" xmlns="http://www.w3.org/2000/svg">
<path d="M29.5359 42.7603L0 32.7743V21.8038L29.5359 11.8179V20.2567L8.57947 26.6562V27.922L29.5359 34.3214V42.7603Z" fill="#1D4ED8"/>
<path d="M35.4513 65.967L56.1264 2.67584H64.9872L44.3121 65.967H35.4513Z" fill="#1D4ED8"/>
<path d="M70.8729 42.7603V34.3214L91.8293 27.922V26.6562L70.8729 20.2567V11.8179L100.409 21.8038V32.7743L70.8729 42.7603Z" fill="#1D4ED8"/>
<path d="M127.181 19.2697C125.852 19.2697 124.662 19.0335 123.612 18.5612C122.563 18.0888 121.732 17.3803 121.119 16.4356C120.525 15.4734 120.227 14.275 120.227 12.8405V12.2894H122.405V12.8405C122.405 14.3625 122.851 15.4996 123.744 16.2519C124.636 16.9867 125.782 17.3541 127.181 17.3541C128.616 17.3541 129.709 17.0304 130.461 16.3831C131.214 15.7358 131.59 14.9223 131.59 13.9426C131.59 13.2604 131.415 12.718 131.065 12.3157C130.733 11.9133 130.26 11.5896 129.648 11.3447C129.036 11.0823 128.318 10.8549 127.496 10.6624L126.132 10.3213C125.064 10.0414 124.12 9.70024 123.298 9.29787C122.475 8.8955 121.828 8.37066 121.356 7.72337C120.901 7.05858 120.673 6.2101 120.673 5.17793C120.673 4.14576 120.927 3.25354 121.434 2.50128C121.959 1.74902 122.685 1.1717 123.612 0.76933C124.557 0.366958 125.642 0.165771 126.866 0.165771C128.108 0.165771 129.219 0.384452 130.199 0.821814C131.196 1.24168 131.975 1.87148 132.535 2.71121C133.112 3.53345 133.401 4.57437 133.401 5.83397V6.93612H131.223V5.83397C131.223 4.94175 131.03 4.22448 130.645 3.68215C130.278 3.13983 129.762 2.73745 129.097 2.47504C128.45 2.21262 127.706 2.08141 126.866 2.08141C125.659 2.08141 124.688 2.35258 123.954 2.8949C123.219 3.41974 122.851 4.172 122.851 5.15169C122.851 5.79898 123.009 6.32382 123.324 6.72619C123.639 7.12856 124.085 7.46095 124.662 7.72337C125.239 7.96829 125.93 8.18697 126.735 8.37941L128.1 8.72055C129.167 8.94798 130.12 9.26288 130.96 9.66525C131.817 10.0501 132.5 10.5837 133.007 11.266C133.514 11.9308 133.768 12.8055 133.768 13.8902C133.768 14.9748 133.497 15.9195 132.954 16.7243C132.412 17.529 131.642 18.1588 130.645 18.6137C129.665 19.051 128.511 19.2697 127.181 19.2697Z" fill="#949686"/>
<path d="M143.17 19.2697C141.875 19.2697 140.729 18.9985 139.732 18.4562C138.752 17.9139 137.983 17.1529 137.423 16.1732C136.881 15.176 136.609 14.0039 136.609 12.6568V12.3157C136.609 10.9861 136.881 9.8227 137.423 8.82552C137.983 7.82834 138.752 7.05858 139.732 6.51625C140.729 5.97393 141.875 5.70276 143.17 5.70276C144.464 5.70276 145.602 5.97393 146.581 6.51625C147.578 7.05858 148.348 7.82834 148.891 8.82552C149.45 9.8227 149.73 10.9861 149.73 12.3157V12.6568C149.73 14.0039 149.45 15.176 148.891 16.1732C148.348 17.1529 147.578 17.9139 146.581 18.4562C145.602 18.9985 144.464 19.2697 143.17 19.2697ZM143.17 17.4065C144.534 17.4065 145.619 16.9779 146.424 16.1207C147.246 15.246 147.657 14.0739 147.657 12.6043V12.3681C147.657 10.8986 147.246 9.73523 146.424 8.878C145.619 8.00328 144.534 7.56592 143.17 7.56592C141.823 7.56592 140.738 8.00328 139.916 8.878C139.094 9.73523 138.683 10.8986 138.683 12.3681V12.6043C138.683 14.0739 139.094 15.246 139.916 16.1207C140.738 16.9779 141.823 17.4065 143.17 17.4065Z" fill="#949686"/>
<path d="M153.461 18.9023V0.533155H155.534V18.9023H153.461Z" fill="#949686"/>
<path d="M163.147 18.9023L158.555 6.07015H160.759L164.617 17.3541H164.984L168.842 6.07015H171.046L166.454 18.9023H163.147Z" fill="#949686"/>
<path d="M179.379 19.2697C178.084 19.2697 176.947 18.9985 175.968 18.4562C174.988 17.8964 174.227 17.1179 173.685 16.1207C173.142 15.1235 172.871 13.9689 172.871 12.6568V12.3419C172.871 11.0123 173.142 9.84895 173.685 8.85176C174.227 7.85458 174.979 7.08482 175.941 6.5425C176.904 5.98267 178.006 5.70276 179.248 5.70276C180.455 5.70276 181.522 5.96518 182.449 6.49001C183.377 6.99735 184.103 7.73212 184.627 8.69431C185.152 9.65651 185.415 10.7849 185.415 12.0795V13.0242H174.944C174.997 14.4062 175.443 15.4909 176.283 16.2782C177.122 17.0479 178.172 17.4328 179.432 17.4328C180.534 17.4328 181.382 17.1791 181.977 16.6718C182.572 16.1644 183.027 15.5609 183.342 14.8611L185.126 15.7271C184.864 16.2694 184.496 16.8117 184.024 17.3541C183.569 17.8964 182.965 18.3512 182.213 18.7186C181.478 19.086 180.534 19.2697 179.379 19.2697ZM174.97 11.3185H183.315C183.245 10.1289 182.834 9.20165 182.082 8.53686C181.347 7.87207 180.402 7.53968 179.248 7.53968C178.076 7.53968 177.113 7.87207 176.361 8.53686C175.609 9.20165 175.145 10.1289 174.97 11.3185Z" fill="#949686"/>
<path d="M194.463 19.2697C193.36 19.2697 192.346 19.0073 191.419 18.4825C190.491 17.9576 189.757 17.1966 189.214 16.1994C188.672 15.2022 188.401 14.0214 188.401 12.6568V12.3157C188.401 10.9511 188.672 9.77897 189.214 8.79928C189.757 7.80209 190.483 7.04109 191.392 6.51625C192.32 5.97393 193.343 5.70276 194.463 5.70276C195.355 5.70276 196.107 5.82522 196.719 6.07015C197.349 6.29757 197.857 6.59498 198.241 6.96236C198.626 7.31225 198.924 7.68838 199.134 8.09075H199.501V0.533155H201.574V18.9023H199.554V16.7767H199.186C198.836 17.424 198.294 18.0014 197.559 18.5087C196.824 19.016 195.792 19.2697 194.463 19.2697ZM195.014 17.4328C196.343 17.4328 197.419 17.0129 198.241 16.1732C199.081 15.316 199.501 14.1263 199.501 12.6043V12.3681C199.501 10.8461 199.081 9.66525 198.241 8.82552C197.419 7.96829 196.343 7.53968 195.014 7.53968C193.702 7.53968 192.617 7.96829 191.76 8.82552C190.92 9.66525 190.5 10.8461 190.5 12.3681V12.6043C190.5 14.1263 190.92 15.316 191.76 16.1732C192.617 17.0129 193.702 17.4328 195.014 17.4328Z" fill="#949686"/>
<path d="M217.251 18.9023V2.99987H216.778L214.312 8.82552H210.795L214.548 0.533155H220.61V18.9023H217.251Z" fill="#949686"/>
<path d="M230.848 19.2697C228.678 19.2697 226.938 18.6749 225.626 17.4853C224.314 16.2782 223.658 14.4587 223.658 12.027V7.40847C223.658 5.04672 224.314 3.25354 225.626 2.02893C226.938 0.786824 228.678 0.165771 230.848 0.165771C233.035 0.165771 234.775 0.786824 236.07 2.02893C237.382 3.25354 238.038 5.04672 238.038 7.40847V12.027C238.038 14.4587 237.382 16.2782 236.07 17.4853C234.775 18.6749 233.035 19.2697 230.848 19.2697ZM230.848 16.2782C232.16 16.2782 233.122 15.9195 233.734 15.2022C234.364 14.485 234.679 13.4615 234.679 12.132V7.25102C234.679 5.90395 234.329 4.88927 233.629 4.20699C232.947 3.50721 232.02 3.15732 230.848 3.15732C229.641 3.15732 228.696 3.51596 228.014 4.23323C227.349 4.9505 227.016 5.95643 227.016 7.25102V12.132C227.016 13.514 227.331 14.5549 227.961 15.2547C228.608 15.937 229.571 16.2782 230.848 16.2782Z" fill="#949686"/>
<path d="M247.864 19.2697C245.694 19.2697 243.954 18.6749 242.642 17.4853C241.33 16.2782 240.674 14.4587 240.674 12.027V7.40847C240.674 5.04672 241.33 3.25354 242.642 2.02893C243.954 0.786824 245.694 0.165771 247.864 0.165771C250.051 0.165771 251.791 0.786824 253.086 2.02893C254.398 3.25354 255.054 5.04672 255.054 7.40847V12.027C255.054 14.4587 254.398 16.2782 253.086 17.4853C251.791 18.6749 250.051 19.2697 247.864 19.2697ZM247.864 16.2782C249.176 16.2782 250.138 15.9195 250.75 15.2022C251.38 14.485 251.695 13.4615 251.695 12.132V7.25102C251.695 5.90395 251.345 4.88927 250.645 4.20699C249.963 3.50721 249.036 3.15732 247.864 3.15732C246.657 3.15732 245.712 3.51596 245.03 4.23323C244.365 4.9505 244.033 5.95643 244.033 7.25102V12.132C244.033 13.514 244.347 14.5549 244.977 15.2547C245.625 15.937 246.587 16.2782 247.864 16.2782Z" fill="#949686"/>
<path d="M262.964 15.2022V11.2135H259.028V8.22196H262.964V4.23323H266.061V8.22196H269.997V11.2135H266.061V15.2022H262.964Z" fill="#949686"/>
<path d="M127.706 52.2697C125.519 52.2697 123.779 51.6399 122.484 50.3803C121.189 49.1032 120.542 47.2488 120.542 44.8171V40.6184C120.542 38.1867 121.189 36.341 122.484 35.0814C123.779 33.8043 125.519 33.1658 127.706 33.1658C129.875 33.1658 131.537 33.7693 132.692 34.9764C133.864 36.1836 134.45 37.8368 134.45 39.9361V40.0673H132.272V39.8574C132.272 38.4753 131.896 37.3469 131.144 36.4722C130.409 35.58 129.263 35.1339 127.706 35.1339C126.149 35.1339 124.933 35.615 124.059 36.5772C123.184 37.5219 122.746 38.8515 122.746 40.5659V44.8696C122.746 46.584 123.184 47.9223 124.059 48.8845C124.933 49.8292 126.149 50.3016 127.706 50.3016C129.263 50.3016 130.409 49.8642 131.144 48.9895C131.896 48.0973 132.272 46.9601 132.272 45.5781V45.1582H134.45V45.4994C134.45 47.5987 133.864 49.2519 132.692 50.459C131.537 51.6661 129.875 52.2697 127.706 52.2697Z" fill="#949686"/>
<path d="M143.913 52.2697C142.618 52.2697 141.473 51.9985 140.475 51.4562C139.496 50.9139 138.726 50.1529 138.166 49.1732C137.624 48.176 137.353 47.0039 137.353 45.6568V45.3157C137.353 43.9861 137.624 42.8227 138.166 41.8255C138.726 40.8283 139.496 40.0586 140.475 39.5163C141.473 38.9739 142.618 38.7028 143.913 38.7028C145.208 38.7028 146.345 38.9739 147.324 39.5163C148.322 40.0586 149.091 40.8283 149.634 41.8255C150.194 42.8227 150.473 43.9861 150.473 45.3157V45.6568C150.473 47.0039 150.194 48.176 149.634 49.1732C149.091 50.1529 148.322 50.9139 147.324 51.4562C146.345 51.9985 145.208 52.2697 143.913 52.2697ZM143.913 50.4065C145.278 50.4065 146.362 49.9779 147.167 49.1207C147.989 48.246 148.4 47.0739 148.4 45.6043V45.3681C148.4 43.8986 147.989 42.7352 147.167 41.878C146.362 41.0033 145.278 40.5659 143.913 40.5659C142.566 40.5659 141.481 41.0033 140.659 41.878C139.837 42.7352 139.426 43.8986 139.426 45.3681V45.6043C139.426 47.0739 139.837 48.246 140.659 49.1207C141.481 49.9779 142.566 50.4065 143.913 50.4065Z" fill="#949686"/>
<path d="M159.636 52.2697C158.534 52.2697 157.519 52.0073 156.592 51.4825C155.665 50.9576 154.93 50.1966 154.388 49.1994C153.845 48.2022 153.574 47.0214 153.574 45.6568V45.3157C153.574 43.9511 153.845 42.779 154.388 41.7993C154.93 40.8021 155.656 40.0411 156.566 39.5163C157.493 38.9739 158.516 38.7028 159.636 38.7028C160.528 38.7028 161.281 38.8252 161.893 39.0701C162.523 39.2976 163.03 39.595 163.415 39.9624C163.8 40.3122 164.097 40.6884 164.307 41.0908H164.674V33.5332H166.748V51.9023H164.727V49.7767H164.36C164.01 50.424 163.467 51.0014 162.733 51.5087C161.998 52.016 160.966 52.2697 159.636 52.2697ZM160.187 50.4328C161.517 50.4328 162.593 50.0129 163.415 49.1732C164.255 48.316 164.674 47.1263 164.674 45.6043V45.3681C164.674 43.8461 164.255 42.6653 163.415 41.8255C162.593 40.9683 161.517 40.5397 160.187 40.5397C158.875 40.5397 157.79 40.9683 156.933 41.8255C156.093 42.6653 155.674 43.8461 155.674 45.3681V45.6043C155.674 47.1263 156.093 48.316 156.933 49.1732C157.79 50.0129 158.875 50.4328 160.187 50.4328Z" fill="#949686"/>
<path d="M176.97 52.2697C175.676 52.2697 174.538 51.9985 173.559 51.4562C172.579 50.8964 171.818 50.1179 171.276 49.1207C170.733 48.1235 170.462 46.9689 170.462 45.6568V45.3419C170.462 44.0123 170.733 42.8489 171.276 41.8518C171.818 40.8546 172.57 40.0848 173.532 39.5425C174.495 38.9827 175.597 38.7028 176.839 38.7028C178.046 38.7028 179.113 38.9652 180.04 39.49C180.968 39.9974 181.694 40.7321 182.218 41.6943C182.743 42.6565 183.006 43.7849 183.006 45.0795V46.0242H172.535C172.588 47.4062 173.034 48.4909 173.874 49.2782C174.713 50.0479 175.763 50.4328 177.023 50.4328C178.125 50.4328 178.973 50.1791 179.568 49.6718C180.163 49.1644 180.618 48.5609 180.933 47.8611L182.717 48.7271C182.455 49.2694 182.087 49.8117 181.615 50.3541C181.16 50.8964 180.556 51.3512 179.804 51.7186C179.069 52.086 178.125 52.2697 176.97 52.2697ZM172.562 44.3185H180.906C180.836 43.1289 180.425 42.2016 179.673 41.5369C178.938 40.8721 177.994 40.5397 176.839 40.5397C175.667 40.5397 174.705 40.8721 173.952 41.5369C173.2 42.2016 172.736 43.1289 172.562 44.3185Z" fill="#949686"/>
<path d="M188.603 51.9023V40.8808H184.667V39.0701H188.603V35.7899C188.603 35.0902 188.795 34.5391 189.18 34.1367C189.582 33.7343 190.151 33.5332 190.886 33.5332H194.114V35.3176H191.463C190.938 35.3176 190.676 35.58 190.676 36.1048V39.0701H194.717V40.8808H190.676V51.9023H188.603Z" fill="#949686"/>
<path d="M202.982 52.2697C201.688 52.2697 200.542 51.9985 199.545 51.4562C198.565 50.9139 197.795 50.1529 197.235 49.1732C196.693 48.176 196.422 47.0039 196.422 45.6568V45.3157C196.422 43.9861 196.693 42.8227 197.235 41.8255C197.795 40.8283 198.565 40.0586 199.545 39.5163C200.542 38.9739 201.688 38.7028 202.982 38.7028C204.277 38.7028 205.414 38.9739 206.394 39.5163C207.391 40.0586 208.161 40.8283 208.703 41.8255C209.263 42.8227 209.543 43.9861 209.543 45.3157V45.6568C209.543 47.0039 209.263 48.176 208.703 49.1732C208.161 50.1529 207.391 50.9139 206.394 51.4562C205.414 51.9985 204.277 52.2697 202.982 52.2697ZM202.982 50.4065C204.347 50.4065 205.432 49.9779 206.236 49.1207C207.059 48.246 207.47 47.0739 207.47 45.6043V45.3681C207.47 43.8986 207.059 42.7352 206.236 41.878C205.432 41.0033 204.347 40.5659 202.982 40.5659C201.635 40.5659 200.551 41.0033 199.728 41.878C198.906 42.7352 198.495 43.8986 198.495 45.3681V45.6043C198.495 47.0739 198.906 48.246 199.728 49.1207C200.551 49.9779 201.635 50.4065 202.982 50.4065Z" fill="#949686"/>
<path d="M213.273 51.9023V39.0701H215.294V40.6446H215.661C215.889 40.0848 216.239 39.6737 216.711 39.4113C217.183 39.1489 217.804 39.0177 218.574 39.0177H220.096V40.9071H218.443C217.516 40.9071 216.764 41.1695 216.186 41.6943C215.626 42.2017 215.346 42.9976 215.346 44.0823V51.9023H213.273Z" fill="#949686"/>
<path d="M228.608 52.2697C227.366 52.2697 226.247 52.0073 225.249 51.4825C224.27 50.9401 223.491 50.1704 222.914 49.1732C222.354 48.176 222.074 46.9951 222.074 45.6306V45.3419C222.074 43.9598 222.354 42.779 222.914 41.7993C223.491 40.8021 224.27 40.0411 225.249 39.5163C226.247 38.9739 227.366 38.7028 228.608 38.7028C229.833 38.7028 230.874 38.9302 231.731 39.385C232.606 39.8399 233.288 40.4435 233.778 41.1957C234.285 41.948 234.609 42.7527 234.749 43.61L232.728 44.0298C232.641 43.4 232.431 42.8227 232.099 42.2979C231.784 41.773 231.338 41.3532 230.76 41.0383C230.183 40.7234 229.474 40.5659 228.635 40.5659C227.777 40.5659 227.008 40.7584 226.325 41.1432C225.661 41.5281 225.127 42.0792 224.725 42.7965C224.34 43.5137 224.147 44.371 224.147 45.3681V45.6043C224.147 46.6015 224.34 47.4587 224.725 48.176C225.127 48.8933 225.661 49.4443 226.325 49.8292C227.008 50.2141 227.777 50.4065 228.635 50.4065C229.912 50.4065 230.883 50.0741 231.547 49.4094C232.23 48.7446 232.65 47.9223 232.807 46.9426L234.854 47.3888C234.661 48.2285 234.312 49.0245 233.804 49.7767C233.297 50.529 232.606 51.1326 231.731 51.5874C230.874 52.0423 229.833 52.2697 228.608 52.2697Z" fill="#949686"/>
<path d="M244.266 52.2697C242.971 52.2697 241.834 51.9985 240.854 51.4562C239.875 50.8964 239.114 50.1179 238.571 49.1207C238.029 48.1235 237.758 46.9689 237.758 45.6568V45.3419C237.758 44.0123 238.029 42.8489 238.571 41.8518C239.114 40.8546 239.866 40.0848 240.828 39.5425C241.79 38.9827 242.892 38.7028 244.134 38.7028C245.342 38.7028 246.409 38.9652 247.336 39.49C248.263 39.9974 248.989 40.7321 249.514 41.6943C250.039 42.6565 250.301 43.7849 250.301 45.0795V46.0242H239.831C239.883 47.4062 240.329 48.4909 241.169 49.2782C242.009 50.0479 243.059 50.4328 244.318 50.4328C245.42 50.4328 246.269 50.1791 246.864 49.6718C247.458 49.1644 247.913 48.5609 248.228 47.8611L250.013 48.7271C249.75 49.2694 249.383 49.8117 248.91 50.3541C248.456 50.8964 247.852 51.3512 247.1 51.7186C246.365 52.086 245.42 52.2697 244.266 52.2697ZM239.857 44.3185H248.202C248.132 43.1289 247.721 42.2016 246.969 41.5369C246.234 40.8721 245.289 40.5397 244.134 40.5397C242.962 40.5397 242 40.8721 241.248 41.5369C240.496 42.2016 240.032 43.1289 239.857 44.3185Z" fill="#949686"/>
<path d="M259.087 52.2697C257.495 52.2697 256.148 51.9023 255.046 51.1675C253.961 50.4328 253.305 49.2694 253.077 47.6774L255.046 47.2313C255.186 48.071 255.448 48.7358 255.833 49.2257C256.218 49.698 256.69 50.0392 257.25 50.2491C257.827 50.4415 258.44 50.5378 259.087 50.5378C260.049 50.5378 260.81 50.3453 261.37 49.9604C261.93 49.5756 262.21 49.0595 262.21 48.4122C262.21 47.7474 261.938 47.2838 261.396 47.0214C260.871 46.7415 260.145 46.514 259.218 46.3391L258.142 46.1554C257.32 46.0154 256.568 45.7968 255.885 45.4994C255.203 45.2019 254.661 44.7996 254.258 44.2922C253.856 43.7849 253.655 43.1463 253.655 42.3766C253.655 41.222 254.101 40.321 254.993 39.6737C255.885 39.0264 257.066 38.7028 258.536 38.7028C259.988 38.7028 261.16 39.0352 262.052 39.6999C262.962 40.3472 263.548 41.2657 263.81 42.4553L261.868 42.9539C261.711 42.0267 261.335 41.3794 260.74 41.012C260.145 40.6272 259.41 40.4347 258.536 40.4347C257.661 40.4347 256.97 40.6009 256.463 40.9333C255.955 41.2482 255.702 41.7206 255.702 42.3504C255.702 42.9627 255.938 43.4175 256.41 43.7149C256.9 43.9948 257.547 44.2048 258.352 44.3447L259.428 44.5284C260.338 44.6859 261.151 44.9045 261.868 45.1845C262.603 45.4469 263.181 45.8317 263.6 46.3391C264.038 46.8464 264.256 47.5112 264.256 48.3335C264.256 49.5931 263.784 50.564 262.839 51.2463C261.912 51.9286 260.661 52.2697 259.087 52.2697Z" fill="#949686"/>
<path d="M274.417 51.9023V33.5332H281.449C282.552 33.5332 283.531 33.7518 284.389 34.1892C285.263 34.6091 285.954 35.2126 286.462 35.9999C286.969 36.7871 287.223 37.7406 287.223 38.8602V39.2014C287.223 40.3035 286.96 41.257 286.435 42.0617C285.928 42.8489 285.237 43.4525 284.362 43.8724C283.488 44.2922 282.517 44.5022 281.449 44.5022H276.621V51.9023H274.417ZM276.621 42.5078H281.213C282.385 42.5078 283.313 42.2191 283.995 41.6418C284.677 41.047 285.018 40.216 285.018 39.1489V38.8865C285.018 37.8193 284.677 36.9971 283.995 36.4197C283.33 35.8249 282.403 35.5275 281.213 35.5275H276.621V42.5078Z" fill="#949686"/>
<path d="M290.256 51.9023V39.0701H292.276V40.6446H292.644C292.871 40.0848 293.221 39.6737 293.693 39.4113C294.166 39.1489 294.787 39.0177 295.557 39.0177H297.079V40.9071H295.425C294.498 40.9071 293.746 41.1695 293.169 41.6943C292.609 42.2017 292.329 42.9976 292.329 44.0823V51.9023H290.256Z" fill="#949686"/>
<path d="M305.617 52.2697C304.322 52.2697 303.177 51.9985 302.179 51.4562C301.2 50.9139 300.43 50.1529 299.87 49.1732C299.328 48.176 299.057 47.0039 299.057 45.6568V45.3157C299.057 43.9861 299.328 42.8227 299.87 41.8255C300.43 40.8283 301.2 40.0586 302.179 39.5163C303.177 38.9739 304.322 38.7028 305.617 38.7028C306.912 38.7028 308.049 38.9739 309.028 39.5163C310.026 40.0586 310.795 40.8283 311.338 41.8255C311.897 42.8227 312.177 43.9861 312.177 45.3157V45.6568C312.177 47.0039 311.897 48.176 311.338 49.1732C310.795 50.1529 310.026 50.9139 309.028 51.4562C308.049 51.9985 306.912 52.2697 305.617 52.2697ZM305.617 50.4065C306.982 50.4065 308.066 49.9779 308.871 49.1207C309.693 48.246 310.104 47.0739 310.104 45.6043V45.3681C310.104 43.8986 309.693 42.7352 308.871 41.878C308.066 41.0033 306.982 40.5659 305.617 40.5659C304.27 40.5659 303.185 41.0033 302.363 41.878C301.541 42.7352 301.13 43.8986 301.13 45.3681V45.6043C301.13 47.0739 301.541 48.246 302.363 49.1207C303.185 49.9779 304.27 50.4065 305.617 50.4065Z" fill="#949686"/>
<path d="M323.02 52.2697C321.69 52.2697 320.649 52.016 319.897 51.5087C319.162 51.0014 318.628 50.424 318.296 49.7767H317.929V51.9023H315.908V33.5332H317.981V41.0908H318.348C318.558 40.6884 318.856 40.3122 319.241 39.9624C319.626 39.595 320.124 39.2976 320.736 39.0701C321.366 38.8252 322.127 38.7028 323.02 38.7028C324.139 38.7028 325.154 38.9739 326.064 39.5163C326.991 40.0411 327.726 40.8021 328.268 41.7993C328.81 42.779 329.081 43.9511 329.081 45.3157V45.6568C329.081 47.0214 328.801 48.2022 328.242 49.1994C327.699 50.1966 326.964 50.9576 326.037 51.4825C325.128 52.0073 324.122 52.2697 323.02 52.2697ZM322.468 50.4328C323.798 50.4328 324.874 50.0129 325.696 49.1732C326.536 48.316 326.956 47.1263 326.956 45.6043V45.3681C326.956 43.8461 326.536 42.6653 325.696 41.8255C324.874 40.9683 323.798 40.5397 322.468 40.5397C321.156 40.5397 320.072 40.9683 319.214 41.8255C318.375 42.6653 317.955 43.8461 317.955 45.3681V45.6043C317.955 47.1263 318.375 48.316 319.214 49.1732C320.072 50.0129 321.156 50.4328 322.468 50.4328Z" fill="#949686"/>
<path d="M332.796 51.9023V33.5332H334.869V51.9023H332.796Z" fill="#949686"/>
<path d="M345.106 52.2697C343.812 52.2697 342.675 51.9985 341.695 51.4562C340.715 50.8964 339.954 50.1179 339.412 49.1207C338.87 48.1235 338.598 46.9689 338.598 45.6568V45.3419C338.598 44.0123 338.87 42.8489 339.412 41.8518C339.954 40.8546 340.707 40.0848 341.669 39.5425C342.631 38.9827 343.733 38.7028 344.975 38.7028C346.182 38.7028 347.249 38.9652 348.177 39.49C349.104 39.9974 349.83 40.7321 350.355 41.6943C350.88 42.6565 351.142 43.7849 351.142 45.0795V46.0242H340.672C340.724 47.4062 341.17 48.4909 342.01 49.2782C342.85 50.0479 343.899 50.4328 345.159 50.4328C346.261 50.4328 347.109 50.1791 347.704 49.6718C348.299 49.1644 348.754 48.5609 349.069 47.8611L350.853 48.7271C350.591 49.2694 350.224 49.8117 349.751 50.3541C349.296 50.8964 348.693 51.3512 347.94 51.7186C347.206 52.086 346.261 52.2697 345.106 52.2697ZM340.698 44.3185H349.043C348.973 43.1289 348.562 42.2016 347.809 41.5369C347.074 40.8721 346.13 40.5397 344.975 40.5397C343.803 40.5397 342.841 40.8721 342.089 41.5369C341.336 42.2016 340.873 43.1289 340.698 44.3185Z" fill="#949686"/>
<path d="M354.758 51.9023V39.0701H356.779V40.6709H357.146C357.391 40.216 357.793 39.7962 358.353 39.4113C358.913 39.0264 359.7 38.834 360.715 38.834C361.712 38.834 362.517 39.0527 363.129 39.49C363.759 39.9274 364.214 40.461 364.494 41.0908H364.861C365.158 40.461 365.605 39.9274 366.199 39.49C366.812 39.0527 367.66 38.834 368.745 38.834C369.602 38.834 370.354 39.0089 371.002 39.3588C371.649 39.7087 372.156 40.216 372.524 40.8808C372.908 41.5281 373.101 42.3066 373.101 43.2163V51.9023H371.028V43.4C371.028 42.5428 370.774 41.8693 370.267 41.3794C369.777 40.8721 369.086 40.6184 368.194 40.6184C367.249 40.6184 366.471 40.9246 365.858 41.5369C365.263 42.1492 364.966 43.0326 364.966 44.1873V51.9023H362.893V43.4C362.893 42.5428 362.639 41.8693 362.132 41.3794C361.642 40.8721 360.951 40.6184 360.059 40.6184C359.114 40.6184 358.336 40.9246 357.723 41.5369C357.128 42.1492 356.831 43.0326 356.831 44.1873V51.9023H354.758Z" fill="#949686"/>
<path d="M378.463 52.2697C377.956 52.2697 377.527 52.1035 377.178 51.7711C376.845 51.4387 376.679 51.0101 376.679 50.4853C376.679 49.9604 376.845 49.5318 377.178 49.1994C377.527 48.867 377.956 48.7008 378.463 48.7008C378.988 48.7008 379.417 48.867 379.749 49.1994C380.082 49.5318 380.248 49.9604 380.248 50.4853C380.248 51.0101 380.082 51.4387 379.749 51.7711C379.417 52.1035 378.988 52.2697 378.463 52.2697Z" fill="#949686"/>
</svg>
