<svg width="20" height="20" viewBox="0 0 20 20" fill="none" xmlns="http://www.w3.org/2000/svg">
<path d="M18.9857 5.44283L19.0385 5.41224C18.9329 5.24398 18.7745 5.09103 18.6161 5.01455L10.1138 0.762403C9.973 0.685925 9.77936 0.655334 9.56813 0.655334C9.35689 0.655334 9.16326 0.701221 9.02243 0.762403L0.572987 5.02985C0.273736 5.1828 0.0625 5.56519 0.0625 5.85581V14.3754C0.0625 14.5437 0.097706 14.7272 0.220927 14.8954L0.185721 14.9107C0.273736 15.0331 0.396957 15.1402 0.520178 15.2014L9.00483 19.4688C9.14565 19.5453 9.33929 19.5759 9.55052 19.5759C9.76176 19.5759 9.95539 19.53 10.0962 19.4688L18.5457 15.2014C18.8449 15.0484 19.0562 14.666 19.0562 14.3754V5.84051C19.0738 5.71815 19.0562 5.58049 18.9857 5.44283ZM9.56813 13.8554C11.17 13.8554 12.5782 13.0906 13.3176 11.9587L15.5884 13.1212C14.3914 14.926 12.1382 16.1497 9.56813 16.1497C5.73067 16.1497 2.61494 13.4424 2.61494 10.108C2.61494 6.77354 5.73067 4.06623 9.56813 4.06623C12.1558 4.06623 14.409 5.30517 15.606 7.12533L13.3176 8.27249C12.5782 7.12533 11.17 6.36056 9.56813 6.36056C7.19172 6.36056 5.25539 8.04306 5.25539 10.108C5.25539 12.1728 7.19172 13.8554 9.56813 13.8554Z" fill="#4285F4"/>
</svg>
