<svg width="326" height="64" viewBox="0 0 326 64" fill="none" xmlns="http://www.w3.org/2000/svg">
<path d="M210.706 18.7696C209.342 18.7696 208.152 18.5247 207.137 18.0349C206.123 17.545 205.335 16.819 204.776 15.8568C204.216 14.8771 203.936 13.6787 203.936 12.2617V0.0330811H206.114V12.2879C206.114 13.7925 206.516 14.9209 207.321 15.6731C208.126 16.4254 209.254 16.8015 210.706 16.8015C212.158 16.8015 213.287 16.4254 214.091 15.6731C214.896 14.9209 215.298 13.7925 215.298 12.2879V0.0330811H217.503V12.2617C217.503 13.6787 217.223 14.8771 216.663 15.8568C216.103 16.819 215.307 17.545 214.275 18.0349C213.26 18.5247 212.071 18.7696 210.706 18.7696Z" fill="#949686"/>
<path d="M220.573 18.4022L225.717 11.8943L220.731 5.57007H223.224L227.055 10.5297H227.423L231.228 5.57007H233.747L228.735 11.8943L233.878 18.4022H231.359L227.423 13.2851H227.055L223.119 18.4022H220.573Z" fill="#949686"/>
<path d="M242.974 18.4022V16.4341H245.545V2.00121H242.974V0.0330811H250.138C252.552 0.0330811 254.415 0.645386 255.727 1.87C257.057 3.09461 257.721 4.97526 257.721 7.51195V10.9234C257.721 13.4776 257.057 15.367 255.727 16.5916C254.415 17.7987 252.552 18.4022 250.138 18.4022H242.974ZM247.75 16.4079H250.138C251.922 16.4079 253.269 15.9705 254.179 15.0958C255.088 14.2211 255.543 12.8653 255.543 11.0283V7.43323C255.543 5.56132 255.088 4.19676 254.179 3.33953C253.269 2.4823 251.922 2.05369 250.138 2.05369H247.75V16.4079Z" fill="#949686"/>
<path d="M267.197 18.7696C265.902 18.7696 264.765 18.4985 263.785 17.9561C262.806 17.3963 262.045 16.6178 261.502 15.6206C260.96 14.6234 260.689 13.4688 260.689 12.1567V11.8418C260.689 10.5123 260.96 9.34887 261.502 8.35169C262.045 7.3545 262.797 6.58475 263.759 6.04242C264.721 5.4826 265.824 5.20269 267.066 5.20269C268.273 5.20269 269.34 5.46511 270.267 5.98994C271.194 6.49728 271.92 7.23204 272.445 8.19424C272.97 9.15643 273.232 10.2848 273.232 11.5794V12.5241H262.762C262.815 13.9062 263.261 14.9908 264.1 15.7781C264.94 16.5478 265.99 16.9327 267.249 16.9327C268.352 16.9327 269.2 16.679 269.795 16.1717C270.39 15.6644 270.844 15.0608 271.159 14.361L272.944 15.227C272.681 15.7693 272.314 16.3117 271.842 16.854C271.387 17.3963 270.783 17.8512 270.031 18.2186C269.296 18.5859 268.352 18.7696 267.197 18.7696ZM262.788 10.8184H271.133C271.063 9.62878 270.652 8.70158 269.9 8.03679C269.165 7.372 268.22 7.0396 267.066 7.0396C265.894 7.0396 264.931 7.372 264.179 8.03679C263.427 8.70158 262.963 9.62878 262.788 10.8184Z" fill="#949686"/>
<path d="M282.018 18.7696C280.426 18.7696 279.079 18.4022 277.977 17.6675C276.892 16.9327 276.236 15.7693 276.009 14.1773L277.977 13.7312C278.117 14.571 278.379 15.2358 278.764 15.7256C279.149 16.1979 279.621 16.5391 280.181 16.749C280.758 16.9415 281.371 17.0377 282.018 17.0377C282.98 17.0377 283.741 16.8452 284.301 16.4604C284.861 16.0755 285.141 15.5594 285.141 14.9121C285.141 14.2473 284.87 13.7837 284.327 13.5213C283.803 13.2414 283.076 13.014 282.149 12.839L281.073 12.6553C280.251 12.5154 279.499 12.2967 278.817 11.9993C278.134 11.7019 277.592 11.2995 277.19 10.7922C276.787 10.2848 276.586 9.64628 276.586 8.87652C276.586 7.72189 277.032 6.82092 277.924 6.17363C278.817 5.52634 279.997 5.20269 281.467 5.20269C282.919 5.20269 284.091 5.53508 284.983 6.19987C285.893 6.84717 286.479 7.76562 286.742 8.95525L284.8 9.45384C284.642 8.52663 284.266 7.87934 283.671 7.51195C283.076 7.12708 282.342 6.93464 281.467 6.93464C280.592 6.93464 279.901 7.10084 279.394 7.43323C278.887 7.74813 278.633 8.22048 278.633 8.85028C278.633 9.46258 278.869 9.91744 279.341 10.2148C279.831 10.4948 280.479 10.7047 281.283 10.8446L282.359 11.0283C283.269 11.1858 284.082 11.4045 284.8 11.6844C285.534 11.9468 286.112 12.3317 286.532 12.839C286.969 13.3463 287.188 14.0111 287.188 14.8334C287.188 16.093 286.715 17.0639 285.771 17.7462C284.843 18.4285 283.593 18.7696 282.018 18.7696Z" fill="#949686"/>
<path d="M290.687 18.4022V5.57007H292.76V18.4022H290.687ZM291.737 3.57571C291.282 3.57571 290.897 3.427 290.582 3.1296C290.284 2.83219 290.136 2.45606 290.136 2.00121C290.136 1.52886 290.284 1.14398 290.582 0.846573C290.897 0.549167 291.282 0.400464 291.737 0.400464C292.191 0.400464 292.568 0.549167 292.865 0.846573C293.162 1.14398 293.311 1.52886 293.311 2.00121C293.311 2.45606 293.162 2.83219 292.865 3.1296C292.568 3.427 292.191 3.57571 291.737 3.57571Z" fill="#949686"/>
<path d="M296.489 12.0518V11.6844C296.489 10.3373 296.76 9.18267 297.303 8.22048C297.845 7.25829 298.58 6.51477 299.507 5.98994C300.434 5.46511 301.449 5.20269 302.551 5.20269C303.898 5.20269 304.93 5.46511 305.648 5.98994C306.382 6.49728 306.925 7.06585 307.275 7.69565H307.642V5.57007H309.61V21.3938C309.61 22.0936 309.418 22.6446 309.033 23.047C308.648 23.4494 308.088 23.6506 307.353 23.6506H298.641V21.8137H306.802C307.327 21.8137 307.59 21.5512 307.59 21.0264V16.1455H307.222C307.012 16.5303 306.715 16.9065 306.33 17.2739C305.945 17.6412 305.447 17.9474 304.834 18.1923C304.222 18.4197 303.461 18.5335 302.551 18.5335C301.449 18.5335 300.434 18.271 299.507 17.7462C298.58 17.2214 297.845 16.4779 297.303 15.5157C296.76 14.536 296.489 13.3813 296.489 12.0518ZM303.102 16.6965C304.432 16.6965 305.508 16.2767 306.33 15.4369C307.17 14.5972 307.59 13.4426 307.59 11.973V11.7631C307.59 10.2761 307.17 9.12144 306.33 8.2992C305.508 7.45947 304.432 7.0396 303.102 7.0396C301.79 7.0396 300.705 7.45947 299.848 8.2992C299.009 9.12144 298.589 10.2761 298.589 11.7631V11.973C298.589 13.4426 299.009 14.5972 299.848 15.4369C300.705 16.2767 301.79 16.6965 303.102 16.6965Z" fill="#949686"/>
<path d="M313.956 18.4022V5.57007H315.976V7.74813H316.344C316.624 7.13582 317.096 6.58475 317.761 6.09491C318.443 5.58757 319.44 5.3339 320.752 5.3339C321.715 5.3339 322.572 5.53508 323.324 5.93746C324.094 6.33983 324.706 6.93464 325.161 7.72189C325.616 8.50914 325.843 9.48008 325.843 10.6347V18.4022H323.77V10.7922C323.77 9.51507 323.447 8.58786 322.799 8.01055C322.169 7.43323 321.312 7.14457 320.228 7.14457C318.985 7.14457 317.971 7.54694 317.184 8.35169C316.414 9.15643 316.029 10.3548 316.029 11.9468V18.4022H313.956Z" fill="#949686"/>
<path d="M19.5964 50.3868C15.5645 50.3868 12.0952 49.6601 9.18852 48.2067C6.3287 46.7065 4.12523 44.5968 2.57811 41.8776C1.07788 39.1116 0.327759 35.8532 0.327759 32.1027V0.175768H9.61047V32.3839C9.61047 35.3844 10.4543 37.752 12.1421 39.4866C13.8768 41.2213 16.3615 42.0886 19.5964 42.0886C22.8313 42.0886 25.2926 41.2213 26.9804 39.4866C28.715 37.752 29.5823 35.3844 29.5823 32.3839V0.175768H38.8651V32.1027C38.8651 35.8532 38.0915 39.1116 36.5444 41.8776C35.0441 44.5968 32.8407 46.7065 29.934 48.2067C27.0741 49.6601 23.6283 50.3868 19.5964 50.3868Z" fill="#BC3081"/>
<path d="M47.8577 49.4022V0.175768H57.1404V49.4022H47.8577Z" fill="#BC3081"/>
<path d="M60.6335 63.4669L81.3086 0.175768H90.1694L69.4942 63.4669H60.6335Z" fill="#BC3081"/>
<path d="M112.651 50.3868C108.62 50.3868 105.15 49.6601 102.244 48.2067C99.3838 46.7065 97.1803 44.5968 95.6332 41.8776C94.1329 39.1116 93.3828 35.8532 93.3828 32.1027V0.175768H102.666V32.3839C102.666 35.3844 103.509 37.752 105.197 39.4866C106.932 41.2213 109.417 42.0886 112.651 42.0886C115.886 42.0886 118.348 41.2213 120.035 39.4866C121.77 37.752 122.637 35.3844 122.637 32.3839V0.175768H131.92V32.1027C131.92 35.8532 131.147 39.1116 129.599 41.8776C128.099 44.5968 125.896 46.7065 122.989 48.2067C120.129 49.6601 116.683 50.3868 112.651 50.3868Z" fill="#BC3081"/>
<path d="M137.818 49.4022L152.235 24.578L137.959 0.175768H148.508L158.283 17.9676H159.548L169.323 0.175768H179.872L165.596 24.578L180.013 49.4022H169.464L159.548 31.1884H158.283L148.367 49.4022H137.818Z" fill="#BC3081"/>
</svg>
